<!DOCTYPE svg PUBLIC "-//W3C//DTD SVG 20010904//EN" "http://www.w3.org/TR/2001/REC-SVG-20010904/DTD/svg10.dtd">
<svg version="1.0" xmlns="http://www.w3.org/2000/svg" width="500px" height="390px" viewBox="0 0 5000 3900" preserveAspectRatio="xMidYMid meet">
<g id="layer101" fill="#010101" stroke="none">
 <path d="M0 1950 l0 -1950 2500 0 2500 0 0 1950 0 1950 -2500 0 -2500 0 0 -1950z"/>
 </g>
<g id="layer102" fill="#ffffff" stroke="none">
 <path d="M0 1950 l0 -1950 2500 0 2500 0 0 1950 0 1950 -2500 0 -2500 0 0 -1950z m2645 786 c18 -9 45 -12 85 -9 42 4 71 1 100 -11 22 -9 54 -16 71 -16 19 0 43 -10 61 -25 26 -22 80 -33 130 -26 3 0 53 -9 110 -20 56 -11 127 -22 155 -25 29 -3 68 -11 88 -19 19 -8 45 -15 58 -15 14 0 46 -9 73 -21 91 -39 109 -46 144 -59 19 -7 42 -19 50 -25 16 -13 164 -85 175 -85 3 0 23 -11 43 -25 20 -14 43 -25 52 -25 8 0 26 -9 39 -19 14 -10 30 -17 37 -14 17 6 64 -77 64 -113 0 -16 8 -42 19 -57 10 -15 16 -38 14 -51 -3 -13 2 -28 11 -36 15 -12 15 -14 1 -30 -14 -15 -15 -27 -5 -81 6 -35 20 -89 32 -119 11 -31 22 -92 25 -138 l6 -83 68 -34 c37 -19 70 -39 74 -45 4 -6 15 -8 25 -5 13 4 20 -1 25 -17 4 -13 15 -32 25 -43 10 -11 25 -37 34 -57 10 -27 21 -38 36 -38 11 0 41 -19 66 -42 26 -24 51 -43 58 -44 6 0 30 -4 54 -9 42 -7 42 -8 36 -41 -4 -22 -2 -34 5 -34 6 0 11 7 11 15 0 8 3 14 8 14 4 -1 10 0 15 1 4 1 19 4 35 5 15 1 48 6 75 10 l47 8 0 -41 c0 -39 -1 -40 -41 -47 -61 -10 -140 -12 -146 -2 -2 4 -22 7 -44 5 -32 -1 -45 3 -64 24 -13 14 -38 29 -55 33 -16 4 -30 12 -30 18 -1 31 -17 40 -52 28 -42 -14 -75 -47 -80 -81 -3 -22 -7 -25 -38 -22 -19 2 -37 6 -39 8 -3 3 7 29 22 60 27 55 45 68 130 98 16 5 13 10 -17 36 -19 17 -38 40 -41 50 -5 17 -11 14 -50 -23 -24 -23 -52 -49 -62 -58 -10 -9 -44 -50 -76 -91 l-57 -75 -67 -6 c-70 -7 -83 -1 -83 36 0 10 7 17 18 17 9 0 44 14 76 30 32 17 67 30 77 30 11 0 19 4 19 9 0 18 -76 144 -115 191 -130 157 -155 189 -155 197 0 15 -42 51 -74 63 -22 8 -54 8 -119 0 -49 -6 -91 -9 -93 -7 -2 2 5 13 16 25 17 18 25 20 46 12 72 -28 124 0 124 66 0 43 -18 55 -97 64 -67 7 -91 17 -318 124 -99 47 -181 77 -265 96 -30 7 -75 23 -100 35 -25 12 -58 25 -75 29 -16 4 -39 16 -50 26 -31 29 -195 110 -222 110 -14 0 -37 7 -51 15 -15 8 -43 21 -62 30 -50 21 -160 83 -195 110 -51 38 -122 57 -185 50 -30 -4 -62 -7 -70 -6 -62 2 -121 11 -138 20 -21 11 -167 9 -236 -4 -20 -4 -42 -3 -49 3 -30 24 -57 24 -88 -2 -24 -20 -41 -26 -80 -26 -41 0 -51 -4 -65 -24 -8 -14 -30 -30 -48 -36 -18 -6 -53 -23 -78 -39 -65 -41 -71 -80 -68 -401 6 -560 4 -765 -7 -805 -12 -41 -62 -93 -118 -123 -17 -9 -58 -16 -95 -18 -36 -1 -89 -9 -119 -18 -30 -9 -65 -16 -77 -16 -26 0 -42 -18 -59 -67 -9 -27 -23 -43 -47 -55 -28 -13 -41 -30 -61 -80 -15 -35 -31 -82 -37 -104 -5 -23 -17 -48 -26 -55 -63 -52 -143 -74 -266 -72 -86 1 -101 4 -140 29 -70 43 -88 64 -88 101 0 23 9 42 29 64 51 53 61 188 19 248 -35 50 -98 87 -179 105 -14 3 -38 15 -52 27 -24 18 -27 27 -27 82 l0 61 53 -51 c47 -47 138 -103 166 -103 30 0 75 -36 105 -83 55 -86 55 -87 -14 -217 -10 -19 -26 -57 -35 -85 l-17 -49 41 -38 40 -38 106 0 c59 0 115 5 125 10 12 7 21 26 26 56 4 30 12 48 23 51 25 7 97 142 104 196 4 30 16 60 31 78 13 15 26 33 28 39 2 6 28 15 58 20 30 4 75 15 99 24 24 10 67 16 100 15 59 -2 119 6 162 22 40 16 52 66 75 324 3 33 10 72 16 88 11 28 18 107 21 237 1 63 -3 84 -26 135 -27 58 -38 108 -56 273 -11 103 -1 146 39 167 15 8 37 29 48 47 26 41 44 56 105 88 27 14 54 32 62 40 8 8 24 25 35 38 16 17 28 22 48 18 15 -3 52 -8 83 -12 52 -5 58 -3 73 18 15 21 26 24 129 29 86 5 123 11 160 29 37 17 60 21 102 18 30 -3 56 -1 57 3 4 10 127 14 169 5 31 -7 42 -3 83 24 35 24 54 31 75 27 16 -3 41 -2 57 3 40 12 39 12 69 -4z"/>
 </g>

</svg>