<!DOCTYPE svg PUBLIC "-//W3C//DTD SVG 20010904//EN" "http://www.w3.org/TR/2001/REC-SVG-20010904/DTD/svg10.dtd">
<svg version="1.0" xmlns="http://www.w3.org/2000/svg" width="500px" height="390px" viewBox="0 0 5000 3900" preserveAspectRatio="xMidYMid meet">
<g id="layer101" fill="blue" stroke="none">
 <path d="M0 1950 l0 -1950 2500 0 2500 0 0 1950 0 1950 -2500 0 -2500 0 0 -1950z"/>
 </g>
<g id="layer102" fill="white" stroke="none">
 <path d="M0 1950 l0 -1950 2500 0 2500 0 0 1950 0 1950 -2500 0 -2500 0 0 -1950z m3040 1674 c0 -7 8 -19 18 -26 33 -23 31 -41 -9 -85 -44 -48 -45 -52 -24 -93 9 -18 11 -31 5 -35 -11 -7 -3 -53 13 -73 8 -10 1 -20 -24 -41 -33 -28 -34 -31 -33 -102 0 -96 39 -343 61 -384 6 -11 14 -39 18 -62 4 -24 12 -43 19 -43 6 0 19 -9 29 -20 23 -27 78 -27 103 1 10 12 34 28 52 36 18 8 55 29 82 48 l48 34 27 -20 c24 -20 27 -20 59 -5 41 20 69 20 127 3 43 -13 48 -12 134 23 50 20 116 52 148 69 65 36 100 36 183 -1 46 -20 48 -24 59 -114 3 -28 12 -77 21 -110 8 -33 16 -112 18 -179 2 -114 26 -237 58 -298 6 -13 5 -26 -6 -42 -20 -30 -20 -49 -1 -65 14 -12 14 -15 0 -30 -14 -15 -15 -27 -5 -81 6 -35 20 -89 32 -119 11 -31 22 -92 25 -138 l6 -83 68 -34 c37 -19 70 -39 74 -45 4 -6 15 -8 25 -5 13 4 20 -1 25 -17 4 -13 15 -32 25 -43 10 -11 25 -37 34 -57 10 -27 21 -38 36 -38 11 0 41 -19 66 -42 26 -24 51 -43 58 -44 6 0 30 -4 54 -9 42 -8 42 -8 37 -44 -6 -34 -5 -35 9 -17 9 11 16 16 16 12 0 -4 6 -4 12 1 13 7 61 14 128 16 33 2 35 1 35 -32 0 -30 -4 -36 -30 -43 -42 -11 -155 -15 -162 -6 -2 5 -22 8 -44 6 -21 -1 -44 3 -51 10 -7 7 -19 12 -29 12 -23 0 -109 -68 -109 -86 0 -19 -27 -73 -50 -99 -47 -53 -97 -188 -119 -323 -5 -33 -19 -78 -29 -99 -27 -51 -52 -176 -52 -253 0 -54 -4 -66 -27 -91 -16 -16 -32 -29 -36 -29 -10 0 -1 145 15 242 8 52 8 78 -1 108 -19 65 -35 71 -305 120 -61 11 -141 29 -178 41 -54 16 -88 20 -158 17 -50 -1 -90 -2 -90 -1 0 1 9 7 21 14 30 16 90 20 309 22 180 2 200 4 265 27 55 20 83 37 132 85 66 65 83 102 83 188 0 58 -29 167 -47 174 -25 10 -65 -8 -81 -37 -23 -40 -37 -43 -69 -16 l-26 23 63 31 c35 18 71 32 82 32 10 0 18 4 18 9 0 18 -76 144 -115 191 -130 157 -155 189 -155 197 0 15 -42 51 -74 63 -22 8 -54 8 -119 0 -49 -6 -91 -9 -93 -7 -2 2 5 13 16 25 17 18 25 20 46 12 72 -28 124 0 124 66 0 43 -18 55 -97 64 -75 9 -133 30 -236 84 -38 20 -75 36 -83 36 -8 0 -37 -11 -64 -25 -27 -14 -59 -25 -70 -25 -11 0 -43 -12 -71 -26 -28 -14 -74 -28 -102 -31 -29 -3 -58 -10 -64 -15 -23 -19 -38 35 -23 86 22 81 -2 150 -74 209 -56 47 -211 127 -243 127 -14 0 -37 7 -51 15 -15 8 -43 21 -62 30 -50 21 -160 83 -195 110 -51 38 -122 57 -185 50 -30 -4 -62 -7 -70 -6 -62 2 -121 11 -138 20 -21 11 -167 9 -236 -4 -20 -4 -42 -3 -49 3 -30 24 -57 24 -88 -2 -24 -20 -41 -26 -80 -26 -41 0 -51 -4 -65 -24 -8 -14 -30 -30 -48 -36 -18 -6 -53 -23 -78 -39 -65 -41 -71 -80 -68 -401 6 -560 4 -765 -7 -805 -12 -41 -62 -93 -118 -123 -17 -9 -58 -16 -95 -18 -36 -1 -89 -9 -119 -18 -30 -9 -65 -16 -77 -16 -26 0 -42 -18 -59 -67 -9 -27 -23 -43 -47 -55 -28 -13 -41 -30 -61 -80 -15 -35 -31 -82 -37 -104 -5 -23 -17 -48 -26 -55 -63 -52 -143 -74 -266 -72 -86 1 -101 4 -140 29 -70 43 -88 64 -88 101 0 23 9 42 29 64 51 53 61 188 19 248 -25 36 -89 81 -132 92 -112 30 -130 48 -131 125 -1 30 1 54 4 54 3 0 28 -22 56 -49 46 -46 137 -101 164 -101 30 0 75 -36 105 -83 55 -86 55 -87 -14 -217 -10 -19 -26 -57 -35 -85 l-17 -49 41 -38 40 -38 106 0 c59 0 115 5 125 10 12 7 21 26 26 56 4 30 12 48 23 51 25 7 97 142 104 196 4 30 16 60 31 78 13 15 26 33 28 39 2 6 28 15 58 20 30 4 75 15 99 24 24 10 67 16 100 15 59 -2 119 6 162 22 40 16 52 66 75 324 3 33 10 72 16 88 11 28 18 107 21 237 1 63 -3 84 -26 135 -27 58 -38 108 -56 273 -11 103 -1 146 39 167 15 8 37 29 48 47 26 41 44 56 105 88 27 14 54 32 62 40 8 8 24 25 35 38 16 17 28 22 48 18 15 -3 52 -8 83 -12 52 -5 58 -3 73 18 15 21 26 24 129 29 86 5 123 11 160 29 37 17 60 21 102 18 30 -3 56 -1 57 3 4 10 127 14 169 5 31 -7 42 -3 83 24 36 24 54 31 76 27 15 -4 43 -2 61 3 25 7 42 6 64 -4 20 -9 51 -12 93 -9 62 5 62 6 62 37 1 67 11 179 17 189 4 6 6 79 4 161 -2 176 13 268 47 292 14 10 22 26 22 44 0 16 7 35 15 44 8 8 15 23 15 34 0 10 3 22 8 26 4 4 8 12 8 17 1 5 2 13 3 17 0 5 18 26 38 47 34 35 37 36 50 19 7 -10 13 -23 13 -30z"/>
 </g>

</svg>