<!DOCTYPE svg PUBLIC "-//W3C//DTD SVG 20010904//EN" "http://www.w3.org/TR/2001/REC-SVG-20010904/DTD/svg10.dtd">
<svg version="1.0" xmlns="http://www.w3.org/2000/svg" width="500px" height="390px" viewBox="0 0 5000 3900" preserveAspectRatio="xMidYMid meet">
<g id="layer101" fill="#030303" stroke="none">
 <path d="M0 1950 l0 -1950 2500 0 2500 0 0 1950 0 1950 -2500 0 -2500 0 0 -1950z"/>
 </g>
<g id="layer102" fill="#ffffff" stroke="none">
 <path d="M0 1950 l0 -1950 2500 0 2500 0 0 1950 0 1950 -2500 0 -2500 0 0 -1950z m3040 1674 c0 -7 8 -19 18 -26 33 -23 31 -41 -9 -85 -44 -48 -45 -52 -24 -93 9 -18 11 -31 5 -35 -11 -7 -3 -53 13 -73 7 -9 2 -20 -21 -40 -17 -15 -33 -40 -36 -57 -5 -27 -2 -32 34 -48 37 -17 40 -22 40 -57 0 -35 3 -39 28 -42 27 -3 27 -3 24 -71 -3 -52 0 -68 10 -66 7 1 21 -1 31 -6 10 -4 43 -5 72 -2 47 5 59 11 89 44 82 88 101 104 122 99 22 -6 74 26 74 46 0 26 47 108 69 121 15 9 35 24 46 34 23 20 81 43 112 43 11 0 37 7 56 15 39 16 127 20 142 7 6 -5 28 -16 50 -25 36 -13 52 -14 150 -1 l110 15 53 -28 c39 -21 55 -36 63 -61 7 -22 30 -48 68 -75 42 -32 55 -47 53 -64 -2 -12 6 -29 17 -40 30 -28 80 -142 82 -188 1 -22 6 -44 9 -50 17 -24 18 -69 2 -81 -15 -11 -15 -15 2 -52 11 -23 15 -48 11 -61 -4 -13 2 -38 16 -65 20 -41 20 -46 6 -60 -9 -9 -19 -25 -22 -36 -3 -11 -15 -20 -26 -20 -10 0 -19 -5 -19 -11 0 -5 -4 -7 -10 -4 -12 7 -12 -1 -4 -44 4 -17 10 -28 15 -26 16 10 25 -31 21 -97 -3 -62 -6 -68 -25 -68 -12 0 -34 -13 -49 -28 -22 -24 -27 -41 -33 -105 -7 -76 -7 -78 23 -111 17 -19 33 -32 36 -29 3 4 6 1 6 -6 0 -7 4 -10 9 -6 5 3 12 1 16 -5 4 -6 11 -8 16 -5 5 3 6 0 3 -8 -3 -8 0 -18 7 -23 8 -4 10 -3 5 4 -14 23 21 12 42 -13 l22 -25 -23 -38 c-13 -20 -32 -62 -42 -92 -10 -30 -24 -64 -31 -75 -35 -50 0 -143 59 -160 19 -5 39 -13 43 -18 4 -4 24 -7 44 -7 27 0 43 7 65 30 16 16 25 30 21 30 -4 0 15 18 43 40 39 31 51 47 51 68 0 23 6 30 33 40 18 7 39 12 45 12 9 0 12 -84 12 -333 l0 -332 -62 -12 c-39 -7 -67 -19 -73 -29 -22 -37 -66 -74 -88 -74 -13 0 -38 -13 -57 -30 -18 -16 -49 -33 -69 -36 -20 -4 -45 -15 -56 -24 -11 -10 -32 -21 -46 -25 -34 -9 -64 -67 -48 -96 15 -29 5 -46 -36 -63 -20 -9 -34 -19 -31 -24 3 -5 29 -14 58 -21 48 -12 58 -11 106 7 50 19 92 20 92 1 0 -5 -15 -9 -32 -9 -18 0 -44 -9 -57 -19 -23 -18 -24 -21 -12 -57 7 -22 11 -57 9 -79 -3 -36 -6 -40 -41 -50 -21 -6 -41 -16 -45 -21 -4 -6 -18 -17 -30 -23 -18 -10 -23 -19 -19 -37 2 -14 0 -27 -5 -30 -5 -3 -7 -23 -3 -44 6 -34 4 -38 -22 -48 -15 -6 -39 -13 -53 -16 -14 -4 -38 -17 -54 -30 -27 -22 -29 -27 -18 -51 l12 -26 -132 3 c-132 3 -133 3 -145 29 -7 15 -25 30 -40 34 -14 3 -35 12 -44 19 -17 12 -16 15 16 46 29 28 35 31 41 17 3 -10 4 -27 1 -38 -7 -26 14 -49 42 -49 11 0 25 -9 31 -20 14 -26 30 -26 30 0 0 18 14 25 46 21 23 -3 36 44 24 88 -6 23 -7 47 -3 54 28 43 31 80 16 164 -15 78 -19 87 -46 102 -17 9 -40 25 -51 36 -29 28 -85 46 -124 39 -18 -4 -38 -2 -45 3 -13 9 -126 45 -192 61 -22 5 -47 12 -57 16 -11 5 -18 2 -22 -11 -4 -13 -17 -18 -43 -20 -139 -5 -153 -8 -158 -24 -5 -15 -38 -41 -105 -81 -35 -21 -103 -15 -136 11 -32 25 -61 27 -92 5 -12 -8 -27 -12 -32 -9 -6 4 -17 2 -24 -4 -8 -7 -36 -14 -63 -18 -37 -4 -52 -10 -59 -27 -13 -30 -40 -27 -36 4 2 24 55 80 75 80 6 0 19 8 30 17 14 13 36 18 83 18 35 0 64 4 64 8 0 5 6 7 13 5 6 -3 12 -10 12 -17 0 -23 100 -48 168 -42 12 1 17 10 17 30 0 17 5 33 10 36 6 3 19 25 30 47 14 29 17 46 10 59 -14 26 -12 31 9 24 19 -6 36 18 25 36 -3 5 -1 9 4 9 6 0 13 -7 16 -16 5 -13 9 -13 32 5 15 12 37 21 50 21 12 0 26 5 29 10 3 6 17 7 30 4 12 -3 26 -1 29 4 6 11 137 5 170 -8 12 -4 31 -3 44 3 15 7 30 7 47 -1 42 -19 93 -14 141 14 24 14 47 31 51 36 4 7 1 8 -7 3 -9 -5 -11 -4 -6 3 4 7 17 12 29 12 46 0 68 37 62 103 -5 60 -13 87 -28 87 -7 0 -25 7 -41 15 -22 12 -31 13 -37 4 -4 -8 -13 -5 -25 10 -11 11 -35 35 -54 53 -90 86 -85 79 -66 94 10 7 24 10 32 7 17 -6 18 4 3 46 -13 38 -56 64 -82 50 -10 -6 -27 -7 -38 -4 -18 6 -19 8 -5 18 9 7 19 27 22 46 l7 34 -38 -7 c-21 -4 -44 -14 -51 -21 -8 -8 -24 -17 -37 -20 -37 -10 -97 -40 -97 -47 0 -5 -4 -8 -10 -8 -16 0 1 29 21 35 27 9 59 45 59 67 0 17 2 17 24 3 23 -15 26 -15 49 5 32 28 39 57 24 100 -14 41 -65 110 -81 110 -6 0 -40 19 -76 42 l-65 42 -145 3 c-80 2 -156 5 -170 7 -30 4 -52 -3 -45 -14 2 -4 -15 -7 -39 -6 -43 1 -44 2 -39 31 6 38 -18 65 -42 45 -8 -6 -20 -8 -27 -4 -19 12 -40 14 -57 4 -11 -5 -24 -2 -40 11 -13 10 -34 19 -47 19 -23 0 -24 -3 -18 -40 4 -27 3 -40 -5 -40 -6 0 -11 10 -11 23 0 14 -11 29 -33 42 -111 67 -111 67 -150 61 -46 -8 -96 -42 -108 -75 -5 -13 -12 -21 -15 -18 -3 3 1 19 9 35 20 41 9 55 -38 46 -33 -6 -37 -4 -33 12 2 12 11 18 23 17 63 -8 106 -9 110 -3 3 4 23 10 46 14 29 5 52 17 73 39 17 18 43 38 59 44 15 7 27 17 27 23 0 5 10 10 22 10 27 0 58 27 58 52 0 60 -74 135 -108 110 -9 -7 -43 -24 -74 -38 -31 -15 -64 -37 -72 -49 -9 -13 -29 -26 -45 -30 -16 -3 -37 -15 -47 -26 -21 -23 -33 -24 -71 -5 -35 18 -66 30 -75 28 -20 -4 -91 134 -107 208 -21 92 -35 125 -72 165 -41 44 -97 72 -125 61 -8 -3 -31 1 -51 9 -36 15 -165 15 -247 0 -20 -4 -42 -3 -49 3 -30 24 -57 24 -88 -2 -24 -20 -41 -26 -80 -26 -41 0 -51 -4 -65 -24 -8 -14 -30 -30 -48 -36 -18 -6 -53 -23 -78 -39 -65 -41 -71 -80 -68 -401 6 -560 4 -765 -7 -805 -12 -41 -62 -93 -118 -123 -17 -9 -58 -16 -95 -18 -36 -1 -89 -9 -119 -18 -30 -9 -65 -16 -77 -16 -26 0 -42 -18 -59 -67 -9 -27 -23 -43 -47 -55 -28 -13 -41 -30 -61 -80 -15 -35 -31 -82 -37 -104 -5 -23 -17 -48 -26 -55 -63 -52 -143 -74 -266 -72 -86 1 -101 4 -140 29 -70 43 -88 64 -88 101 0 23 9 42 29 64 51 53 61 188 19 248 -25 36 -89 81 -132 92 -23 6 -57 18 -76 27 -34 17 -35 19 -38 82 l-3 65 48 -47 c44 -43 135 -98 162 -98 30 0 75 -36 105 -83 55 -86 55 -87 -14 -217 -10 -19 -26 -57 -35 -85 l-17 -49 41 -38 40 -38 106 0 c59 0 115 5 125 10 12 7 21 26 26 56 4 30 12 48 23 51 25 7 97 142 104 196 4 30 16 60 31 78 13 15 26 33 28 39 2 6 28 15 58 20 30 4 75 15 99 24 24 10 67 16 100 15 59 -2 119 6 162 22 40 16 52 66 75 324 3 33 10 72 16 88 11 28 18 107 21 237 1 63 -3 84 -26 135 -27 58 -38 108 -56 273 -11 103 -1 146 39 167 15 8 37 29 48 47 26 41 44 56 105 88 27 14 54 32 62 40 8 8 24 25 35 38 16 17 28 22 48 18 15 -3 52 -8 83 -12 52 -5 58 -3 73 18 15 21 26 24 129 29 143 9 200 34 250 112 14 21 25 27 52 27 28 0 38 5 47 25 6 13 18 27 27 29 9 3 75 -5 148 -18 125 -22 132 -22 154 -5 22 16 25 16 49 0 55 -39 98 -29 118 28 11 32 -4 55 -43 63 -13 2 -19 11 -18 23 1 19 1 19 -11 3 -7 -10 -17 -18 -21 -18 -4 0 -13 -8 -20 -17 -11 -15 -15 -16 -30 -3 -10 8 -36 22 -59 30 -29 11 -42 22 -44 38 -4 25 10 29 28 7 7 -9 21 -13 31 -10 12 4 19 1 19 -6 0 -7 3 -9 7 -6 3 4 13 1 21 -5 22 -19 55 -21 48 -3 -3 9 4 21 19 31 14 9 25 23 25 30 0 8 7 17 15 20 10 4 13 14 9 29 -4 17 0 26 14 34 13 7 22 25 25 53 19 144 19 152 -1 188 -26 47 -48 50 -57 8 -7 -32 -8 -32 -17 -9 -11 32 6 51 48 51 50 0 82 16 86 42 2 15 11 24 26 26 12 2 22 10 22 18 0 8 6 14 13 14 21 0 67 46 67 67 0 11 3 23 8 27 4 4 8 12 8 17 1 5 2 13 3 17 0 5 18 26 38 47 34 35 37 36 50 19 7 -10 13 -23 13 -30z m-213 -1621 c-4 -3 -10 -3 -14 0 -3 4 0 7 7 7 7 0 10 -3 7 -7z m2050 -410 c-3 -10 -5 -4 -5 12 0 17 2 24 5 18 2 -7 2 -21 0 -30z m-310 0 c-4 -3 -7 0 -7 7 0 7 3 10 7 7 3 -4 3 -10 0 -14z m223 -97 c0 -2 -7 -9 -15 -16 -12 -10 -15 -10 -15 4 0 9 7 16 15 16 8 0 15 -2 15 -4z m-1610 -1011 c-14 -17 -40 -20 -40 -6 0 5 10 12 23 14 12 2 24 5 26 6 2 0 -2 -6 -9 -14z m717 -358 c2 -2 -26 -7 -63 -11 -69 -7 -81 -5 -69 14 6 10 121 7 132 -3z"/>
 </g>

</svg>