<!DOCTYPE svg PUBLIC "-//W3C//DTD SVG 20010904//EN" "http://www.w3.org/TR/2001/REC-SVG-20010904/DTD/svg10.dtd">
<svg version="1.0" xmlns="http://www.w3.org/2000/svg" width="77px" height="31px" viewBox="0 0 770 310" preserveAspectRatio="xMidYMid meet">
<g id="layer101" fill="#040504" stroke="none">
 <path d="M30 265 c-5 -14 -10 -32 -10 -39 0 -20 100 -74 211 -113 98 -35 111 -37 222 -36 l117 0 0 -28 c0 -16 5 -29 12 -29 20 0 158 91 174 115 18 27 10 72 -14 79 -10 3 -46 10 -81 16 -35 6 -88 21 -118 32 -30 11 -56 18 -58 16 -9 -9 -14 -54 -8 -64 5 -5 19 -18 33 -27 24 -17 23 -17 -45 -17 -96 0 -225 36 -407 115 -13 5 -20 1 -28 -20z"/>
 </g>

</svg>