<!DOCTYPE svg PUBLIC "-//W3C//DTD SVG 20010904//EN" "http://www.w3.org/TR/2001/REC-SVG-20010904/DTD/svg10.dtd">
<svg version="1.0" xmlns="http://www.w3.org/2000/svg" width="393px" height="624px" viewBox="0 0 3930 6240" preserveAspectRatio="xMidYMid meet">
<g id="layer101" fill="#f4d03e" stroke="none">
 <path d="M1445 6165 c-126 -15 -219 -36 -320 -72 -38 -14 -79 -27 -90 -30 -65 -19 -301 -159 -389 -231 -85 -71 -234 -235 -296 -328 -406 -608 -330 -1398 185 -1920 61 -61 128 -123 150 -137 22 -15 67 -46 100 -70 l60 -43 5 -1304 c4 -931 9 -1315 17 -1340 6 -19 16 -49 21 -67 15 -47 78 -164 108 -198 66 -77 86 -98 138 -140 133 -109 297 -165 481 -165 332 1 621 224 719 555 21 69 21 89 24 1372 l2 1303 58 36 c233 148 439 381 559 634 88 184 118 294 144 521 22 198 -24 489 -108 689 -113 266 -277 475 -511 652 -40 30 -85 62 -100 69 -15 8 -47 25 -72 40 -103 59 -263 118 -405 150 -50 11 -300 39 -340 37 -16 0 -80 -6 -140 -13z m338 -390 c478 -72 864 -455 942 -936 81 -504 -181 -993 -648 -1209 l-87 -40 -2 -1402 -3 -1403 -33 -67 c-73 -149 -244 -237 -403 -209 -124 22 -225 96 -286 212 l-28 54 -5 1400 -5 1400 -93 47 c-247 125 -418 292 -532 518 -98 194 -144 430 -121 621 33 268 119 463 290 658 149 170 409 315 631 351 41 6 82 13 90 15 44 8 207 3 293 -10z"/>
 <path d="M1530 5604 c-389 -31 -724 -307 -835 -686 -30 -103 -42 -279 -26 -391 33 -235 151 -440 346 -602 104 -87 253 -161 377 -189 l27 -6 3 -693 c3 -678 3 -693 24 -731 11 -22 37 -54 58 -70 34 -28 45 -31 106 -31 61 0 72 3 106 31 21 16 47 48 58 70 21 38 21 56 26 733 l5 693 68 18 c86 23 220 90 300 150 470 356 513 1035 91 1441 -132 126 -300 214 -474 248 -66 12 -197 20 -260 15z"/>
 <path d="M3065 3322 c-133 -44 -176 -202 -84 -306 56 -65 75 -67 446 -64 l331 3 39 31 c79 64 103 154 64 239 -22 48 -44 69 -94 90 -30 12 -90 15 -359 14 -178 -1 -332 -4 -343 -7z"/>
 <path d="M2875 2568 c-75 -27 -135 -106 -135 -179 1 -78 68 -163 149 -188 54 -16 775 -15 839 1 61 15 138 89 148 142 16 90 -21 168 -102 210 -37 20 -56 21 -454 23 -273 1 -425 -2 -445 -9z"/>
 <path d="M2854 1804 c-65 -32 -114 -107 -114 -174 0 -36 23 -90 55 -128 52 -62 65 -63 532 -60 l421 3 44 31 c78 57 107 149 73 231 -21 50 -42 72 -90 94 -37 17 -74 19 -465 19 -362 0 -430 -3 -456 -16z"/>
 <path d="M2834 1038 c-56 -38 -94 -103 -94 -160 0 -80 71 -166 156 -187 59 -15 785 -15 839 0 94 26 151 107 143 206 -5 62 -41 115 -104 150 -39 22 -43 23 -465 23 l-427 0 -48 -32z"/>
 </g>

</svg>