<!DOCTYPE svg PUBLIC "-//W3C//DTD SVG 20010904//EN" "http://www.w3.org/TR/2001/REC-SVG-20010904/DTD/svg10.dtd">
<svg version="1.0" xmlns="http://www.w3.org/2000/svg" width="238px" height="138px" viewBox="0 0 2380 1380" preserveAspectRatio="xMidYMid meet">
<g id="layer101" fill="#e67f22" stroke="none">
 <path d="M1181 1339 c-203 -34 -458 -170 -641 -342 -34 -32 -67 -56 -73 -54 -7 3 -93 66 -192 141 -190 144 -215 156 -255 116 -11 -11 -20 -29 -20 -40 0 -10 22 -121 49 -245 l50 -225 -50 -225 c-27 -124 -49 -235 -49 -245 0 -11 9 -29 20 -40 40 -40 65 -29 263 121 l187 142 72 -65 c164 -147 360 -260 543 -314 108 -32 311 -44 420 -25 164 29 318 93 482 203 180 121 374 335 390 430 7 48 -20 106 -94 199 -178 223 -471 405 -748 464 -77 16 -267 18 -354 4z m602 -589 c33 -37 35 -77 6 -114 -30 -38 -64 -49 -105 -36 -42 14 -64 44 -64 88 0 43 14 68 48 87 37 21 81 11 115 -25z"/>
 </g>

</svg>