<!DOCTYPE svg PUBLIC "-//W3C//DTD SVG 20010904//EN" "http://www.w3.org/TR/2001/REC-SVG-20010904/DTD/svg10.dtd">
<svg version="1.0" xmlns="http://www.w3.org/2000/svg" width="939px" height="1200px" viewBox="0 0 9390 12000" preserveAspectRatio="xMidYMid meet">
<g id="layer101" fill="#1d5477" stroke="none">
 <path d="M1923 11919 c-47 -23 -87 -75 -102 -134 -16 -61 -48 -331 -62 -514 -15 -216 -7 -537 19 -696 11 -66 34 -200 52 -298 17 -99 30 -186 28 -194 -3 -17 -86 161 -165 357 -100 247 -143 443 -183 835 -38 368 -46 399 -123 452 -35 25 -50 28 -117 28 -67 0 -82 -3 -117 -28 -22 -15 -49 -45 -61 -66 -30 -52 -29 -137 3 -434 54 -506 105 -710 269 -1085 37 -85 66 -156 63 -158 -6 -6 -110 131 -188 246 -35 52 -98 163 -140 247 -76 150 -128 296 -274 765 -62 201 -106 248 -227 248 -109 0 -194 -75 -204 -181 -6 -58 5 -103 123 -484 139 -451 294 -754 544 -1065 l80 -100 -30 -37 c-36 -46 -54 -111 -45 -159 8 -44 61 -115 199 -269 249 -278 329 -428 366 -692 l13 -92 -32 -41 c-46 -56 -79 -126 -104 -217 -20 -72 -21 -103 -22 -418 0 -280 3 -359 17 -445 105 -626 262 -1108 543 -1659 57 -113 101 -207 98 -210 -3 -3 -121 -6 -262 -6 -293 0 -310 -4 -367 -84 -27 -39 -30 -50 -30 -120 0 -67 4 -83 27 -118 17 -26 44 -49 75 -64 46 -22 59 -23 333 -27 157 -2 289 -8 295 -13 5 -6 4 -9 -3 -9 -39 0 -500 -94 -526 -107 -87 -43 -132 -180 -90 -269 23 -48 86 -99 140 -114 41 -12 68 -9 327 39 155 28 289 51 297 51 18 0 -27 -33 -276 -201 -105 -70 -205 -144 -222 -163 -68 -78 -68 -200 1 -275 56 -61 172 -79 250 -40 39 20 441 289 660 441 54 37 102 68 107 68 5 0 66 -55 136 -121 71 -67 167 -151 214 -186 47 -35 85 -68 85 -73 0 -4 -56 -47 -125 -96 -302 -211 -460 -343 -645 -535 -194 -201 -285 -370 -285 -528 0 -182 88 -310 335 -488 134 -97 195 -156 195 -191 -1 -81 -110 -303 -215 -434 -82 -104 -215 -193 -351 -235 -51 -16 -93 -18 -314 -17 -242 1 -300 6 -605 45 -51 6 -156 9 -240 7 -137 -4 -159 -8 -248 -38 -107 -36 -191 -85 -249 -146 -137 -144 -213 -437 -163 -628 52 -200 254 -419 505 -547 125 -64 237 -46 304 49 49 69 46 171 -7 238 -11 15 -66 56 -121 92 -58 37 -136 100 -182 146 -69 69 -83 88 -91 128 -18 82 21 208 76 247 69 49 218 53 546 16 273 -32 561 -42 705 -26 377 43 631 204 861 549 134 200 188 345 196 522 5 100 2 123 -16 179 -46 134 -131 232 -317 366 -206 147 -204 145 -168 222 21 46 60 91 183 213 206 205 416 368 745 578 l115 74 108 -31 c163 -46 230 -54 377 -48 98 4 147 10 194 26 163 56 256 114 366 231 78 83 124 152 181 268 21 45 42 82 45 82 3 0 42 -23 85 -51 114 -72 362 -191 486 -233 350 -119 669 -112 945 18 130 62 206 116 309 220 108 110 170 213 219 366 56 174 65 243 96 763 17 286 38 355 134 453 69 71 107 87 137 58 10 -11 63 -114 117 -229 126 -268 145 -305 200 -390 94 -147 198 -243 340 -314 106 -53 169 -65 342 -65 166 0 243 15 363 68 181 80 354 260 437 454 81 190 105 358 64 437 -58 111 -222 142 -314 59 -42 -38 -54 -66 -95 -213 -72 -262 -226 -391 -467 -391 -112 0 -170 24 -245 103 -74 77 -112 142 -224 382 -154 328 -232 436 -363 500 -126 62 -241 58 -391 -16 -168 -82 -311 -241 -375 -416 -45 -127 -67 -277 -85 -582 -22 -384 -39 -491 -100 -611 -64 -126 -194 -234 -345 -284 -103 -35 -262 -46 -374 -26 -193 34 -434 140 -658 289 l-137 92 4 62 c3 34 8 151 11 260 l6 197 378 0 377 0 40 29 c48 35 76 72 93 124 24 74 -14 175 -84 225 l-44 32 -179 1 c-98 1 -229 4 -291 8 l-114 6 149 44 c244 73 425 135 473 161 138 77 125 278 -23 354 -55 28 -60 29 -120 18 -34 -7 -199 -54 -367 -106 -168 -52 -306 -93 -308 -92 -1 2 84 72 190 157 307 243 345 277 369 326 57 119 -28 268 -160 281 -72 7 -131 -13 -198 -67 -174 -139 -394 -311 -415 -325 l-25 -16 -82 206 c-174 437 -399 864 -629 1192 -191 272 -418 535 -623 721 -289 262 -505 382 -665 369 l-54 -5 -43 56 c-107 136 -188 290 -221 419 -8 31 -33 179 -55 329 -22 149 -47 285 -55 301 -20 39 -77 87 -121 103 -31 12 -38 20 -50 64 -16 56 -67 326 -90 480 -23 154 -20 523 5 722 12 87 24 212 29 278 7 106 6 123 -10 150 -24 41 -78 92 -112 104 -46 18 -128 13 -174 -10z m172 -2321 c2 -13 13 -75 24 -138 47 -270 124 -461 275 -679 59 -86 64 -96 51 -114 -21 -30 -106 -98 -140 -112 -37 -16 -241 -30 -248 -18 -3 5 -15 56 -27 114 -52 257 -186 528 -350 712 -29 32 -50 60 -48 63 12 11 424 193 440 193 10 1 20 -8 23 -21z m880 -1126 c190 -119 489 -409 690 -667 206 -264 372 -531 539 -865 263 -525 437 -1088 486 -1573 17 -165 8 -596 -15 -697 -65 -292 -185 -465 -367 -526 -70 -23 -198 -21 -302 6 -362 92 -836 499 -1224 1050 -241 343 -497 842 -637 1245 -123 351 -206 696 -236 982 -15 143 -9 619 9 650 14 24 24 26 273 42 250 17 337 55 518 226 162 154 179 167 204 159 12 -4 40 -18 62 -32z"/>
 </g>

</svg>