<!DOCTYPE svg PUBLIC "-//W3C//DTD SVG 20010904//EN" "http://www.w3.org/TR/2001/REC-SVG-20010904/DTD/svg10.dtd">
<svg version="1.0" xmlns="http://www.w3.org/2000/svg" width="225px" height="225px" viewBox="0 0 2250 2250" preserveAspectRatio="xMidYMid meet">
<g id="layer101" fill="#cb4335" stroke="none">
 <path d="M656 2234 c-22 -21 -20 -47 8 -126 85 -241 344 -446 717 -569 153 -50 200 -57 219 -34 25 30 -2 47 -132 86 -266 80 -425 167 -569 309 -102 102 -162 197 -175 279 -6 40 -25 71 -44 71 -5 0 -16 -7 -24 -16z"/>
 <path d="M940 1965 c-58 -70 196 -229 587 -365 192 -67 247 -130 246 -282 0 -65 3 -80 17 -88 12 -6 23 -5 36 5 16 11 19 26 19 97 -1 100 -29 170 -94 234 -48 47 -87 66 -266 130 -230 82 -404 173 -475 247 -38 40 -51 45 -70 22z"/>
 <path d="M612 1568 c-9 -9 -12 -95 -12 -325 l0 -313 -297 -2 c-282 -3 -298 -4 -301 -22 -2 -10 2 -22 10 -27 7 -5 149 -9 316 -9 l303 0 130 -100 131 -100 -215 0 c-184 0 -216 -2 -228 -16 -9 -11 -10 -21 -3 -31 5 -9 174 -116 374 -239 l365 -224 188 0 188 0 66 -50 65 -49 -128 -3 -129 -3 0 -25 0 -25 165 -3 c91 -1 175 0 188 3 22 5 22 7 22 193 l0 187 -84 90 -84 90 300 3 c253 2 300 5 304 17 8 21 -293 573 -316 580 -17 6 -17 9 6 60 33 71 43 155 21 173 -28 23 -53 -1 -61 -56 -3 -27 -18 -73 -33 -102 -31 -62 -129 -169 -211 -231 -75 -57 -84 -67 -71 -90 12 -22 37 -24 63 -4 18 13 26 5 122 -135 57 -82 104 -151 104 -154 0 -3 -20 -6 -45 -6 l-44 0 -184 228 c-101 125 -187 233 -191 241 -7 11 7 13 80 10 l89 -4 3 29 c6 52 -8 96 -44 135 -64 71 -173 101 -370 101 -116 0 -142 -9 -128 -44 8 -21 25 -24 174 -30 72 -3 147 -11 177 -21 58 -17 108 -54 116 -85 5 -20 1 -20 -222 -20 l-227 0 -203 210 c-111 116 -208 210 -215 210 -7 0 -17 -5 -24 -12z m348 -631 c0 -141 -4 -237 -9 -235 -5 2 -72 50 -150 108 l-140 105 0 285 -1 285 150 -155 149 -155 1 -238z m498 -277 l71 -75 -215 -3 -215 -2 -45 36 -44 36 0 132 c0 72 3 174 6 226 l6 95 182 -185 c100 -102 214 -219 254 -260z m35 222 c100 -125 186 -233 191 -240 5 -9 -7 -12 -48 -12 l-55 0 -179 193 c-98 105 -198 213 -221 240 l-44 47 86 0 86 0 184 -228z m548 -11 c71 -129 129 -236 129 -238 0 -2 -17 -3 -37 -3 l-38 1 -132 221 c-125 210 -131 223 -116 241 10 10 27 17 41 15 21 -3 45 -39 153 -237z m-141 -27 c61 -102 114 -192 117 -200 4 -11 -5 -14 -35 -14 l-41 0 -110 159 c-61 88 -111 163 -111 167 0 7 60 74 67 74 1 0 52 -84 113 -186z m-709 -404 c123 -93 238 -180 254 -194 l30 -25 -136 -1 -137 0 -303 186 c-167 102 -308 190 -313 195 -6 5 65 9 186 9 l196 0 223 -170z m559 -213 l0 -138 -80 62 -80 62 0 156 0 156 80 -80 80 -80 0 -138z"/>
 <path d="M1197 1475 c-34 -33 -13 -52 75 -66 222 -35 350 -133 366 -279 5 -52 17 -70 43 -70 64 0 34 163 -48 260 -65 77 -223 150 -360 165 -48 6 -62 4 -76 -10z"/>
 </g>
<g id="layer102" fill="#adc1d9" stroke="none">
 <path d="M860 1927 c0 -2 15 -16 33 -33 l32 -29 -29 33 c-28 30 -36 37 -36 29z"/>
 <path d="M604 1245 c0 -176 2 -247 3 -157 2 90 2 234 0 320 -1 86 -3 13 -3 -163z"/>
 <path d="M750 1467 c0 -1 35 -36 78 -77 l77 -75 -75 78 c-69 71 -80 82 -80 74z"/>
 <path d="M1253 1353 c9 -2 25 -2 35 0 9 3 1 5 -18 5 -19 0 -27 -2 -17 -5z"/>
 <path d="M870 1265 c47 -47 87 -85 90 -85 2 0 -33 38 -80 85 -47 47 -87 85 -90 85 -2 0 33 -38 80 -85z"/>
 <path d="M963 1135 c0 -22 2 -30 4 -17 2 12 2 30 0 40 -3 9 -5 -1 -4 -23z"/>
 <path d="M1750 1095 c-24 -25 -42 -45 -39 -45 3 0 25 20 49 45 24 25 42 45 39 45 -3 0 -25 -20 -49 -45z"/>
 <path d="M1014 1106 c-3 -7 -4 -40 -2 -72 l3 -59 5 73 c5 72 4 84 -6 58z"/>
 <path d="M1390 1101 c0 -6 5 -13 12 -17 7 -4 8 -3 4 4 -4 7 12 12 51 15 l58 3 -62 2 c-35 1 -63 -2 -63 -7z"/>
 <path d="M1145 980 c66 -66 122 -120 125 -120 2 0 -49 54 -115 120 -66 66 -122 120 -125 120 -2 0 49 -54 115 -120z"/>
 <path d="M1170 1065 c19 -19 36 -35 39 -35 3 0 -10 16 -29 35 -19 19 -36 35 -39 35 -3 0 10 -16 29 -35z"/>
 <path d="M1270 957 c0 -2 15 -16 33 -33 l32 -29 -29 33 c-28 30 -36 37 -36 29z"/>
 <path d="M173 873 c87 -2 227 -2 310 0 84 1 13 3 -158 3 -171 0 -239 -2 -152 -3z"/>
 <path d="M1390 827 c0 -2 15 -16 33 -33 l32 -29 -29 33 c-28 30 -36 37 -36 29z"/>
 <path d="M1002 714 c-2 -52 1 -64 21 -80 22 -19 22 -19 5 1 -10 13 -18 43 -21 80 l-3 60 -2 -61z"/>
 <path d="M1470 645 c35 -36 67 -65 69 -65 3 0 -24 29 -59 65 -35 36 -67 65 -69 65 -3 0 24 -29 59 -65z"/>
 <path d="M1545 663 c37 -41 42 -43 97 -43 55 0 72 10 46 26 -7 4 -8 3 -4 -4 5 -9 -8 -12 -45 -12 -47 0 -58 4 -94 38 l-40 37 40 -42z"/>
 <path d="M568 663 c61 -2 163 -2 225 0 61 1 11 3 -113 3 -124 0 -174 -2 -112 -3z"/>
 <path d="M1937 628 c2 -5 24 -8 49 -8 24 0 44 3 44 8 0 4 -22 7 -49 7 -27 0 -47 -3 -44 -7z"/>
 <path d="M2135 630 l-40 -7 43 -2 c23 0 42 4 42 9 0 6 -1 9 -2 9 -2 -1 -21 -5 -43 -9z"/>
 <path d="M1163 573 c37 -2 97 -2 135 0 37 2 6 3 -68 3 -74 0 -105 -1 -67 -3z"/>
 <path d="M1675 520 c27 -27 51 -50 54 -50 3 0 -17 23 -44 50 -27 28 -51 50 -54 50 -3 0 17 -22 44 -50z"/>
 <path d="M1620 495 c19 -19 36 -35 39 -35 3 0 -10 16 -29 35 -19 19 -36 35 -39 35 -3 0 10 -16 29 -35z"/>
 <path d="M1248 213 c28 -2 76 -2 105 0 28 2 5 3 -53 3 -58 0 -81 -1 -52 -3z"/>
 <path d="M1448 163 c23 -2 59 -2 80 0 20 2 1 4 -43 4 -44 0 -61 -2 -37 -4z"/>
 <path d="M1439 7 c4 -4 86 -6 182 -5 l174 3 -182 5 c-100 3 -179 2 -174 -3z"/>
 </g>

</svg>