<!DOCTYPE svg PUBLIC "-//W3C//DTD SVG 20010904//EN" "http://www.w3.org/TR/2001/REC-SVG-20010904/DTD/svg10.dtd">
<svg version="1.0" xmlns="http://www.w3.org/2000/svg" width="269px" height="269px" viewBox="0 0 2690 2690" preserveAspectRatio="xMidYMid meet">
<g id="layer101" fill="#cb483a" stroke="none">
 <path d="M1185 2673 c-386 -50 -733 -266 -949 -591 -103 -154 -164 -305 -203 -498 -26 -133 -23 -366 6 -504 118 -553 545 -961 1104 -1055 111 -19 367 -14 469 9 183 40 330 102 481 202 462 308 687 884 555 1424 -127 520 -551 914 -1082 1005 -81 14 -301 19 -381 8z m349 -179 c563 -90 976 -576 976 -1149 0 -376 -177 -721 -482 -943 -320 -233 -756 -284 -1122 -132 -342 143 -591 432 -687 799 -26 99 -36 336 -19 452 34 237 154 473 325 644 267 266 641 388 1009 329z"/>
 <path d="M1500 1604 l0 -656 268 4 c247 4 272 6 330 27 125 45 214 131 247 238 27 87 18 220 -21 303 -49 104 -127 173 -249 220 -52 20 -83 24 -232 28 l-173 4 0 244 0 244 -85 0 -85 0 0 -656z m500 -9 c72 -26 113 -58 145 -116 25 -46 29 -64 29 -129 0 -87 -24 -143 -77 -184 -60 -46 -111 -57 -274 -63 l-153 -6 0 263 0 263 143 -6 c93 -3 158 -11 187 -22z"/>
 <path d="M728 1354 c-4 -3 -12 -7 -20 -8 -29 -5 -74 -36 -98 -68 -22 -29 -25 -43 -25 -113 0 -76 2 -83 33 -122 19 -25 28 -44 22 -48 -5 -3 -10 -16 -10 -29 0 -17 -10 -26 -50 -40 -27 -10 -50 -22 -50 -27 0 -5 -7 -9 -15 -9 -8 0 -15 -7 -15 -15 0 -8 -4 -15 -9 -15 -14 0 -41 -76 -41 -115 0 -19 11 -58 24 -88 20 -43 33 -57 73 -77 62 -32 132 -33 190 -3 l41 22 21 -49 c21 -49 65 -94 110 -112 33 -14 102 -16 119 -4 6 4 12 5 12 2 0 -4 16 4 36 17 41 28 98 102 90 116 -4 5 -2 12 4 16 14 8 13 58 -2 73 -9 9 -7 13 6 18 19 7 60 83 71 132 4 21 12 32 24 32 48 0 110 51 136 112 57 139 -55 287 -200 263 -22 -3 -46 -7 -52 -7 -7 -1 -13 -5 -13 -8 0 -4 -13 -13 -28 -19 -22 -9 -34 -9 -60 4 -17 9 -45 17 -62 17 -21 1 -30 6 -30 18 0 9 -9 26 -20 38 -12 12 -18 22 -14 22 18 0 -27 36 -71 56 -46 22 -114 32 -127 18z m262 -205 c3 -1 10 -3 15 -4 6 0 20 -5 32 -9 19 -6 21 -11 13 -32 -18 -46 -12 -134 11 -171 25 -40 93 -93 121 -93 24 0 23 -11 -6 -73 -25 -53 -81 -107 -133 -129 -42 -17 -163 -18 -196 -1 -23 11 -28 19 -23 36 16 57 18 80 7 120 -15 52 -64 106 -118 131 l-41 18 20 49 c12 27 25 49 30 49 4 0 13 11 18 25 5 14 16 25 25 25 8 0 15 4 15 8 0 11 90 53 100 47 5 -3 11 -2 13 2 4 7 83 8 97 2z"/>
 </g>

</svg>