<!DOCTYPE svg PUBLIC "-//W3C//DTD SVG 20010904//EN" "http://www.w3.org/TR/2001/REC-SVG-20010904/DTD/svg10.dtd">
<svg version="1.0" xmlns="http://www.w3.org/2000/svg" width="555px" height="235px" viewBox="0 0 5550 2350" preserveAspectRatio="xMidYMid meet">
<g id="layer101" fill="#839192" stroke="none">
 <path d="M3715 2305 c-22 -8 -41 -15 -42 -15 -1 0 -7 -9 -12 -19 -12 -22 21 -131 65 -212 39 -71 75 -99 128 -99 53 0 269 -28 320 -41 21 -6 40 -8 43 -5 15 15 -88 167 -167 247 -125 127 -243 177 -335 144z"/>
 <path d="M2478 2208 c-6 -13 -11 -45 -10 -73 1 -52 25 -182 36 -192 3 -4 54 -1 113 5 60 7 198 17 308 24 110 6 201 12 203 14 8 6 -29 62 -60 90 -71 67 -180 102 -417 134 -84 11 -155 20 -157 20 -2 0 -9 -10 -16 -22z"/>
 <path d="M122 2073 c-7 -3 -19 -18 -28 -34 -13 -27 -13 -35 6 -97 38 -124 112 -316 162 -423 l50 -106 -40 -59 c-151 -222 -269 -592 -206 -645 73 -60 424 87 858 359 l129 81 71 -48 c124 -83 221 -138 393 -224 412 -206 806 -331 1260 -398 178 -26 603 -37 790 -20 631 59 1199 275 1769 673 159 111 174 126 174 180 0 52 -23 78 -140 155 -291 193 -701 340 -1165 417 -844 142 -1822 76 -2966 -200 l-187 -45 -83 54 c-389 251 -757 416 -847 380z m4388 -359 c0 -3 -16 -39 -35 -79 -57 -117 -78 -218 -73 -344 6 -126 32 -217 83 -288 42 -58 49 -72 41 -80 -11 -12 -60 33 -89 81 -50 86 -70 161 -75 287 -3 94 -1 130 16 196 28 111 87 233 112 233 11 0 20 -3 20 -6z m525 -509 c53 -52 13 -130 -67 -130 -32 0 -45 6 -64 28 -13 16 -24 38 -24 50 1 68 105 103 155 52z"/>
 <path d="M1570 1933 c-69 -12 -241 -60 -378 -104 -167 -55 -161 -49 -109 -114 l25 -29 198 47 c110 26 253 58 318 71 66 12 122 28 124 35 2 6 -16 32 -41 56 -46 46 -63 51 -137 38z"/>
 <path d="M2097 578 c-6 -19 12 -76 44 -141 34 -67 69 -92 250 -183 194 -97 394 -164 589 -196 103 -16 328 -16 360 1 76 40 100 103 100 255 l0 101 -272 0 c-213 0 -298 4 -388 18 -162 25 -369 72 -526 118 -151 44 -151 44 -157 27z"/>
 </g>

</svg>