<!DOCTYPE svg PUBLIC "-//W3C//DTD SVG 20010904//EN" "http://www.w3.org/TR/2001/REC-SVG-20010904/DTD/svg10.dtd">
<svg version="1.0" xmlns="http://www.w3.org/2000/svg" width="502px" height="636px" viewBox="0 0 5020 6360" preserveAspectRatio="xMidYMid meet">
<g id="layer101" fill="#196f3e" stroke="none">
 <path d="M744 6330 c-99 -14 -203 -62 -290 -133 -10 -9 -34 -28 -52 -42 -85 -70 -87 -193 -4 -270 66 -62 153 -56 248 16 90 68 115 79 179 79 65 0 76 -5 170 -75 136 -103 212 -130 365 -130 141 0 237 31 340 111 109 84 130 94 194 94 67 0 90 -11 186 -86 172 -135 405 -162 595 -68 31 15 91 53 133 86 81 62 114 73 192 66 41 -4 63 -15 125 -62 42 -32 103 -71 135 -88 192 -98 436 -69 611 74 80 65 109 78 177 78 61 0 84 -11 186 -90 97 -74 216 -56 277 44 24 40 24 119 0 164 -19 37 -140 138 -212 177 -111 60 -293 76 -421 35 -60 -18 -179 -88 -234 -137 -48 -43 -101 -58 -173 -48 -37 5 -64 19 -127 67 -155 119 -290 159 -451 137 -118 -16 -172 -43 -337 -167 -46 -34 -54 -36 -120 -37 -68 0 -73 2 -134 45 -196 139 -250 161 -397 162 -150 1 -237 -30 -370 -131 -76 -58 -100 -71 -150 -78 -62 -8 -113 11 -196 75 -98 75 -183 112 -289 129 -47 7 -89 12 -95 12 -5 -1 -33 -5 -61 -9z"/>
 <path d="M1774 5676 c-27 -19 -86 -60 -131 -91 -85 -58 -79 -50 -174 -221 -93 -167 -374 -586 -500 -745 -16 -20 -29 -40 -29 -44 0 -3 -6 -12 -12 -19 -7 -7 -26 -31 -43 -52 -57 -73 -222 -279 -241 -300 -10 -12 -41 -48 -69 -80 -54 -64 -161 -179 -267 -288 -38 -38 -66 -71 -64 -73 4 -5 166 74 240 116 105 60 318 217 451 334 183 161 483 476 605 637 47 62 59 75 60 62 0 -7 -30 -103 -66 -215 -36 -111 -84 -256 -105 -322 -22 -66 -55 -166 -75 -221 l-35 -102 -57 -4 c-71 -6 -141 -37 -198 -90 -44 -41 -69 -85 -124 -223 -104 -260 -408 -885 -562 -1155 -73 -128 -93 -195 -85 -278 6 -54 59 -182 77 -182 41 0 -10 -97 -169 -315 -44 -60 -98 -135 -120 -166 -64 -88 -53 -148 27 -149 18 0 39 6 45 13 28 28 168 222 263 362 63 93 107 148 115 146 8 -2 42 -6 75 -9 134 -10 240 51 322 183 63 101 142 244 142 258 0 6 6 18 14 26 30 34 315 615 383 780 8 20 21 51 29 69 8 17 20 47 28 65 93 215 106 256 106 334 0 66 -5 87 -29 138 -16 33 -44 75 -61 93 -28 29 -31 37 -22 55 19 39 140 360 172 457 17 52 35 104 40 115 16 36 162 492 190 595 7 25 16 56 20 70 4 14 13 45 20 70 7 25 16 56 20 70 25 74 70 272 65 280 -17 27 -86 50 -153 50 -63 0 -74 -3 -118 -34z"/>
 <path d="M2879 5697 c-14 -7 -64 -41 -111 -76 l-85 -63 18 -82 c11 -44 22 -94 25 -111 3 -16 9 -46 14 -65 5 -19 19 -75 31 -125 34 -145 139 -528 179 -655 4 -14 13 -45 20 -70 7 -25 44 -141 83 -258 l70 -214 -36 -36 c-59 -62 -82 -116 -85 -208 -3 -54 1 -95 11 -125 25 -73 137 -382 149 -409 12 -28 20 -49 39 -100 12 -34 146 -354 173 -415 8 -16 26 -56 40 -88 14 -32 26 -60 26 -62 0 -3 47 -100 105 -217 92 -187 111 -219 157 -260 73 -67 140 -91 245 -86 l82 3 32 -60 c18 -33 70 -118 116 -188 45 -70 83 -131 83 -135 1 -9 83 -120 106 -144 23 -23 76 -23 97 0 29 32 21 73 -31 148 -50 73 -211 328 -255 403 l-26 44 35 42 c56 69 77 129 78 220 1 77 -1 85 -48 180 -209 423 -358 774 -511 1200 -32 88 -66 178 -77 199 -43 85 -156 157 -258 164 l-56 4 -24 87 c-13 47 -31 111 -40 141 -59 189 -190 681 -190 715 0 11 28 -27 63 -85 131 -220 328 -488 421 -573 62 -57 204 -123 336 -156 110 -28 313 -56 575 -81 238 -23 438 -60 496 -91 22 -11 29 -11 29 0 0 13 -117 86 -200 124 -41 19 -238 89 -436 155 -531 177 -541 182 -661 388 -134 230 -251 478 -344 729 -27 71 -56 136 -66 143 -10 7 -54 39 -98 71 -44 32 -94 66 -112 75 -37 19 -145 21 -184 3z"/>
 <path d="M925 5604 c-136 -125 -275 -238 -358 -295 -51 -34 -96 -66 -102 -72 -17 -16 153 0 237 22 42 12 111 34 154 51 43 16 79 28 81 27 4 -5 -146 -244 -204 -325 -96 -136 -173 -229 -248 -302 -42 -41 -72 -76 -66 -78 46 -15 295 107 448 221 148 110 364 330 496 505 59 78 104 142 100 143 -4 0 -44 0 -88 -1 -128 -2 -256 41 -346 116 -22 19 -44 34 -47 34 -4 0 -29 -21 -57 -46z"/>
 <path d="M2157 5508 c-8 -29 -24 -91 -37 -138 -12 -47 -26 -96 -30 -110 -4 -14 -13 -43 -19 -65 -6 -22 -28 -101 -51 -175 -39 -132 -40 -140 -50 -360 -9 -207 -22 -410 -34 -535 -17 -165 -28 -269 -36 -338 -5 -42 -14 -116 -20 -165 -68 -558 -226 -1293 -347 -1612 -64 -167 -140 -328 -170 -358 -7 -7 -13 -19 -13 -25 1 -27 200 209 200 237 0 3 14 29 32 58 32 55 110 208 148 292 54 120 172 445 210 576 7 25 19 64 26 86 58 184 163 632 204 867 6 31 15 83 20 115 78 437 130 1120 115 1488 -6 141 -10 174 -22 174 -7 0 -33 9 -55 20 -23 11 -45 20 -49 20 -4 0 -14 -24 -22 -52z"/>
 <path d="M3630 5513 c-36 -9 -87 -13 -147 -11 -51 2 -93 2 -93 0 0 -15 190 -323 215 -349 8 -7 22 -27 32 -44 34 -57 258 -263 364 -335 107 -73 257 -159 264 -152 2 2 -13 21 -33 43 -250 268 -409 508 -497 753 -21 56 -40 104 -44 106 -3 2 -31 -3 -61 -11z"/>
 <path d="M2526 5498 c-5 -15 -23 -209 -31 -318 -3 -41 -12 -158 -20 -260 -8 -102 -20 -293 -27 -425 -14 -266 -17 -1305 -5 -1511 l8 -131 -41 -18 c-96 -43 -172 -160 -178 -275 -6 -105 47 -684 97 -1045 44 -324 81 -526 108 -582 49 -105 147 -178 257 -192 41 -5 51 -10 53 -26 16 -110 127 -591 153 -659 20 -53 90 -55 124 -3 15 21 13 35 -24 178 -21 85 -55 231 -75 324 -19 94 -37 179 -40 191 -3 15 2 24 20 32 46 21 113 92 141 150 24 47 29 70 29 132 0 41 -5 107 -12 145 -63 362 -119 822 -154 1250 -7 98 -18 168 -31 203 -23 63 -92 141 -152 172 l-44 24 -7 294 c-10 392 2 889 36 1468 13 217 11 230 -52 439 -10 33 -27 103 -39 155 -72 322 -66 300 -80 300 -6 0 -12 -6 -14 -12z"/>
 </g>

</svg>