<!DOCTYPE svg PUBLIC "-//W3C//DTD SVG 20010904//EN" "http://www.w3.org/TR/2001/REC-SVG-20010904/DTD/svg10.dtd">
<svg version="1.0" xmlns="http://www.w3.org/2000/svg" width="522px" height="576px" viewBox="0 0 5220 5760" preserveAspectRatio="xMidYMid meet">
<g id="layer101" fill="#935115" stroke="none">
 <path d="M3104 5700 c-153 -31 -322 -169 -392 -323 -118 -255 -29 -564 206 -720 104 -70 176 -91 307 -92 61 0 145 3 188 8 80 8 180 -8 229 -35 58 -33 116 -84 149 -131 54 -77 73 -137 72 -238 0 -82 -2 -89 -49 -184 -46 -93 -59 -110 -215 -269 l-166 -169 -72 55 c-145 111 -322 186 -507 216 l-104 17 -1 95 c0 52 -2 106 -4 120 -1 14 -6 75 -9 135 -12 190 -25 288 -44 345 -22 65 -72 160 -84 160 -4 0 -8 4 -8 9 0 25 -134 137 -200 168 -307 142 -645 19 -787 -287 -39 -85 -48 -156 -44 -371 3 -139 -19 -208 -92 -295 -29 -33 -61 -65 -72 -71 -162 -88 -277 -96 -410 -30 -121 60 -182 148 -226 330 -7 27 -21 54 -33 62 -33 24 -83 19 -113 -11 -23 -23 -25 -31 -20 -87 7 -87 11 -101 58 -196 89 -181 274 -303 476 -315 168 -10 338 55 451 173 61 65 93 115 130 209 25 64 26 76 27 262 1 187 2 197 28 259 15 35 42 83 62 106 32 40 132 115 158 119 7 1 17 5 24 9 7 4 48 10 91 14 65 5 92 2 149 -15 38 -12 81 -30 94 -40 13 -10 31 -21 40 -25 27 -9 112 -132 132 -189 17 -50 35 -231 53 -533 l7 -111 -94 -13 c-185 -26 -406 -119 -543 -230 l-50 -40 -63 60 c-72 67 -104 75 -149 35 -21 -18 -28 -32 -28 -60 0 -31 9 -45 57 -94 l57 -57 -247 -247 -247 -248 -62 60 c-73 70 -100 76 -145 31 -48 -49 -34 -95 50 -168 l43 -36 -248 -248 -249 -249 -57 57 c-49 48 -63 57 -94 57 -28 0 -42 -7 -60 -28 -40 -45 -32 -77 35 -149 l59 -63 -20 -24 c-60 -75 -143 -217 -178 -305 -37 -95 -80 -272 -80 -329 l0 -26 -88 0 c-80 0 -91 -2 -110 -23 -31 -33 -29 -87 3 -117 21 -20 38 -24 109 -28 l83 -4 12 -82 c27 -181 112 -387 216 -524 l55 -72 -46 -47 c-85 -88 -91 -111 -48 -162 38 -45 71 -42 136 15 29 25 58 53 65 61 9 12 24 5 94 -47 143 -106 338 -186 516 -212 l81 -12 4 -82 c3 -71 6 -86 27 -108 33 -35 83 -35 116 -1 23 22 25 32 25 108 l0 85 67 7 c190 20 416 115 573 239 l45 35 50 -48 c80 -78 114 -88 161 -47 21 18 28 32 28 60 0 31 -9 45 -57 94 l-58 58 247 247 247 247 63 -60 c73 -70 100 -76 145 -31 43 43 38 71 -23 138 -28 32 -55 61 -60 64 -4 3 103 117 239 253 l247 247 57 -57 c47 -47 62 -56 94 -57 29 -1 43 5 61 27 40 45 32 77 -35 149 l-59 63 19 24 c129 163 215 355 247 557 l17 105 50 -4 c31 -3 84 -21 140 -47 50 -24 108 -51 130 -61 22 -10 75 -34 119 -55 140 -66 272 -81 408 -46 215 55 365 206 423 426 30 115 9 293 -48 399 -12 22 -25 43 -29 44 -5 2 -8 9 -8 16 0 25 -196 196 -225 196 -3 0 -44 19 -91 42 -112 54 -180 126 -217 227 -83 224 34 460 260 526 74 22 154 20 238 -5 38 -11 80 -20 92 -20 28 0 73 54 73 89 0 42 -24 67 -97 97 -62 25 -79 28 -193 28 -116 -1 -131 -3 -201 -31 -65 -26 -139 -69 -187 -108 -33 -27 -112 -136 -134 -185 -48 -105 -53 -130 -52 -255 0 -101 4 -129 23 -175 46 -111 68 -146 136 -217 60 -62 89 -82 200 -139 222 -113 295 -212 295 -399 0 -90 -16 -143 -66 -220 -76 -116 -191 -176 -344 -177 -62 0 -110 13 -205 57 -79 35 -169 77 -259 119 -86 40 -107 46 -166 46 l-67 0 -12 88 c-24 175 -110 380 -218 522 l-53 69 155 155 c240 241 317 360 334 521 27 245 -98 482 -310 587 -124 61 -198 70 -439 54 -104 -8 -121 -6 -179 13 -154 53 -257 184 -268 344 -10 141 42 263 148 347 46 36 141 80 175 80 19 0 77 29 86 44 17 26 8 87 -17 111 -26 27 -55 30 -131 15z"/>
 </g>
<g id="layer102" fill="#ebd1b9" stroke="none">
 <path d="M3158 5703 c12 -2 30 -2 40 0 9 3 -1 5 -23 4 -22 0 -30 -2 -17 -4z"/>
 <path d="M3065 5690 c-25 -11 1 -11 35 0 20 6 21 8 5 8 -11 0 -29 -3 -40 -8z"/>
 <path d="M2663 5195 c0 -22 2 -30 4 -17 2 12 2 30 0 40 -3 9 -5 -1 -4 -23z"/>
 <path d="M2831 5134 c1 -32 4 -70 9 -84 4 -14 5 11 2 55 -6 95 -12 113 -11 29z"/>
 <path d="M2870 4963 c0 -6 9 -21 21 -34 l20 -24 -17 30 c-24 39 -24 40 -24 28z"/>
 <path d="M2108 4923 c12 -2 30 -2 40 0 9 3 -1 5 -23 4 -22 0 -30 -2 -17 -4z"/>
 <path d="M1715 4738 l-40 -43 43 40 c39 36 47 45 39 45 -2 0 -21 -19 -42 -42z"/>
 <path d="M2825 4730 c21 -22 41 -40 44 -40 3 0 -13 18 -34 40 -21 22 -41 40 -44 40 -3 0 13 -18 34 -40z"/>
 <path d="M3428 4753 c12 -2 30 -2 40 0 9 3 -1 5 -23 4 -22 0 -30 -2 -17 -4z"/>
 <path d="M3208 4733 c17 -2 47 -2 65 0 17 2 3 4 -33 4 -36 0 -50 -2 -32 -4z"/>
 <path d="M3630 4728 c3 -3 21 -10 40 -17 19 -6 30 -7 25 -2 -6 5 -23 13 -40 17 -16 4 -28 5 -25 2z"/>
 <path d="M2450 4605 c40 -48 43 -51 32 -30 -6 11 -21 29 -34 40 -22 19 -22 19 2 -10z"/>
 <path d="M3278 4563 c12 -2 30 -2 40 0 9 3 -1 5 -23 4 -22 0 -30 -2 -17 -4z"/>
 <path d="M4980 4420 c34 -11 60 -11 35 0 -11 5 -29 8 -40 8 -16 0 -15 -2 5 -8z"/>
 <path d="M2723 4290 c0 -25 2 -35 4 -22 2 12 2 32 0 45 -2 12 -4 2 -4 -23z"/>
 <path d="M2553 4280 c0 -25 2 -35 4 -22 2 12 2 32 0 45 -2 12 -4 2 -4 -23z"/>
 <path d="M1743 4240 c0 -25 2 -35 4 -22 2 12 2 32 0 45 -2 12 -4 2 -4 -23z"/>
 <path d="M1573 4150 c0 -25 2 -35 4 -22 2 12 2 32 0 45 -2 12 -4 2 -4 -23z"/>
 <path d="M2563 4150 c0 -25 2 -35 4 -22 2 12 2 32 0 45 -2 12 -4 2 -4 -23z"/>
 <path d="M2732 4140 c0 -19 2 -27 5 -17 2 9 2 25 0 35 -3 9 -5 1 -5 -18z"/>
 <path d="M3832 4021 c-6 -17 -9 -31 -6 -31 7 0 25 52 20 57 -2 2 -8 -10 -14 -26z"/>
 <path d="M2572 4010 c0 -19 2 -27 5 -17 2 9 2 25 0 35 -3 9 -5 1 -5 -18z"/>
 <path d="M2743 3905 c0 -44 2 -61 4 -37 2 23 2 59 0 80 -2 20 -4 1 -4 -43z"/>
 <path d="M4283 3905 c0 -22 2 -30 4 -17 2 12 2 30 0 40 -3 9 -5 -1 -4 -23z"/>
 <path d="M1454 3888 l-29 -33 33 29 c30 28 37 36 29 36 -2 0 -16 -15 -33 -32z"/>
 <path d="M4453 3865 c0 -27 2 -38 4 -22 2 15 2 37 0 50 -2 12 -4 0 -4 -28z"/>
 <path d="M3940 3860 c-12 -16 -19 -30 -16 -30 2 0 14 14 26 30 12 17 19 30 16 30 -2 0 -14 -13 -26 -30z"/>
 <path d="M1502 3706 c-46 -33 -53 -43 -14 -20 19 10 38 25 44 32 15 17 8 14 -30 -12z"/>
 <path d="M2535 3659 c-173 -20 -361 -101 -503 -215 -42 -34 -370 -356 -728 -716 -681 -684 -705 -710 -779 -871 -145 -314 -112 -696 85 -987 271 -399 809 -547 1247 -345 163 75 185 95 894 804 372 372 694 701 716 731 153 211 220 456 193 701 -53 480 -413 844 -889 899 -97 11 -136 11 -236 -1z m314 -175 c148 -34 272 -100 385 -205 123 -114 204 -252 247 -414 29 -112 29 -299 0 -409 -29 -110 -90 -231 -160 -318 -32 -40 -288 -301 -568 -580 -452 -451 -512 -508 -539 -508 -48 0 -84 34 -84 78 0 35 25 61 528 567 535 537 582 589 630 708 133 330 -6 707 -318 861 -124 61 -214 80 -345 73 -164 -10 -289 -61 -418 -172 -117 -101 -1291 -1285 -1326 -1338 -137 -203 -158 -475 -54 -682 89 -175 224 -291 408 -352 112 -37 284 -39 395 -5 94 29 166 69 251 138 77 63 114 70 154 29 55 -54 19 -120 -115 -209 -340 -229 -770 -195 -1064 83 -280 266 -341 686 -149 1031 44 80 85 123 717 758 369 370 698 694 731 719 195 147 452 202 694 147z m-588 -963 c33 -34 37 -64 11 -106 -10 -16 -22 -58 -25 -93 -4 -35 -12 -73 -18 -85 -44 -83 -127 -137 -210 -137 -70 0 -90 -21 -100 -105 -16 -131 -93 -209 -219 -221 -38 -4 -76 -15 -92 -25 -60 -43 -128 -10 -128 62 0 33 6 46 33 70 35 33 110 59 167 59 50 0 68 23 76 95 9 78 26 116 69 160 44 43 82 60 160 69 72 8 95 27 95 75 1 109 63 208 133 210 10 1 32 -12 48 -28z m698 -15 c6 -7 14 -27 17 -44 5 -26 1 -36 -24 -62 -34 -33 -66 -38 -100 -14 -54 37 -47 114 12 139 32 14 75 5 95 -19z m-1284 -1276 c12 -12 19 -33 19 -55 0 -97 -138 -109 -159 -14 -17 77 82 125 140 69z"/>
 <path d="M4575 3570 c21 -22 41 -40 44 -40 3 0 -13 18 -34 40 -21 22 -41 40 -44 40 -3 0 13 -18 34 -40z"/>
 <path d="M1530 3193 l-235 -238 238 235 c130 129 237 236 237 237 0 8 -22 -14 -240 -234z"/>
 <path d="M4920 3355 c19 -19 36 -35 39 -35 3 0 -10 16 -29 35 -19 19 -36 35 -39 35 -3 0 10 -16 29 -35z"/>
 <path d="M4991 3284 c13 -17 26 -30 28 -27 3 2 -8 16 -24 31 l-28 27 24 -31z"/>
 <path d="M4820 3215 c19 -19 36 -35 39 -35 3 0 -10 16 -29 35 -19 19 -36 35 -39 35 -3 0 10 -16 29 -35z"/>
 <path d="M4943 2930 c0 -36 2 -50 4 -32 2 17 2 47 0 65 -2 17 -4 3 -4 -33z"/>
 <path d="M5112 2870 c0 -19 2 -27 5 -17 2 9 2 25 0 35 -3 9 -5 1 -5 -18z"/>
 <path d="M910 2573 l-245 -248 248 245 c136 135 247 246 247 247 0 8 -22 -15 -250 -244z"/>
 <path d="M3858 2743 c17 -2 47 -2 65 0 17 2 3 4 -33 4 -36 0 -50 -2 -32 -4z"/>
 <path d="M4945 2518 l-40 -43 43 40 c39 36 47 45 39 45 -2 0 -21 -19 -42 -42z"/>
 <path d="M4548 2523 c12 -2 30 -2 40 0 9 3 -1 5 -23 4 -22 0 -30 -2 -17 -4z"/>
 <path d="M3385 1728 l-40 -43 43 40 c23 21 42 40 42 42 0 8 -9 0 -45 -39z"/>
 <path d="M3225 1568 l-80 -83 83 80 c76 74 87 85 79 85 -1 0 -38 -37 -82 -82z"/>
 <path d="M3025 1368 l-80 -83 83 80 c76 74 87 85 79 85 -1 0 -38 -37 -82 -82z"/>
 <path d="M163 1353 c20 -2 54 -2 75 0 20 2 3 4 -38 4 -41 0 -58 -2 -37 -4z"/>
 <path d="M2779 1123 l-34 -38 38 34 c20 19 37 36 37 38 0 8 -8 0 -41 -34z"/>
 <path d="M2625 968 l-80 -83 83 80 c76 74 87 85 79 85 -1 0 -38 -37 -82 -82z"/>
 <path d="M2425 768 l-80 -83 83 80 c76 74 87 85 79 85 -1 0 -38 -37 -82 -82z"/>
 <path d="M1353 195 c0 -44 2 -61 4 -37 2 23 2 59 0 80 -2 20 -4 1 -4 -43z"/>
 </g>

</svg>