<!DOCTYPE svg PUBLIC "-//W3C//DTD SVG 20010904//EN" "http://www.w3.org/TR/2001/REC-SVG-20010904/DTD/svg10.dtd">
<svg version="1.0" xmlns="http://www.w3.org/2000/svg" width="490px" height="500px" viewBox="0 0 4900 5000" preserveAspectRatio="xMidYMid meet">
<g id="layer101" fill="#0b2e11" stroke="none">
<path d="M2240 4834 c-169 -20 -220 -28 -320 -50 -505 -110 -952 -386 -1240 -764 -424 -557 -631 -1199 -569 -1768 58 -537 302 -1016 739 -1452 217 -217 423 -371 640 -480 260 -131 479 -188 802 -211 1195 -85 2306 860 2489 2116 17 117 17 443 0 565 -59 427 -292 911 -622 1295 -190 221 -394 387 -612 496 -227 115 -484 195 -751 235 -96 14 -482 27 -556 18z"/>
</g>
<g id="layer102" fill="#4ca148" stroke="none">
<path d="M2240 4833 c-581 -58 -1086 -291 -1429 -659 -118 -126 -275 -346 -371 -516 -55 -100 -27 -63 44 56 181 303 436 572 711 748 355 227 762 348 1235 367 l185 8 -170 0 c-93 0 -186 -2 -205 -4z"/>
<path d="M2695 4818 c183 -20 455 -97 671 -188 309 -131 509 -264 729 -485 84 -84 89 -89 37 -28 -124 142 -297 292 -445 386 -179 114 -461 225 -716 282 -100 22 -267 45 -316 44 -24 -1 -7 -5 40 -11z"/>
<path d="M2685 4684 c-16 -2 -59 -9 -95 -15 -36 -5 -180 -11 -320 -13 -350 -5 -484 -30 -696 -130 -473 -225 -841 -585 -1064 -1041 -158 -323 -224 -613 -224 -980 0 -286 30 -480 115 -739 297 -904 1134 -1506 2096 -1506 219 0 481 50 704 135 191 73 437 217 637 372 229 178 364 346 505 628 150 301 218 502 264 780 25 154 25 514 -1 670 -105 640 -449 1169 -987 1518 -133 87 -363 196 -434 207 -76 11 -173 45 -200 69 -11 11 -33 25 -50 31 -31 12 -200 21 -250 14z m-478 -298 c35 -38 63 -118 63 -182 0 -54 -66 -186 -152 -306 -215 -296 -562 -643 -738 -737 -46 -25 -70 -31 -119 -31 -226 0 -248 174 -58 458 158 235 567 647 772 777 114 73 178 79 232 21z m1048 -586 c228 -137 663 -735 755 -1038 28 -93 26 -206 -6 -248 -36 -49 -72 -69 -119 -67 -76 3 -132 36 -235 141 -318 323 -690 900 -690 1070 0 48 34 114 77 153 34 29 40 31 98 27 49 -3 75 -11 120 -38z m-825 -362 c-1 -75 -2 -81 -15 -64 -24 31 -15 146 10 146 3 0 5 -37 5 -82z m-301 -230 c84 -40 151 -119 218 -258 114 -233 249 -607 318 -876 52 -199 47 -314 -15 -369 -18 -17 -36 -20 -104 -19 -97 1 -140 19 -210 91 -227 230 -453 926 -408 1258 22 170 89 227 201 173z m-1425 -20 c34 -48 10 -148 -34 -148 -26 0 -40 30 -40 85 0 25 5 55 10 66 14 26 45 24 64 -3z m2471 -698 c62 -24 28 -80 -49 -80 -52 0 -79 18 -74 50 4 35 69 50 123 30z m-2348 -134 c246 -115 836 -703 952 -950 40 -83 46 -132 24 -175 -27 -52 -80 -74 -186 -79 -86 -4 -91 -3 -160 32 -225 114 -625 506 -815 799 -57 87 -92 172 -92 220 0 43 53 133 93 157 45 28 119 26 184 -4z m3417 -312 c18 -18 22 -95 6 -125 -6 -10 -21 -19 -35 -19 -42 0 -59 104 -24 147 15 17 34 17 53 -3z m-439 -193 c96 -43 123 -136 68 -230 -129 -223 -589 -711 -854 -906 l-58 -42 -121 0 -122 0 -34 45 c-45 60 -49 79 -29 148 44 152 141 291 340 490 241 238 424 387 568 460 109 56 176 65 242 35z m-176 -973 c6 -17 11 -37 11 -44 0 -16 -70 -65 -82 -58 -15 9 -9 106 8 125 21 24 51 13 63 -23z"/>
<path d="M3121 3714 c-17 -14 -31 -34 -31 -45 0 -80 232 -470 460 -774 131 -174 204 -249 276 -282 73 -33 89 -25 89 43 -1 96 -142 336 -406 692 -230 310 -303 392 -347 392 -6 0 -24 -12 -41 -26z"/>
<path d="M1992 3028 c-28 -28 -1 -147 84 -381 31 -84 80 -221 110 -305 116 -324 195 -476 281 -540 45 -34 78 -37 110 -10 37 31 4 182 -106 483 -159 435 -242 596 -365 713 -55 52 -90 64 -114 40z"/>
<path d="M3578 1711 c-144 -97 -511 -455 -677 -661 -81 -101 -135 -196 -129 -227 6 -33 57 -27 123 12 235 142 764 635 839 782 18 36 21 95 6 124 -20 36 -79 25 -162 -30z"/>
<path d="M4555 3468 c203 -428 279 -954 195 -1357 -64 -306 -222 -680 -404 -956 -46 -69 -77 -120 -69 -113 8 6 55 72 104 146 207 309 347 673 400 1037 17 117 17 443 0 565 -17 125 -70 331 -115 449 -39 100 -151 341 -160 341 -2 0 19 -51 49 -112z"/>
<path d="M307 3395 c-24 -50 -20 -58 4 -12 11 22 19 41 17 43 -3 2 -12 -12 -21 -31z"/>
<path d="M251 3259 c-6 -18 -9 -34 -7 -36 2 -2 9 10 15 28 6 18 9 34 7 36 -2 2 -9 -10 -15 -28z"/>
<path d="M191 3078 c-76 -254 -108 -575 -80 -826 58 -537 302 -1016 739 -1452 412 -411 819 -622 1311 -680 52 -7 108 -10 124 -7 24 3 22 4 -12 6 -22 0 -92 10 -155 21 -454 78 -886 304 -1242 650 -411 399 -634 820 -723 1365 -13 83 -18 167 -18 340 0 249 14 377 61 554 13 52 23 96 21 98 -2 2 -14 -29 -26 -69z"/>
<path d="M4055 798 l-100 -103 103 100 c56 55 102 101 102 102 0 8 -12 -4 -105 -99z"/>
<path d="M2628 113 c12 -2 30 -2 40 0 9 3 -1 5 -23 4 -22 0 -30 -2 -17 -4z"/>
</g>
<g id="layer103" fill="#8cc78e" stroke="none">
<path d="M2318 4833 c28 -2 76 -2 105 0 28 2 5 3 -53 3 -58 0 -81 -1 -52 -3z"/>
<path d="M2507 4833 c18 -2 50 -2 70 0 21 2 7 4 -32 4 -38 0 -55 -2 -38 -4z"/>
<path d="M2077 4814 c-573 -89 -1083 -379 -1396 -794 -119 -157 -121 -173 -4 -24 69 88 247 267 336 339 215 173 500 317 791 401 108 31 334 77 426 87 25 3 21 4 -15 4 -27 1 -89 -5 -138 -13z"/>
<path d="M2905 4785 c194 -45 460 -142 647 -236 175 -88 336 -202 498 -353 53 -49 41 -35 -30 35 -212 210 -382 322 -663 435 -123 50 -266 93 -409 123 -133 28 -167 25 -43 -4z"/>
<path d="M2620 4672 c-142 -25 -168 -49 -191 -173 -30 -164 -21 -839 16 -1254 13 -144 13 -151 -6 -168 -15 -14 -19 -31 -19 -77 0 -103 34 -230 145 -545 136 -387 171 -624 106 -728 -26 -43 -58 -57 -129 -58 -103 -2 -138 -24 -113 -72 7 -14 10 -30 7 -35 -18 -30 -27 -136 -36 -417 -11 -375 -33 -540 -79 -596 -10 -13 -38 -28 -62 -33 -29 -7 -45 -17 -47 -29 -4 -22 25 -57 47 -57 9 0 36 -20 60 -44 72 -74 121 -89 291 -94 126 -3 161 0 270 22 484 98 1013 418 1279 774 148 197 315 563 386 841 133 528 74 1096 -164 1570 -136 273 -332 514 -593 732 -127 106 -227 170 -408 262 -97 49 -152 71 -195 77 -76 11 -173 45 -200 69 -32 31 -73 42 -175 46 -64 3 -126 -1 -190 -13z m582 -842 c96 -36 248 -173 373 -336 239 -312 309 -416 382 -570 48 -102 83 -224 83 -291 0 -105 -73 -195 -151 -188 -87 9 -120 27 -212 115 -280 266 -668 838 -716 1054 -13 58 -13 59 20 125 28 55 42 70 79 89 54 27 75 27 142 2z m-11 -1340 c11 -6 19 -21 19 -36 0 -50 -106 -69 -152 -27 -24 21 -23 39 4 57 25 18 100 21 129 6z m1069 -469 c17 -43 5 -97 -27 -118 -25 -16 -26 -16 -44 6 -13 16 -19 39 -19 72 0 88 59 114 90 40z m-451 -171 c21 -10 50 -33 65 -50 23 -28 26 -40 26 -109 0 -70 -3 -82 -35 -135 -59 -98 -165 -227 -260 -316 -49 -47 -155 -150 -235 -230 -152 -153 -244 -232 -354 -304 -65 -43 -66 -43 -123 -34 -37 6 -83 5 -132 -3 -73 -11 -75 -10 -93 13 -68 88 -12 264 157 493 119 162 362 402 538 533 191 142 348 192 446 142z m-185 -952 c29 -40 20 -75 -24 -104 -22 -15 -44 -24 -47 -20 -13 12 -8 113 6 130 19 23 47 20 65 -6z"/>
<path d="M3115 3700 l-28 -29 23 -60 c70 -188 414 -710 592 -896 71 -76 141 -118 185 -113 27 3 28 6 26 51 -3 100 -163 365 -463 766 -238 320 -271 348 -335 281z"/>
<path d="M3630 1698 c-201 -114 -537 -417 -755 -681 -95 -116 -129 -217 -73 -217 94 0 561 396 778 659 180 219 202 326 50 239z"/>
<path d="M2074 4245 c-164 -82 -655 -570 -799 -794 -146 -228 -20 -197 305 75 204 171 470 439 557 561 55 77 66 130 34 162 -27 27 -36 26 -97 -4z"/>
<path d="M364 3519 c-19 -39 -34 -73 -32 -75 2 -2 21 30 41 71 20 41 35 75 32 75 -3 0 -21 -32 -41 -71z"/>
<path d="M1992 3028 c-18 -18 -15 -63 13 -167 75 -280 378 -957 478 -1068 41 -46 87 -18 87 52 0 60 -39 204 -125 461 -135 403 -202 541 -325 667 -67 68 -100 83 -128 55z"/>
<path d="M113 2670 c0 -25 2 -35 4 -22 2 12 2 32 0 45 -2 12 -4 2 -4 -23z"/>
<path d="M4794 2510 c0 -74 1 -105 3 -67 2 37 2 97 0 135 -2 37 -3 6 -3 -68z"/>
<path d="M104 2455 c0 -82 2 -115 3 -72 2 43 2 110 0 150 -1 40 -3 5 -3 -78z"/>
<path d="M1179 2571 c-41 -42 -41 -98 2 -140 67 -67 169 -23 169 74 0 62 -33 95 -97 95 -36 0 -50 -6 -74 -29z"/>
<path d="M113 2245 c0 -22 2 -30 4 -17 2 12 2 30 0 40 -3 9 -5 -1 -4 -23z"/>
<path d="M701 2216 c-41 -49 115 -264 388 -537 239 -238 448 -399 517 -399 28 0 34 4 34 20 0 128 -551 721 -825 888 -65 40 -98 48 -114 28z"/>
<path d="M151 2011 c-1 -20 40 -173 45 -168 3 2 -7 44 -20 93 -14 49 -25 83 -25 75z"/>
<path d="M210 1795 c-1 -21 75 -203 130 -309 53 -105 183 -316 194 -316 3 0 -19 37 -48 83 -101 155 -178 308 -259 512 -9 22 -16 36 -17 30z"/>
<path d="M566 1123 c49 -66 151 -187 175 -208 12 -11 -6 14 -42 55 -36 41 -84 101 -108 133 -24 31 -46 57 -48 57 -3 0 7 -17 23 -37z"/>
<path d="M840 805 c47 -47 87 -85 90 -85 2 0 -33 38 -80 85 -47 47 -87 85 -90 85 -2 0 33 -38 80 -85z"/>
<path d="M985 670 c21 -22 41 -40 44 -40 3 0 -13 18 -34 40 -21 22 -41 40 -44 40 -3 0 13 -18 34 -40z"/>
<path d="M2213 113 c9 -2 25 -2 35 0 9 3 1 5 -18 5 -19 0 -27 -2 -17 -5z"/>
<path d="M2398 103 c29 -2 74 -2 100 0 26 2 2 3 -53 3 -55 0 -76 -1 -47 -3z"/>
</g>
<g id="layer104" fill="#fbfdfa" stroke="none">
<path d="M3083 4260 c-31 -13 -57 -57 -57 -97 0 -51 50 -98 105 -98 83 0 131 107 76 170 -24 29 -86 42 -124 25z"/>
</g>


</svg>