<!DOCTYPE svg PUBLIC "-//W3C//DTD SVG 20010904//EN" "http://www.w3.org/TR/2001/REC-SVG-20010904/DTD/svg10.dtd">
<svg version="1.0" xmlns="http://www.w3.org/2000/svg" width="233px" height="92px" viewBox="0 0 2330 920" preserveAspectRatio="xMidYMid meet">
<g id="layer101" fill="#000000" stroke="none">
</g>
<g id="layer102" fill="#52172b" stroke="none">
<path d="M1136 871 c-3 -5 -27 -9 -53 -9 -73 0 -163 -43 -163 -79 0 -9 16 -13 53 -14 28 0 75 -4 102 -7 28 -4 -62 -7 -200 -7 -155 0 -273 -5 -310 -13 -33 -6 -80 -14 -105 -17 -69 -9 -240 -70 -322 -116 -124 -70 -140 -95 -91 -140 142 -129 426 -259 628 -289 136 -20 125 -14 125 -70 0 -28 -1 -52 -2 -54 -2 -2 6 -13 16 -25 15 -17 31 -21 80 -21 34 0 88 7 121 16 33 8 65 16 72 16 6 1 53 22 105 48 65 32 100 56 116 80 12 18 22 37 22 41 0 15 -41 10 -128 -16 -46 -13 -87 -24 -90 -24 -4 1 -9 0 -12 -1 -3 -1 -39 -3 -80 -5 -41 -1 -61 -1 -45 2 99 13 208 38 312 69 140 42 146 44 246 95 42 21 90 39 105 39 15 0 32 4 38 10 5 5 54 18 109 29 l99 20 63 -64 c35 -35 63 -69 63 -75 0 -5 6 -10 14 -10 8 0 38 -20 67 -45 62 -53 165 -105 208 -105 26 0 31 4 31 24 0 13 -13 50 -29 82 -60 122 -82 177 -93 239 -16 83 -12 127 16 186 14 31 26 59 26 63 0 5 9 20 19 35 28 39 34 73 18 95 -11 14 -18 16 -33 8 -10 -6 -41 -17 -68 -24 -50 -13 -71 -32 -237 -209 -23 -24 -31 -27 -70 -23 -24 3 -64 11 -89 19 -25 7 -62 16 -82 19 -21 4 -38 10 -38 15 0 4 -16 26 -36 49 -30 35 -42 42 -72 42 -57 0 -109 -18 -115 -39 -4 -18 -8 -18 -44 -6 -42 15 -141 28 -237 33 -35 2 -35 2 -20 30 16 30 19 98 5 107 -5 3 -12 1 -15 -4z m407 -187 c20 -3 37 -11 37 -16 0 -6 -10 -8 -22 -4 -13 3 -42 9 -65 12 -24 4 -43 11 -43 16 0 5 12 7 28 4 15 -3 44 -8 65 -12z m-625 -531 c-10 -2 -26 -2 -35 0 -10 3 -2 5 17 5 19 0 27 -2 18 -5z"/>
</g>
<g id="layer103" fill="#931a1d" stroke="none">
<path d="M2205 808 c-45 -16 -95 -56 -154 -123 -111 -126 -113 -127 -276 -100 -74 12 -93 19 -108 39 -60 82 -56 87 -57 -77 l0 -147 28 6 c15 4 37 13 49 20 12 8 55 19 94 24 40 6 82 13 95 16 20 5 41 -10 132 -100 104 -103 171 -154 241 -183 18 -8 36 -12 39 -9 3 3 -7 28 -21 54 -15 27 -43 91 -63 143 -31 79 -37 106 -38 174 0 76 2 85 46 172 53 106 53 112 -7 91z"/>
</g>
<g id="layer104" fill="#6c7879" stroke="none">
<path d="M640 899 c-14 -6 -36 -20 -49 -32 -23 -21 -81 -105 -81 -117 0 -6 159 14 163 21 12 18 47 98 47 107 0 11 -32 33 -47 31 -4 0 -19 -5 -33 -10z"/>
<path d="M1136 871 c-3 -5 -27 -9 -53 -9 -73 0 -163 -43 -163 -79 0 -9 16 -13 53 -14 28 0 75 -4 102 -7 28 -4 -62 -7 -200 -7 -155 0 -273 -5 -310 -13 -33 -6 -80 -14 -105 -17 -69 -9 -240 -70 -322 -116 -124 -70 -140 -95 -91 -140 142 -129 426 -259 628 -289 136 -20 125 -14 125 -70 0 -28 -1 -52 -2 -54 -2 -2 6 -13 16 -25 15 -17 31 -21 80 -21 34 0 88 7 121 15 33 9 67 17 77 19 9 3 55 24 103 47 80 39 112 67 128 112 9 24 -19 22 -121 -8 -46 -13 -87 -24 -90 -24 -4 1 -9 0 -12 -1 -3 -1 -39 -3 -80 -5 -41 -1 -61 -1 -45 2 160 22 371 80 500 136 117 51 110 39 107 209 l-3 147 -57 11 c-31 7 -73 18 -92 26 -32 13 -112 30 -152 33 -10 0 -31 2 -48 4 -16 2 -45 4 -64 5 -35 2 -35 2 -20 30 16 30 19 98 5 107 -5 3 -12 1 -15 -4z m-218 -718 c-10 -2 -26 -2 -35 0 -10 3 -2 5 17 5 19 0 27 -2 18 -5z"/>
<path d="M2255 862 c-11 -10 -96 -37 -107 -34 -5 1 -8 -2 -8 -8 0 -5 -4 -10 -10 -10 -11 0 -78 -67 -152 -153 -48 -54 -53 -57 -87 -52 -98 14 -117 18 -126 25 -5 4 -30 10 -55 14 -42 5 -43 5 -20 -8 33 -18 207 -49 235 -42 12 3 40 27 61 53 102 125 194 193 260 193 43 0 46 -7 24 -51 -11 -21 -20 -42 -20 -46 0 -7 34 37 36 47 0 3 4 13 9 24 5 11 3 21 -4 26 -7 4 -12 11 -11 16 2 12 -14 16 -25 6z"/>
<path d="M2168 788 c-48 -28 -50 -54 -5 -61 17 -2 37 -2 44 0 10 4 43 62 43 77 0 13 -47 4 -82 -16z"/>
<path d="M1483 739 c-40 -12 -43 -35 -5 -43 97 -19 102 -19 102 2 0 11 3 27 6 36 5 13 -1 16 -32 15 -22 0 -54 -5 -71 -10z"/>
<path d="M2215 680 c-41 -81 -43 -148 -7 -257 17 -51 49 -128 72 -172 50 -101 51 -115 8 -106 -85 19 -168 76 -310 214 l-88 84 -72 -12 c-88 -16 -103 -20 -95 -27 3 -3 40 1 83 10 73 15 78 15 98 -1 12 -10 25 -24 29 -31 5 -7 24 -27 43 -44 19 -17 34 -38 34 -45 0 -8 4 -12 9 -8 5 3 34 -16 64 -42 64 -56 145 -99 205 -109 38 -6 42 -5 42 14 0 11 -18 59 -40 107 -61 130 -80 182 -80 220 0 19 -5 37 -11 41 -12 7 -4 101 11 119 4 5 9 15 9 20 2 21 13 45 20 45 4 0 8 7 8 15 0 24 -5 18 -32 -35z"/>
<path d="M1670 582 c0 -11 22 -21 53 -23 12 -1 5 -5 -16 -8 -56 -9 -46 -25 20 -32 l58 -6 -57 -1 c-94 -3 -80 -22 16 -22 l86 0 0 39 c0 45 -2 46 -97 56 -40 4 -63 3 -63 -3z"/>
<path d="M1713 473 c-59 -6 -54 -23 6 -23 60 0 111 10 111 21 0 9 -33 9 -117 2z"/>
<path d="M2182 297 c-30 -32 -28 -52 11 -81 37 -29 87 -44 87 -27 0 18 -59 131 -68 131 -5 0 -18 -10 -30 -23z"/>
</g>
<g id="layer105" fill="#ffffff" stroke="none">
<path d="M2230 850 c-22 -7 -21 -8 12 -9 20 -1 40 4 43 9 7 12 -19 12 -55 0z"/>
<path d="M2195 796 c-16 -8 -39 -21 -50 -30 -17 -13 -18 -17 -5 -26 8 -5 27 -10 42 -10 22 0 32 8 48 40 22 44 16 49 -35 26z"/>
<path d="M2075 761 c-22 -21 -53 -54 -70 -72 -16 -19 3 -3 43 36 39 38 72 71 72 72 0 6 -7 1 -45 -36z"/>
<path d="M403 660 c3 -14 13 -50 22 -80 18 -63 14 -112 -16 -179 -20 -47 -19 -62 5 -42 22 18 46 98 46 151 0 58 -25 143 -47 161 -14 13 -16 11 -10 -11z"/>
<path d="M200 638 c-53 -26 -60 -33 -44 -39 10 -4 28 -8 39 -8 11 -1 49 -15 83 -31 35 -17 66 -30 68 -30 3 0 -71 126 -81 138 -1 1 -30 -12 -65 -30z"/>
<path d="M1700 571 c24 -9 127 -15 119 -7 -2 2 -35 6 -74 9 -44 4 -61 3 -45 -2z"/>
<path d="M1672 535 c10 -10 148 -14 148 -4 0 5 -34 9 -77 9 -42 0 -74 -2 -71 -5z"/>
<path d="M1720 500 l-55 -7 60 -1 c33 0 69 3 80 8 18 8 18 9 -5 8 -14 -1 -50 -4 -80 -8z"/>
<path d="M2191 498 c1 -7 5 -24 9 -38 8 -24 8 -24 9 7 1 17 -3 35 -9 38 -5 3 -10 0 -9 -7z"/>
<path d="M193 464 c-8 -21 9 -48 32 -53 26 -5 47 26 34 50 -12 23 -57 25 -66 3z"/>
<path d="M1465 312 c-33 -16 -77 -34 -98 -41 -21 -7 -36 -15 -34 -18 5 -5 150 50 187 72 43 25 8 16 -55 -13z"/>
<path d="M2186 301 c-32 -35 -21 -65 35 -95 28 -16 53 -26 55 -23 6 6 -52 123 -64 131 -5 3 -17 -3 -26 -13z"/>
<path d="M2030 296 c0 -7 62 -64 94 -85 25 -17 17 -9 -46 49 -27 23 -48 40 -48 36z"/>
<path d="M1302 196 c1 -13 6 -22 10 -20 11 7 10 32 -2 39 -6 3 -9 -4 -8 -19z"/>
<path d="M1263 139 c-35 -22 -46 -37 -15 -20 22 13 58 40 52 41 -3 0 -20 -10 -37 -21z"/>
</g>


</svg>