<!DOCTYPE svg PUBLIC "-//W3C//DTD SVG 20010904//EN" "http://www.w3.org/TR/2001/REC-SVG-20010904/DTD/svg10.dtd">
<svg version="1.0" xmlns="http://www.w3.org/2000/svg" width="360px" height="716px" viewBox="0 0 3600 7160" preserveAspectRatio="xMidYMid meet">
<g id="layer101" fill="#4d1934" stroke="none">
<path d="M817 6958 c-125 -111 -259 -295 -337 -461 -89 -191 -135 -391 -139 -607 -8 -395 144 -769 432 -1066 33 -34 57 -67 53 -72 -8 -13 11 -64 27 -74 7 -5 24 -6 38 -3 16 4 30 0 38 -8 9 -12 4 -20 -26 -43 -21 -16 -51 -40 -68 -55 -111 -98 -204 -172 -229 -181 -31 -12 -60 -66 -49 -95 19 -54 9 -53 375 -53 262 0 339 -3 342 -12 25 -87 36 -132 42 -178 3 -30 13 -73 22 -94 14 -36 14 -40 -1 -51 -10 -7 -17 -18 -17 -24 0 -7 -11 -24 -25 -39 -14 -15 -25 -32 -25 -39 0 -6 -3 -13 -8 -15 -4 -1 -25 -28 -47 -58 -22 -30 -43 -56 -47 -58 -5 -2 -8 -9 -8 -15 0 -7 -15 -28 -33 -47 -17 -19 -50 -57 -72 -85 -21 -27 -46 -57 -55 -65 -8 -8 -45 -48 -80 -89 -36 -41 -152 -162 -257 -270 -106 -107 -193 -198 -193 -202 0 -4 -20 -29 -45 -55 -25 -27 -45 -53 -45 -57 0 -5 -16 -28 -35 -51 -19 -24 -35 -48 -35 -55 0 -6 -3 -11 -7 -11 -5 0 -13 -10 -19 -23 -6 -12 -22 -44 -36 -72 -50 -98 -98 -226 -98 -262 0 -12 -4 -24 -9 -27 -5 -3 -11 -23 -14 -43 -2 -21 -9 -63 -15 -93 -42 -216 -42 -474 0 -660 5 -25 12 -64 15 -87 3 -24 9 -43 14 -43 5 0 9 -14 9 -30 0 -17 4 -38 9 -48 5 -9 17 -43 27 -74 10 -32 22 -58 26 -58 4 0 8 -8 8 -18 0 -17 66 -160 80 -172 3 -3 12 -18 20 -35 24 -49 151 -227 189 -267 20 -20 47 -49 61 -65 35 -38 176 -165 197 -177 10 -5 29 -20 43 -33 14 -13 30 -23 37 -23 7 0 13 -4 13 -10 0 -5 7 -10 15 -10 8 0 15 -4 15 -10 0 -5 9 -10 20 -10 11 0 20 -4 20 -8 0 -4 26 -21 57 -37 32 -17 60 -33 61 -37 2 -5 9 -8 15 -8 7 0 35 -11 62 -25 28 -13 58 -25 67 -25 9 0 20 -4 23 -10 3 -5 16 -10 29 -10 12 0 26 -4 31 -9 15 -13 110 -41 140 -41 14 0 33 -4 43 -9 26 -14 211 -30 349 -31 126 -1 311 14 373 29 19 5 67 17 105 26 39 9 72 21 73 26 2 5 15 9 28 9 13 0 32 4 42 9 9 5 28 13 42 18 57 23 221 107 231 120 6 7 15 13 20 13 5 0 28 12 52 28 41 26 56 38 99 75 12 9 25 17 29 17 13 0 255 246 275 279 10 17 22 31 26 31 4 0 8 5 8 10 0 6 11 23 25 38 14 15 25 32 25 39 0 7 5 13 10 13 6 0 10 5 10 11 0 6 8 23 19 37 31 46 71 122 71 137 0 8 4 15 9 15 4 0 16 21 26 48 10 26 22 51 26 57 5 5 9 19 9 30 0 12 3 25 6 28 11 10 43 110 44 132 0 12 4 25 9 30 5 6 12 30 15 55 4 25 12 83 18 130 21 144 11 589 -13 615 -5 5 -9 28 -9 51 0 24 -4 46 -10 49 -5 3 -10 16 -10 28 0 22 -18 79 -57 177 -25 63 -97 195 -119 221 -8 8 -14 21 -14 27 0 7 -4 12 -8 12 -4 0 -15 12 -24 28 -9 15 -30 42 -47 60 -17 17 -31 34 -31 37 0 12 -40 55 -325 348 -99 101 -198 206 -220 232 -22 26 -52 60 -67 76 -16 16 -28 32 -28 37 0 4 -16 25 -35 45 -19 20 -35 39 -35 42 0 7 -15 25 -47 60 -13 13 -23 27 -23 31 0 3 -16 28 -35 54 -19 26 -35 51 -35 54 0 4 -12 19 -26 34 -21 22 -24 33 -19 62 3 19 10 60 15 90 9 55 26 116 50 178 l12 33 282 -1 c435 -2 413 -3 436 20 11 11 20 33 20 51 0 40 -36 91 -61 87 -13 -2 -53 34 -134 122 -103 111 -113 126 -100 140 18 19 20 76 4 86 -7 4 18 36 63 83 98 101 144 159 208 261 361 576 275 1328 -210 1822 l-96 98 -955 0 -954 0 -58 -52z m-137 -1452 c223 -114 467 -132 654 -46 140 63 232 83 391 82 146 0 269 -21 407 -68 186 -64 193 -66 385 -71 147 -5 200 -2 280 12 102 18 203 51 262 86 18 11 36 18 38 15 8 -8 -58 -189 -104 -284 -67 -139 -156 -266 -258 -366 l-90 -90 -375 3 c-206 1 -576 3 -822 4 l-448 2 -109 112 c-163 167 -263 309 -317 446 -26 66 -41 170 -30 212 l7 26 32 -21 c18 -11 61 -36 97 -54z m498 -851 c2 -2 10 -33 17 -70 8 -37 24 -92 35 -122 11 -30 18 -58 16 -61 -2 -4 -95 -9 -206 -10 l-201 -4 102 124 c134 162 130 159 187 151 26 -3 48 -7 50 -8z m982 -1 c123 -9 117 -5 113 -71 -2 -32 -6 -86 -9 -120 l-6 -63 -432 0 -432 0 -27 108 c-38 151 -38 150 26 155 66 6 667 -1 767 -9z m588 -125 l111 -116 -227 -6 c-125 -3 -229 -4 -231 -2 -6 7 19 219 27 227 11 11 142 24 178 18 24 -4 58 -33 142 -121z m-537 -307 c-6 -10 -15 -59 -21 -108 -7 -49 -17 -114 -24 -144 l-12 -55 -335 -3 -335 -2 -11 57 c-24 118 -32 179 -31 226 l1 47 389 0 c374 0 388 -1 379 -18z"/>
</g>
<g id="layer102" fill="#942122" stroke="none">
<path d="M817 6958 c-125 -111 -259 -295 -337 -461 -89 -191 -135 -391 -139 -607 -8 -395 144 -769 432 -1066 33 -34 57 -67 53 -72 -8 -13 11 -64 27 -74 7 -5 24 -6 38 -3 16 4 30 0 38 -8 9 -12 4 -20 -26 -43 -21 -16 -51 -40 -68 -55 -111 -98 -204 -172 -229 -181 -31 -12 -60 -66 -49 -95 19 -54 9 -53 375 -53 262 0 339 -3 342 -12 25 -87 36 -132 42 -178 3 -30 13 -73 22 -94 14 -36 14 -40 -1 -51 -10 -7 -17 -18 -17 -24 0 -7 -11 -24 -25 -39 -14 -15 -25 -32 -25 -39 0 -6 -3 -13 -8 -15 -4 -1 -25 -28 -47 -58 -22 -30 -43 -56 -47 -58 -5 -2 -8 -9 -8 -15 0 -7 -15 -28 -33 -47 -17 -19 -50 -57 -72 -85 -21 -27 -46 -57 -55 -65 -8 -8 -45 -48 -80 -89 -36 -41 -152 -162 -257 -270 -106 -107 -193 -198 -193 -202 0 -4 -20 -29 -45 -55 -25 -27 -45 -53 -45 -57 0 -5 -16 -28 -35 -51 -19 -24 -35 -48 -35 -55 0 -6 -3 -11 -7 -11 -5 0 -13 -10 -19 -23 -6 -12 -22 -44 -36 -72 -50 -98 -98 -226 -98 -262 0 -12 -4 -24 -9 -27 -5 -3 -11 -23 -14 -43 -2 -21 -9 -63 -15 -93 -42 -216 -42 -474 0 -660 5 -25 12 -64 15 -87 3 -24 9 -43 14 -43 5 0 9 -14 9 -30 0 -17 4 -38 9 -48 5 -9 17 -43 27 -74 10 -32 22 -58 26 -58 4 0 8 -8 8 -18 0 -17 66 -160 80 -172 3 -3 12 -18 20 -35 24 -49 151 -227 189 -267 20 -20 47 -49 61 -65 35 -38 176 -165 197 -177 10 -5 29 -20 43 -33 14 -13 30 -23 37 -23 7 0 13 -4 13 -10 0 -5 7 -10 15 -10 8 0 15 -4 15 -10 0 -5 9 -10 20 -10 11 0 20 -4 20 -8 0 -4 26 -21 57 -37 32 -17 60 -33 61 -37 2 -5 9 -8 15 -8 7 0 35 -11 62 -25 28 -13 58 -25 67 -25 9 0 20 -4 23 -10 3 -5 16 -10 29 -10 12 0 26 -4 31 -9 15 -13 110 -41 140 -41 14 0 33 -4 43 -9 26 -14 211 -30 349 -31 126 -1 311 14 373 29 19 5 67 17 105 26 39 9 72 21 73 26 2 5 15 9 28 9 13 0 32 4 42 9 9 5 28 13 42 18 57 23 221 107 231 120 6 7 15 13 20 13 5 0 28 12 52 28 41 26 56 38 99 75 12 9 25 17 29 17 13 0 255 246 275 279 10 17 22 31 26 31 4 0 8 5 8 10 0 6 11 23 25 38 14 15 25 32 25 39 0 7 5 13 10 13 6 0 10 5 10 11 0 6 8 23 19 37 31 46 71 122 71 137 0 8 4 15 9 15 4 0 16 21 26 48 10 26 22 51 26 57 5 5 9 19 9 30 0 12 3 25 6 28 11 10 43 110 44 132 0 12 4 25 9 30 5 6 12 30 15 55 4 25 12 83 18 130 21 144 11 589 -13 615 -5 5 -9 28 -9 51 0 24 -4 46 -10 49 -5 3 -10 16 -10 28 0 22 -18 79 -57 177 -25 63 -97 195 -119 221 -8 8 -14 21 -14 27 0 7 -4 12 -8 12 -4 0 -15 12 -24 28 -9 15 -30 42 -47 60 -17 17 -31 34 -31 37 0 12 -40 55 -325 348 -99 101 -198 206 -220 232 -22 26 -52 60 -67 76 -16 16 -28 32 -28 37 0 4 -16 25 -35 45 -19 20 -35 39 -35 42 0 7 -15 25 -47 60 -13 13 -23 27 -23 31 0 3 -16 28 -35 54 -19 26 -35 51 -35 54 0 4 -12 19 -26 34 -21 22 -24 33 -19 62 3 19 10 60 15 90 9 55 26 116 50 178 l12 33 282 -1 c435 -2 413 -3 436 20 11 11 20 33 20 51 0 40 -36 91 -61 87 -13 -2 -53 34 -134 122 -103 111 -113 126 -100 140 18 19 20 76 4 86 -7 4 18 36 63 83 98 101 144 159 208 261 309 493 292 1145 -43 1623 -73 104 -186 229 -199 221 -6 -4 -8 -2 -4 4 3 6 -11 24 -31 41 l-38 31 -950 0 -950 0 -58 -52z m2176 -395 c3 -5 -3 -24 -13 -43 -90 -175 -101 -219 -77 -316 10 -38 42 -123 72 -189 30 -66 55 -126 55 -132 0 -18 -21 -16 -78 5 -71 27 -126 68 -246 183 l-107 102 -67 -12 c-88 -17 -145 -32 -156 -43 -6 -4 -27 -8 -48 -8 l-38 0 0 174 c0 173 0 174 21 169 12 -3 30 -21 41 -40 11 -18 30 -39 41 -45 21 -11 197 -48 230 -48 10 0 39 24 65 53 90 101 154 159 195 178 43 19 102 25 110 12z m-2313 -1057 c223 -114 467 -132 654 -46 140 63 232 83 391 82 146 0 269 -21 407 -68 186 -64 193 -66 385 -71 147 -5 200 -2 280 12 102 18 203 51 262 86 18 11 36 18 38 15 8 -8 -58 -189 -104 -284 -67 -139 -156 -266 -258 -366 l-90 -90 -375 3 c-206 1 -576 3 -822 4 l-448 2 -109 112 c-163 167 -263 309 -317 446 -26 66 -41 170 -30 212 l7 26 32 -21 c18 -11 61 -36 97 -54z m498 -851 c2 -2 10 -33 17 -70 8 -37 24 -92 35 -122 11 -30 18 -58 16 -61 -2 -4 -95 -9 -206 -10 l-201 -4 102 124 c134 162 130 159 187 151 26 -3 48 -7 50 -8z m982 -1 c123 -9 117 -5 113 -71 -2 -32 -6 -86 -9 -120 l-6 -63 -432 0 -432 0 -27 108 c-38 151 -38 150 26 155 66 6 667 -1 767 -9z m588 -125 l111 -116 -227 -6 c-125 -3 -229 -4 -231 -2 -6 7 19 219 27 227 11 11 142 24 178 18 24 -4 58 -33 142 -121z m-537 -307 c-6 -10 -15 -59 -21 -108 -7 -49 -17 -114 -24 -144 l-12 -55 -335 -3 -335 -2 -11 57 c-24 118 -32 179 -31 226 l1 47 389 0 c374 0 388 -1 379 -18z"/>
<path d="M2915 6537 c-50 -17 -86 -45 -181 -144 l-92 -95 -58 7 c-100 12 -188 34 -199 48 -39 51 -55 68 -63 63 -5 -3 -9 -67 -8 -143 l1 -138 27 2 c15 1 42 8 60 16 43 19 130 37 176 37 32 0 47 -11 146 -108 85 -83 129 -117 188 -147 42 -22 80 -36 84 -32 4 4 -5 29 -20 56 -14 27 -42 96 -61 153 -55 162 -49 230 36 389 22 42 12 52 -36 36z"/>
</g>
<g id="layer103" fill="#1b23c3" stroke="none">
<path d="M817 6958 c-125 -111 -259 -295 -337 -461 -89 -191 -135 -391 -139 -607 -8 -395 144 -769 432 -1066 33 -34 57 -67 53 -72 -8 -13 11 -64 27 -74 7 -5 24 -6 38 -3 16 4 30 0 38 -8 9 -12 4 -20 -26 -43 -21 -16 -51 -40 -68 -55 -111 -98 -204 -172 -229 -181 -31 -12 -60 -66 -49 -95 19 -54 9 -53 375 -53 262 0 339 -3 342 -12 25 -87 36 -132 42 -178 3 -30 13 -73 22 -94 14 -36 14 -40 -1 -51 -10 -7 -17 -18 -17 -24 0 -7 -11 -24 -25 -39 -14 -15 -25 -32 -25 -39 0 -6 -3 -13 -8 -15 -4 -1 -25 -28 -47 -58 -22 -30 -43 -56 -47 -58 -5 -2 -8 -9 -8 -15 0 -7 -15 -28 -33 -47 -17 -19 -50 -57 -72 -85 -21 -27 -46 -57 -55 -65 -8 -8 -45 -48 -80 -89 -36 -41 -152 -162 -257 -270 -106 -107 -193 -198 -193 -202 0 -4 -20 -29 -45 -55 -25 -27 -45 -53 -45 -57 0 -5 -16 -28 -35 -51 -19 -24 -35 -48 -35 -55 0 -6 -3 -11 -7 -11 -5 0 -13 -10 -19 -23 -6 -12 -22 -44 -36 -72 -50 -98 -98 -226 -98 -262 0 -12 -4 -24 -9 -27 -5 -3 -11 -23 -14 -43 -2 -21 -9 -63 -15 -93 -42 -216 -42 -474 0 -660 5 -25 12 -64 15 -87 3 -24 9 -43 14 -43 5 0 9 -14 9 -30 0 -17 4 -38 9 -48 5 -9 17 -43 27 -74 10 -32 22 -58 26 -58 4 0 8 -8 8 -18 0 -17 66 -160 80 -172 3 -3 12 -18 20 -35 24 -49 151 -227 189 -267 20 -20 47 -49 61 -65 35 -38 176 -165 197 -177 10 -5 29 -20 43 -33 14 -13 30 -23 37 -23 7 0 13 -4 13 -10 0 -5 7 -10 15 -10 8 0 15 -4 15 -10 0 -5 9 -10 20 -10 11 0 20 -4 20 -8 0 -4 26 -21 57 -37 32 -17 60 -33 61 -37 2 -5 9 -8 15 -8 7 0 35 -11 62 -25 28 -13 58 -25 67 -25 9 0 20 -4 23 -10 3 -5 16 -10 29 -10 12 0 26 -4 31 -9 15 -13 110 -41 140 -41 14 0 33 -4 43 -9 26 -14 211 -30 349 -31 126 -1 311 14 373 29 19 5 67 17 105 26 39 9 72 21 73 26 2 5 15 9 28 9 13 0 32 4 42 9 9 5 28 13 42 18 57 23 221 107 231 120 6 7 15 13 20 13 5 0 28 12 52 28 41 26 56 38 99 75 12 9 25 17 29 17 13 0 255 246 275 279 10 17 22 31 26 31 4 0 8 5 8 10 0 6 11 23 25 38 14 15 25 32 25 39 0 7 5 13 10 13 6 0 10 5 10 11 0 6 8 23 19 37 31 46 71 122 71 137 0 8 4 15 9 15 4 0 16 21 26 48 10 26 22 51 26 57 5 5 9 19 9 30 0 12 3 25 6 28 11 10 43 110 44 132 0 12 4 25 9 30 5 6 12 30 15 55 4 25 12 83 18 130 21 144 11 589 -13 615 -5 5 -9 28 -9 51 0 24 -4 46 -10 49 -5 3 -10 16 -10 28 0 22 -18 79 -57 177 -25 63 -97 195 -119 221 -8 8 -14 21 -14 27 0 7 -4 12 -8 12 -4 0 -15 12 -24 28 -9 15 -30 42 -47 60 -17 17 -31 34 -31 37 0 12 -40 55 -325 348 -99 101 -198 206 -220 232 -22 26 -52 60 -67 76 -16 16 -28 32 -28 37 0 4 -16 25 -35 45 -19 20 -35 39 -35 42 0 7 -15 25 -47 60 -13 13 -23 27 -23 31 0 3 -16 28 -35 54 -19 26 -35 51 -35 54 0 4 -12 19 -26 34 -21 22 -24 33 -19 62 3 19 10 60 15 90 9 55 26 116 50 178 l12 33 282 -1 c435 -2 413 -3 436 20 11 11 20 33 20 51 0 40 -36 91 -61 87 -13 -2 -53 34 -134 122 -103 111 -113 126 -100 140 18 19 20 76 4 86 -7 4 18 36 63 83 98 101 144 159 208 261 309 493 292 1145 -43 1623 -73 104 -186 229 -199 221 -6 -4 -8 -2 -4 4 3 6 -11 24 -31 41 l-38 31 -950 0 -950 0 -58 -52z m2176 -395 c3 -5 -3 -24 -13 -43 -90 -175 -101 -219 -77 -316 10 -38 42 -123 72 -189 30 -66 55 -126 55 -132 0 -18 -21 -16 -78 5 -71 27 -126 68 -246 183 l-107 102 -67 -12 c-88 -17 -145 -32 -156 -43 -6 -4 -27 -8 -48 -8 l-38 0 0 174 c0 173 0 174 21 169 12 -3 30 -21 41 -40 11 -18 30 -39 41 -45 21 -11 197 -48 230 -48 10 0 39 24 65 53 90 101 154 159 195 178 43 19 102 25 110 12z m-2313 -1057 c223 -114 467 -132 654 -46 140 63 232 83 391 82 146 0 269 -21 407 -68 186 -64 193 -66 385 -71 147 -5 200 -2 280 12 102 18 203 51 262 86 18 11 36 18 38 15 8 -8 -58 -189 -104 -284 -67 -139 -156 -266 -258 -366 l-90 -90 -375 3 c-206 1 -576 3 -822 4 l-448 2 -109 112 c-163 167 -263 309 -317 446 -26 66 -41 170 -30 212 l7 26 32 -21 c18 -11 61 -36 97 -54z m498 -851 c2 -2 10 -33 17 -70 8 -37 24 -92 35 -122 11 -30 18 -58 16 -61 -2 -4 -95 -9 -206 -10 l-201 -4 102 124 c134 162 130 159 187 151 26 -3 48 -7 50 -8z m982 -1 c123 -9 117 -5 113 -71 -2 -32 -6 -86 -9 -120 l-6 -63 -432 0 -432 0 -27 108 c-38 151 -38 150 26 155 66 6 667 -1 767 -9z m588 -125 l111 -116 -227 -6 c-125 -3 -229 -4 -231 -2 -6 7 19 219 27 227 11 11 142 24 178 18 24 -4 58 -33 142 -121z m-537 -307 c-6 -10 -15 -59 -21 -108 -7 -49 -17 -114 -24 -144 l-12 -55 -335 -3 -335 -2 -11 57 c-24 118 -32 179 -31 226 l1 47 389 0 c374 0 388 -1 379 -18z m-907 -633 c-8 -14 -24 -10 -24 6 0 9 6 12 15 9 8 -4 12 -10 9 -15z m316 4 c0 -15 -76 -18 -84 -4 -8 12 5 16 49 16 21 0 35 -5 35 -12z m50 -3 c0 -13 -11 -13 -30 0 -12 8 -11 10 8 10 12 0 22 -4 22 -10z m715 0 c17 -7 14 -9 -13 -9 -20 -1 -31 3 -27 9 7 12 13 12 40 0z"/>
</g>
<g id="layer104" fill="#646d6e" stroke="none">
<path d="M859 6993 c-11 -15 -11 -16 1 -5 11 9 218 12 961 12 l948 0 52 -55 c28 -30 55 -53 59 -50 8 5 38 -24 39 -37 1 -5 3 -8 6 -8 3 0 8 0 12 0 4 0 -24 31 -62 70 -37 38 -72 67 -76 65 -4 -3 -9 2 -13 10 -5 13 -122 15 -959 15 -897 0 -955 -1 -968 -17z m1986 -53 c21 -22 37 -40 34 -40 -3 0 -23 18 -44 40 -21 22 -37 40 -34 40 3 0 23 -18 44 -40z"/>
<path d="M1350 6629 c-46 -19 -87 -58 -109 -105 -12 -25 -21 -47 -19 -49 5 -4 132 17 155 26 15 5 27 25 39 63 10 31 16 58 13 60 -11 11 -57 14 -79 5z"/>
<path d="M1785 6595 c-80 -14 -115 -26 -138 -50 -32 -31 -21 -45 36 -46 28 0 75 -4 102 -8 28 -5 -27 -6 -125 -3 -106 3 -222 0 -295 -8 -66 -6 -134 -13 -150 -15 -126 -12 -390 -119 -462 -187 -45 -42 -31 -63 102 -153 120 -80 217 -128 340 -168 97 -31 141 -41 280 -62 29 -5 30 -7 30 -60 0 -76 19 -94 105 -95 88 -1 125 6 200 35 102 40 195 100 213 137 16 33 16 33 -8 36 -43 6 -28 16 63 45 48 15 114 42 147 60 l60 32 3 153 c1 83 1 152 0 152 -21 0 -154 33 -158 39 -7 12 -255 52 -277 45 -16 -5 -16 -4 -1 5 9 7 20 31 24 57 10 66 -3 74 -91 59z m191 -644 c-8 -12 -46 -21 -46 -11 0 5 8 11 18 13 29 8 33 7 28 -2z m-60 -18 c-4 -4 -19 -9 -34 -11 -15 -2 -31 -7 -36 -12 -5 -5 -16 -6 -25 -2 -11 4 -1 10 29 18 53 14 76 17 66 7z m-141 -33 c-16 -4 -50 -7 -75 -7 l-45 0 50 7 c28 4 61 7 75 7 22 1 21 0 -5 -7z m-147 -17 c-10 -2 -26 -2 -35 0 -10 3 -2 5 17 5 19 0 27 -2 18 -5z"/>
<path d="M2203 6473 c-22 -4 -50 -30 -41 -38 6 -6 119 -27 123 -23 1 2 5 18 8 36 6 32 6 32 -31 31 -20 -1 -47 -4 -59 -6z"/>
<path d="M2884 4839 l-72 -71 -37 12 c-33 11 -40 10 -50 -4 -11 -14 -15 -15 -40 -2 -16 8 -32 13 -37 10 -4 -3 -175 -5 -380 -4 -1183 3 -1366 2 -1384 -8 -26 -14 -44 -3 -119 67 l-60 56 64 -66 c35 -37 61 -71 57 -77 -10 -16 14 -71 33 -77 10 -3 26 -3 35 1 19 7 49 -14 39 -29 -4 -6 -1 -7 8 -1 8 5 28 9 44 9 17 1 37 3 45 6 8 2 14 -2 12 -9 -2 -9 3 -9 20 2 35 22 117 10 123 -18 16 -82 30 -136 42 -165 8 -18 16 -50 19 -70 2 -20 8 -49 13 -66 5 -16 12 -56 15 -89 4 -32 11 -66 16 -76 5 -10 14 -51 20 -91 6 -41 18 -94 27 -118 15 -41 15 -45 -1 -56 -9 -7 -16 -18 -16 -24 0 -7 -11 -24 -25 -39 -14 -15 -25 -32 -25 -39 0 -6 -3 -13 -8 -15 -4 -1 -25 -28 -47 -58 -22 -30 -43 -56 -47 -58 -5 -2 -8 -9 -8 -15 0 -7 -15 -28 -33 -47 -17 -19 -50 -57 -72 -85 -21 -27 -46 -57 -55 -65 -8 -8 -45 -48 -80 -89 -36 -41 -152 -162 -257 -270 -106 -107 -193 -198 -193 -202 0 -4 -20 -29 -45 -55 -25 -27 -45 -53 -45 -57 0 -5 -16 -28 -35 -51 -19 -24 -35 -48 -35 -55 0 -6 -3 -11 -7 -11 -5 0 -13 -10 -19 -23 -6 -12 -22 -44 -36 -72 -50 -98 -98 -226 -98 -262 0 -12 -4 -24 -9 -27 -5 -3 -11 -23 -14 -43 -2 -21 -9 -63 -15 -93 -42 -216 -42 -474 0 -660 5 -25 12 -64 15 -87 3 -24 9 -43 14 -43 5 0 9 -14 9 -30 0 -17 4 -38 9 -48 5 -9 17 -43 27 -74 10 -32 22 -58 26 -58 4 0 8 -8 8 -18 0 -17 66 -160 80 -172 3 -3 12 -18 20 -35 24 -49 151 -227 189 -267 20 -20 47 -49 61 -65 35 -38 176 -165 197 -177 10 -5 29 -20 43 -33 14 -13 30 -23 37 -23 7 0 13 -4 13 -10 0 -5 7 -10 15 -10 8 0 15 -4 15 -10 0 -5 9 -10 20 -10 11 0 20 -4 20 -8 0 -4 26 -21 57 -37 32 -17 60 -33 61 -37 2 -5 9 -8 15 -8 7 0 35 -11 62 -25 28 -13 58 -25 67 -25 9 0 20 -4 23 -10 3 -5 16 -10 29 -10 12 0 26 -4 32 -9 14 -13 109 -41 139 -41 14 0 33 -4 43 -9 26 -14 211 -30 349 -31 126 -1 311 14 373 29 19 5 67 17 105 26 39 9 72 21 73 26 2 5 15 9 28 9 13 0 32 4 42 9 9 5 28 13 42 18 57 23 221 107 231 120 6 7 15 13 20 13 5 0 28 12 52 27 41 27 56 39 99 75 12 10 25 18 29 18 13 0 255 246 275 279 10 17 22 31 26 31 4 0 8 5 8 10 0 6 11 23 25 38 14 15 25 32 25 39 0 7 5 13 10 13 6 0 10 5 10 11 0 6 8 23 19 37 31 46 71 122 71 137 0 8 4 15 9 15 4 0 16 21 26 48 10 26 22 51 26 57 5 5 9 19 9 30 0 12 3 25 6 28 11 10 43 110 44 132 0 12 4 25 9 30 5 6 12 30 15 55 4 25 12 83 18 130 21 144 11 589 -13 614 -5 6 -9 29 -9 52 0 24 -4 46 -10 49 -5 3 -10 16 -10 28 0 22 -18 79 -57 177 -25 63 -97 195 -119 221 -8 8 -14 21 -14 27 0 7 -4 12 -8 12 -4 0 -15 12 -24 28 -9 15 -30 42 -47 60 -17 17 -31 34 -31 37 0 12 -40 55 -325 348 -99 101 -198 206 -220 232 -22 26 -52 60 -67 76 -16 16 -28 32 -28 37 0 4 -16 25 -35 45 -19 20 -35 39 -35 42 0 7 -15 25 -47 60 -13 13 -23 27 -23 31 0 3 -16 28 -35 54 -19 26 -35 51 -35 54 0 4 -12 19 -26 34 -21 22 -24 33 -19 62 3 19 8 53 11 75 6 49 31 136 55 191 18 41 30 116 49 309 6 61 14 113 18 117 24 25 231 23 293 -2 16 -7 34 -7 50 -1 20 7 29 4 54 -18 l30 -26 -28 31 c-25 27 -26 32 -12 44 17 14 20 75 4 86 -7 4 20 37 67 85 43 44 76 79 74 79 -3 0 -37 -32 -76 -71z m-717 -186 c50 -3 95 -9 100 -12 11 -7 -1 -206 -15 -252 -19 -62 -44 -173 -59 -264 -8 -49 -20 -117 -26 -150 l-12 -60 -336 -3 -335 -2 -12 62 c-25 125 -30 164 -31 233 0 43 -8 92 -20 127 l-20 58 362 3 362 2 -366 3 -365 2 -27 108 c-38 151 -38 150 26 155 69 6 657 -1 774 -10z m-863 -1064 c-8 -14 -24 -10 -24 6 0 9 6 12 15 9 8 -4 12 -10 9 -15z m316 4 c0 -15 -76 -18 -84 -4 -8 12 5 16 49 16 21 0 35 -5 35 -12z m50 -3 c0 -13 -11 -13 -30 0 -12 8 -11 10 8 10 12 0 22 -4 22 -10z m715 0 c17 -7 14 -9 -13 -9 -20 -1 -31 3 -27 9 7 12 13 12 40 0z"/>
</g>
<g id="layer105" fill="#5e63ab" stroke="none">
<path d="M859 6993 c-11 -15 -11 -16 1 -5 11 9 218 12 961 12 l948 0 52 -55 c28 -30 55 -53 59 -50 8 5 38 -24 39 -37 1 -5 3 -8 6 -8 3 0 8 0 12 0 4 0 -6 13 -22 30 -15 16 -33 28 -39 27 -6 -1 -10 4 -8 11 1 6 -1 11 -5 10 -5 -2 -9 2 -11 7 -6 17 -45 55 -52 50 -5 -3 -10 2 -14 10 -5 13 -122 15 -959 15 -897 0 -955 -1 -968 -17z"/>
<path d="M2960 6813 c0 -6 3 -13 8 -15 4 -1 17 -16 30 -32 12 -16 22 -25 22 -19 0 13 -59 80 -60 66z"/>
<path d="M1413 6592 c-1 -28 1 -32 7 -17 11 26 12 55 3 55 -5 0 -9 -17 -10 -38z"/>
<path d="M520 6580 c-11 -22 -18 -40 -15 -40 2 0 14 18 25 40 11 22 18 40 15 40 -2 0 -14 -18 -25 -40z"/>
<path d="M1280 6580 c-22 -22 -40 -45 -40 -52 0 -6 1 -9 3 -7 1 2 22 26 47 52 54 57 46 63 -10 7z"/>
<path d="M1785 6595 c-79 -12 -140 -38 -150 -63 -5 -13 -1 -12 17 4 13 12 38 26 56 32 48 16 148 26 155 15 4 -6 3 -27 0 -48 -5 -29 -12 -40 -37 -51 l-31 -13 35 0 c19 0 72 -6 117 -14 45 -7 80 -10 77 -5 -3 4 -12 8 -21 8 -9 0 -44 5 -78 11 l-61 10 10 50 c14 71 2 79 -89 64z"/>
<path d="M2913 6571 c-29 -10 -55 -16 -58 -13 -3 3 -5 0 -5 -6 0 -7 -4 -12 -9 -12 -9 0 -99 -91 -173 -174 l-34 -38 -75 12 c-41 7 -78 15 -84 19 -5 3 -19 6 -30 7 -11 0 -31 4 -45 8 -22 6 -23 6 -6 -5 19 -11 193 -49 229 -49 10 0 39 24 65 53 132 147 198 196 269 197 42 0 45 -7 22 -54 -27 -56 -17 -55 12 1 17 34 20 48 11 51 -6 2 -10 8 -6 13 8 14 -26 10 -83 -10z"/>
<path d="M1387 6524 c-13 -17 -29 -24 -55 -25 -25 -1 -29 -3 -13 -6 35 -7 69 5 82 28 15 30 7 31 -14 3z"/>
<path d="M1214 6475 c-6 -6 -45 -19 -88 -29 -43 -10 -75 -20 -73 -22 6 -6 136 24 158 36 9 5 27 7 40 4 21 -4 22 -3 4 5 -18 8 -17 9 10 14 27 4 27 4 -6 4 -19 -1 -40 -6 -45 -12z"/>
<path d="M1428 6483 c12 -2 32 -2 45 0 12 2 2 4 -23 4 -25 0 -35 -2 -22 -4z"/>
<path d="M1653 6483 c15 -2 37 -2 50 0 12 2 0 4 -28 4 -27 0 -38 -2 -22 -4z"/>
<path d="M2220 6476 c0 -2 18 -6 40 -8 22 -2 40 0 40 4 0 5 -18 8 -40 8 -22 0 -40 -2 -40 -4z"/>
<path d="M2172 6458 c-7 -7 -12 -16 -12 -20 0 -15 15 -8 28 12 13 22 3 27 -16 8z"/>
<path d="M2924 6407 c-51 -113 -41 -189 51 -392 30 -66 55 -126 55 -132 0 -18 -21 -16 -78 5 -71 27 -126 68 -246 183 l-107 102 -72 -13 c-40 -7 -79 -17 -87 -21 -23 -13 1 -11 80 6 67 14 73 14 94 -2 44 -36 116 -120 108 -128 -4 -5 -2 -5 5 -2 6 4 34 -13 63 -37 95 -81 239 -141 252 -105 3 8 -9 43 -26 79 -84 174 -108 250 -109 341 0 26 4 55 8 65 5 11 9 21 10 24 7 29 18 50 24 50 4 0 8 7 8 15 0 25 -7 17 -33 -38z"/>
<path d="M2070 6439 c19 -5 45 -15 57 -21 13 -6 26 -8 30 -5 3 4 -1 7 -9 7 -9 0 -18 4 -20 9 -1 5 -23 11 -48 15 -43 5 -43 5 -10 -5z"/>
<path d="M902 6368 c-64 -33 -64 -46 -2 -47 14 -1 54 -15 88 -31 35 -17 65 -30 68 -30 2 0 -16 32 -39 70 -23 39 -44 70 -48 70 -3 0 -33 -15 -67 -32z"/>
<path d="M751 6276 c-17 -18 -22 -32 -17 -48 5 -22 67 -71 165 -131 62 -38 22 -4 -73 61 -42 29 -80 60 -83 68 -3 9 4 29 16 45 26 35 23 38 -8 5z"/>
<path d="M629 6121 c-96 -75 31 -223 131 -154 34 23 40 33 40 70 0 78 -110 132 -171 84z"/>
<path d="M1020 6025 c14 -8 30 -14 35 -14 6 0 -1 6 -15 14 -14 8 -29 14 -35 14 -5 0 1 -6 15 -14z"/>
<path d="M3303 5965 c0 -33 2 -45 4 -27 2 18 2 45 0 60 -2 15 -4 0 -4 -33z"/>
<path d="M1070 6005 c0 -6 32 -19 70 -29 14 -3 7 3 -15 13 -42 21 -55 24 -55 16z"/>
<path d="M1270 5935 c39 -13 78 -21 205 -40 29 -5 30 -7 30 -59 0 -52 22 -96 48 -96 5 0 -1 8 -13 18 -16 13 -22 29 -23 67 l-2 50 40 -1 c56 -2 237 14 259 22 14 5 15 9 4 15 -9 6 -6 9 10 9 13 0 21 -4 18 -9 -4 -5 5 -6 19 -3 31 9 37 26 10 29 l-20 3 20 -9 c15 -7 9 -9 -25 -8 -25 1 -90 -5 -145 -12 -110 -15 -248 -9 -355 13 -114 24 -126 26 -80 11z m505 -35 c-16 -4 -50 -7 -75 -7 l-45 0 50 7 c28 4 61 7 75 7 22 1 21 0 -5 -7z m-147 -17 c-10 -2 -26 -2 -35 0 -10 3 -2 5 17 5 19 0 27 -2 18 -5z"/>
<path d="M1908 5943 c6 -2 10 -9 6 -14 -3 -5 0 -9 5 -9 6 0 11 7 11 15 0 8 -8 15 -17 14 -11 0 -13 -3 -5 -6z"/>
<path d="M2007 5930 c4 -15 -6 -31 -33 -57 -39 -37 -39 -37 -6 -17 51 29 87 94 53 94 -14 0 -18 -5 -14 -20z"/>
<path d="M1855 5804 c-38 -18 -59 -31 -45 -28 29 8 120 52 120 59 0 6 5 9 -75 -31z"/>
<path d="M546 5808 c-21 -30 -20 -51 4 -73 44 -39 104 32 65 75 -24 26 -50 25 -69 -2z"/>
<path d="M343 5785 c0 -22 2 -30 4 -17 2 12 2 30 0 40 -3 9 -5 -1 -4 -23z"/>
<path d="M3303 5770 c0 -30 2 -43 4 -27 2 15 2 39 0 55 -2 15 -4 2 -4 -28z"/>
<path d="M1710 5751 c0 -4 11 -6 25 -3 14 2 25 6 25 8 0 2 -11 4 -25 4 -14 0 -25 -4 -25 -9z"/>
<path d="M595 5555 c22 -18 86 -53 70 -38 -5 6 -28 20 -50 32 -22 13 -31 15 -20 6z"/>
<path d="M1613 5543 c15 -2 39 -2 55 0 15 2 2 4 -28 4 -30 0 -43 -2 -27 -4z"/>
<path d="M1783 5543 c15 -2 39 -2 55 0 15 2 2 4 -28 4 -30 0 -43 -2 -27 -4z"/>
<path d="M3050 5510 c0 -4 -14 -13 -30 -20 -17 -7 -29 -15 -26 -17 4 -4 86 34 86 41 0 1 -7 3 -15 3 -8 0 -15 -4 -15 -7z"/>
<path d="M2085 5490 c11 -5 27 -9 35 -9 9 0 8 4 -5 9 -11 5 -27 9 -35 9 -9 0 -8 -4 5 -9z"/>
<path d="M2423 5403 c15 -2 37 -2 50 0 12 2 0 4 -28 4 -27 0 -38 -2 -22 -4z"/>
<path d="M2663 5403 c15 -2 39 -2 55 0 15 2 2 4 -28 4 -30 0 -43 -2 -27 -4z"/>
<path d="M3228 5395 c-3 -11 -9 -29 -13 -40 -3 -11 1 -7 10 8 9 16 15 33 12 40 -2 6 -6 3 -9 -8z"/>
<path d="M438 5345 c5 -11 12 -27 15 -35 5 -13 6 -13 6 1 1 8 -6 24 -15 35 -15 19 -15 19 -6 -1z"/>
<path d="M461 5285 c0 -5 11 -30 24 -55 13 -25 24 -40 24 -35 0 6 -11 30 -24 55 -13 25 -24 41 -24 35z"/>
<path d="M625 5220 c9 -16 18 -30 21 -30 2 0 -2 14 -11 30 -9 17 -18 30 -21 30 -2 0 2 -13 11 -30z"/>
<path d="M3142 5195 c-12 -25 -20 -45 -17 -45 7 0 47 81 43 86 -3 2 -14 -17 -26 -41z"/>
<path d="M2945 5140 c-9 -16 -13 -30 -11 -30 3 0 12 14 21 30 9 17 13 30 11 30 -3 0 -12 -13 -21 -30z"/>
<path d="M714 5087 c16 -20 30 -37 33 -37 7 0 -36 58 -49 66 -7 4 1 -9 16 -29z"/>
<path d="M584 5055 c35 -51 42 -57 23 -19 -9 17 -23 37 -33 44 -9 8 -4 -3 10 -25z"/>
<path d="M790 4995 c19 -19 36 -35 39 -35 3 0 -10 16 -29 35 -19 19 -36 35 -39 35 -3 0 10 -16 29 -35z"/>
<path d="M3009 4983 c-32 -36 -53 -63 -47 -63 2 0 21 20 41 45 42 49 45 61 6 18z"/>
<path d="M2826 4962 c-22 -27 -24 -32 -7 -17 20 17 47 55 39 55 -2 0 -16 -17 -32 -38z"/>
<path d="M890 4887 c36 -38 74 -73 85 -79 11 -6 18 -9 15 -7 -3 3 -41 38 -85 79 l-80 74 65 -67z"/>
<path d="M2735 4858 l-60 -63 63 60 c34 33 62 61 62 62 0 8 -10 -1 -65 -59z"/>
<path d="M2884 4839 l-72 -71 -37 12 c-33 11 -40 10 -50 -4 -11 -14 -15 -15 -40 -2 -16 8 -32 13 -37 10 -4 -3 -175 -5 -380 -4 -1183 3 -1366 2 -1384 -8 -26 -14 -44 -3 -119 67 l-60 56 64 -66 c35 -37 61 -71 57 -77 -10 -16 14 -71 33 -77 10 -3 26 -3 35 1 19 7 49 -14 39 -29 -4 -6 -1 -7 8 -1 8 5 28 9 44 9 17 1 37 3 45 6 8 2 14 -2 12 -9 -2 -9 3 -9 20 2 35 22 117 10 123 -18 16 -82 30 -136 42 -165 8 -18 16 -50 19 -70 2 -20 8 -49 13 -66 5 -16 12 -56 15 -89 4 -32 11 -66 16 -76 5 -10 14 -51 20 -91 6 -41 18 -94 27 -118 15 -41 15 -45 -1 -56 -9 -7 -16 -18 -16 -24 0 -7 -11 -24 -25 -39 -14 -15 -25 -32 -25 -39 0 -6 -3 -13 -8 -15 -4 -1 -25 -28 -47 -58 -22 -30 -43 -56 -47 -58 -5 -2 -8 -9 -8 -15 0 -7 -15 -28 -33 -47 -17 -19 -50 -57 -72 -85 -21 -27 -46 -57 -55 -65 -8 -8 -45 -48 -80 -89 -36 -41 -152 -162 -257 -270 -106 -107 -193 -198 -193 -202 0 -4 -20 -29 -45 -55 -25 -27 -45 -53 -45 -57 0 -5 -16 -28 -35 -51 -19 -24 -35 -48 -35 -55 0 -6 -3 -11 -7 -11 -5 0 -13 -10 -19 -23 -6 -12 -22 -44 -36 -72 -50 -98 -98 -226 -98 -262 0 -12 -4 -24 -9 -27 -5 -3 -11 -23 -14 -43 -2 -21 -9 -63 -15 -93 -42 -216 -42 -474 0 -660 5 -25 12 -64 15 -87 3 -24 9 -43 14 -43 5 0 9 -14 9 -30 0 -17 4 -38 9 -48 5 -9 17 -43 27 -74 10 -32 22 -58 26 -58 4 0 8 -8 8 -18 0 -17 66 -160 80 -172 3 -3 12 -18 20 -35 24 -49 151 -227 189 -267 20 -20 47 -49 61 -65 35 -38 176 -165 197 -177 10 -5 29 -20 43 -33 14 -13 30 -23 37 -23 7 0 13 -4 13 -10 0 -5 7 -10 15 -10 8 0 15 -4 15 -10 0 -5 9 -10 20 -10 11 0 20 -4 20 -8 0 -4 26 -21 57 -37 32 -17 60 -33 61 -37 2 -5 9 -8 15 -8 7 0 35 -11 62 -25 28 -13 58 -25 67 -25 9 0 20 -4 23 -10 3 -5 16 -10 29 -10 12 0 26 -4 32 -9 14 -13 109 -41 139 -41 14 0 33 -4 43 -9 26 -14 211 -30 349 -31 126 -1 311 14 373 29 19 5 67 17 105 26 39 9 72 21 73 26 2 5 15 9 28 9 13 0 32 4 42 9 9 5 28 13 42 18 57 23 221 107 231 120 6 7 15 13 20 13 5 0 28 12 52 27 41 27 56 39 99 75 12 10 25 18 29 18 13 0 255 246 275 279 10 17 22 31 26 31 4 0 8 5 8 10 0 6 11 23 25 38 14 15 25 32 25 39 0 7 5 13 10 13 6 0 10 5 10 11 0 6 8 23 19 37 31 46 71 122 71 137 0 8 4 15 9 15 4 0 16 21 26 48 10 26 22 51 26 57 5 5 9 19 9 30 0 12 3 25 6 28 11 10 43 110 44 132 0 12 4 25 9 30 5 6 12 30 15 55 4 25 12 83 18 130 21 144 11 589 -13 614 -5 6 -9 29 -9 52 0 24 -4 46 -10 49 -5 3 -10 16 -10 28 0 22 -18 79 -57 177 -25 63 -97 195 -119 221 -8 8 -14 21 -14 27 0 7 -4 12 -8 12 -4 0 -15 12 -24 28 -9 15 -30 42 -47 60 -17 17 -31 34 -31 37 0 12 -40 55 -325 348 -99 101 -198 206 -220 232 -22 26 -52 60 -67 76 -16 16 -28 32 -28 37 0 4 -16 25 -35 45 -19 20 -35 39 -35 42 0 7 -15 25 -47 60 -13 13 -23 27 -23 31 0 3 -16 28 -35 54 -19 26 -35 51 -35 54 0 4 -12 19 -26 34 -21 22 -24 33 -19 62 3 19 8 53 11 75 6 49 31 136 55 191 18 41 30 116 49 309 6 61 14 113 18 117 24 25 231 23 293 -2 16 -7 34 -7 50 -1 20 7 29 4 54 -18 l30 -26 -28 31 c-25 27 -26 32 -12 44 17 14 20 75 4 86 -7 4 20 37 67 85 43 44 76 79 74 79 -3 0 -37 -32 -76 -71z m-717 -186 c50 -3 95 -9 100 -12 11 -7 -1 -206 -15 -252 -19 -62 -44 -173 -59 -264 -8 -49 -20 -117 -26 -150 l-12 -60 -336 -3 -335 -2 -12 62 c-25 125 -30 164 -31 233 0 43 -8 92 -20 127 l-20 58 362 3 362 2 -366 3 -365 2 -27 108 c-38 151 -38 150 26 155 69 6 657 -1 774 -10z m105 -767 c18 -3 33 -17 44 -38 14 -28 146 -212 164 -228 3 -3 6 -10 7 -16 3 -14 -25 -20 -97 -19 -30 1 -104 2 -165 3 -60 1 -128 1 -151 0 -22 -1 -45 2 -52 6 -7 4 -12 4 -12 -1 0 -9 -365 -8 -380 2 -5 3 -10 1 -10 -6 0 -9 -16 -10 -57 -5 -54 6 -158 7 -332 3 -50 -1 -75 2 -78 10 -3 7 11 32 30 55 19 24 64 87 101 140 59 85 71 97 99 100 54 5 860 0 889 -6z"/>
<path d="M983 4573 c-86 -102 -135 -163 -130 -163 3 0 46 50 96 110 50 61 89 110 87 110 -2 0 -26 -26 -53 -57z"/>
<path d="M2775 4500 l89 -89 -169 -4 -170 -3 180 -2 180 -2 -95 95 c-52 52 -97 95 -100 95 -2 0 36 -40 85 -90z"/>
<path d="M795 4534 c-27 -25 -41 -41 -30 -36 19 10 94 82 84 82 -2 -1 -26 -21 -54 -46z"/>
<path d="M2925 4500 c27 -27 51 -50 54 -50 3 0 -17 23 -44 50 -27 28 -51 50 -54 50 -3 0 17 -22 44 -50z"/>
<path d="M3041 4396 c2 -2 15 -9 29 -16 23 -12 24 -12 11 3 -7 10 -20 17 -29 17 -8 0 -13 -2 -11 -4z"/>
<path d="M592 4383 c-7 -2 -17 -14 -23 -26 -11 -20 -10 -20 17 3 16 14 31 26 33 28 7 4 -14 1 -27 -5z"/>
<path d="M556 4300 c8 -32 33 -60 53 -59 11 0 8 3 -6 9 -13 5 -29 24 -38 42 -10 23 -13 25 -9 8z"/>
</g>
<g id="layer106" fill="#e14d4b" stroke="none">
<path d="M2895 6524 c-40 -21 -66 -45 -59 -55 3 -5 23 -9 45 -9 34 0 42 5 59 33 11 17 20 35 20 40 0 12 -33 8 -65 -9z"/>
<path d="M2380 6312 c0 -13 24 -22 63 -24 24 -1 19 -3 -16 -7 -69 -9 -58 -25 20 -32 l68 -5 -67 -2 c-37 -1 -70 -7 -73 -12 -5 -7 22 -10 82 -8 81 3 88 5 87 23 -3 59 1 57 -111 70 -33 4 -53 3 -53 -3z"/>
<path d="M2420 6203 c-52 -6 -62 -23 -13 -23 61 0 133 12 133 21 0 9 -53 10 -120 2z"/>
<path d="M2903 6043 c-7 -2 -13 -11 -13 -19 0 -8 -4 -14 -10 -14 -13 0 -8 -34 8 -52 15 -19 90 -53 98 -45 7 7 -53 137 -63 136 -4 0 -14 -3 -20 -6z"/>
<path d="M769 4828 c35 -36 61 -70 57 -76 -10 -16 14 -71 33 -77 10 -3 26 -3 35 1 9 3 23 1 31 -6 10 -9 33 -11 70 -7 33 3 55 2 55 -4 0 -6 6 -6 18 0 9 5 39 7 65 4 38 -5 48 -10 52 -27 16 -82 30 -136 42 -165 8 -18 16 -46 18 -62 2 -16 8 -44 13 -62 6 -17 13 -60 16 -95 3 -35 10 -71 16 -81 5 -10 14 -52 20 -92 6 -41 18 -94 27 -118 15 -41 15 -45 -1 -56 -9 -7 -16 -18 -16 -24 0 -7 -11 -24 -25 -39 -14 -15 -25 -32 -25 -39 0 -6 -3 -13 -8 -15 -4 -1 -25 -28 -47 -58 -22 -30 -43 -56 -47 -58 -5 -2 -8 -9 -8 -15 0 -7 -15 -28 -33 -47 -17 -19 -50 -57 -72 -85 -21 -27 -46 -57 -55 -65 -8 -8 -45 -48 -80 -89 -36 -41 -152 -162 -257 -270 -106 -107 -193 -198 -193 -202 0 -4 -20 -29 -45 -55 -25 -27 -45 -53 -45 -57 0 -5 -16 -28 -35 -51 -19 -24 -35 -48 -35 -55 0 -6 -3 -11 -7 -11 -5 0 -13 -10 -19 -23 -6 -12 -22 -44 -36 -72 -50 -98 -98 -226 -98 -262 0 -12 -4 -24 -9 -27 -5 -3 -11 -23 -14 -43 -2 -21 -9 -63 -15 -93 -42 -216 -42 -474 0 -660 5 -25 12 -64 15 -87 3 -24 9 -43 14 -43 5 0 9 -14 9 -30 0 -17 4 -38 9 -48 5 -9 17 -43 27 -74 10 -32 22 -58 26 -58 4 0 8 -8 8 -18 0 -17 66 -160 80 -172 3 -3 12 -18 20 -35 24 -49 151 -227 189 -267 20 -20 47 -49 61 -65 35 -38 176 -165 197 -177 10 -5 29 -20 43 -33 14 -13 30 -23 37 -23 7 0 13 -4 13 -10 0 -5 7 -10 15 -10 8 0 15 -4 15 -10 0 -5 9 -10 20 -10 11 0 20 -4 20 -8 0 -4 26 -21 57 -37 32 -17 60 -33 61 -37 2 -5 9 -8 15 -8 7 0 35 -11 62 -25 28 -13 58 -25 67 -25 9 0 20 -5 23 -10 3 -6 16 -10 29 -10 12 0 26 -4 32 -9 14 -13 109 -41 139 -41 14 0 33 -4 43 -9 26 -14 211 -30 349 -31 126 -1 311 14 373 29 19 5 67 17 105 26 39 9 72 21 73 26 2 5 15 9 28 9 13 0 32 4 42 9 9 5 28 13 42 18 57 23 221 107 231 120 6 7 15 13 20 13 5 0 28 12 52 28 41 26 56 38 99 75 12 9 25 17 29 17 13 0 255 246 275 279 10 17 22 31 26 31 4 0 8 5 8 10 0 6 11 23 25 38 14 15 25 32 25 39 0 7 5 13 10 13 6 0 10 5 10 11 0 6 8 23 19 37 31 46 71 122 71 137 0 8 4 15 9 15 4 0 16 21 26 47 10 27 22 52 26 58 5 5 9 19 9 30 0 12 3 25 6 28 11 10 43 110 44 132 0 12 4 25 9 30 5 6 12 30 15 55 4 25 12 83 18 130 21 144 11 589 -13 615 -5 5 -9 28 -9 51 0 24 -4 46 -10 49 -5 3 -10 16 -10 28 0 22 -18 79 -57 177 -25 63 -97 195 -119 221 -8 8 -14 21 -14 27 0 7 -4 12 -8 12 -4 0 -15 12 -24 28 -9 15 -30 42 -47 60 -17 17 -31 34 -31 37 0 12 -40 55 -325 348 -99 101 -198 206 -220 232 -22 26 -52 60 -67 76 -16 16 -28 32 -28 37 0 4 -16 25 -35 45 -19 20 -35 39 -35 42 0 7 -15 25 -47 60 -13 13 -23 27 -23 31 0 3 -16 28 -35 54 -19 26 -35 51 -35 54 0 4 -12 19 -26 34 -21 22 -24 33 -19 62 3 19 8 53 11 75 6 45 30 135 51 182 18 44 29 104 48 277 9 83 18 153 20 157 13 20 270 28 289 9 17 -17 62 -11 90 11 19 15 26 30 26 54 0 19 -5 37 -10 40 -8 5 -7 12 2 23 10 14 10 15 -1 6 -9 -9 -20 -9 -41 -1 -22 8 -35 8 -54 -2 -22 -12 -29 -12 -49 2 -14 9 -27 14 -30 11 -5 -5 -337 -5 -1202 -1 -417 2 -514 -1 -572 -19 -18 -5 -36 7 -95 62 l-73 68 64 -66z m1398 -175 c50 -3 95 -9 100 -12 8 -5 3 -137 -11 -262 -6 -60 -24 -127 -41 -153 -8 -12 -19 -61 -25 -111 -7 -49 -17 -115 -24 -145 l-12 -55 -335 -3 -335 -2 -12 62 c-26 128 -31 164 -30 218 1 47 -16 126 -38 184 -5 14 21 16 198 19 l203 2 -206 3 -205 2 -27 108 c-38 151 -38 150 26 155 69 6 657 -1 774 -10z m105 -767 c18 -3 33 -17 44 -38 14 -28 146 -212 164 -228 3 -3 6 -10 7 -16 3 -14 -25 -20 -97 -19 -30 1 -104 2 -165 3 -60 1 -128 1 -151 0 -22 -1 -45 2 -52 6 -7 4 -12 4 -12 -1 0 -9 -365 -8 -380 2 -5 3 -10 1 -10 -6 0 -9 -16 -10 -57 -5 -54 6 -158 7 -332 3 -50 -1 -75 2 -78 10 -3 7 11 32 30 55 19 24 64 87 101 140 59 85 71 97 99 100 54 5 860 0 889 -6z"/>
</g>
<g id="layer107" fill="#8d829d" stroke="none">
<path d="M1342 7003 c262 -2 694 -2 960 0 266 1 51 2 -477 2 -528 0 -745 -1 -483 -2z"/>
<path d="M760 6905 c-24 -25 -42 -45 -39 -45 3 0 25 20 49 45 24 25 42 45 39 45 -3 0 -25 -20 -49 -45z"/>
<path d="M2940 6580 c-22 -7 -21 -8 13 -9 20 -1 37 4 37 9 0 11 -14 11 -50 0z"/>
<path d="M2820 6523 l-35 -35 38 27 c20 15 37 31 37 36 0 12 0 12 -40 -28z"/>
<path d="M2894 6521 c-23 -10 -45 -24 -49 -31 -10 -16 12 -30 46 -30 28 0 38 9 57 53 14 33 5 35 -54 8z"/>
<path d="M1313 6493 c9 -2 25 -2 35 0 9 3 1 5 -18 5 -19 0 -27 -2 -17 -5z"/>
<path d="M1648 6483 c12 -2 32 -2 45 0 12 2 2 4 -23 4 -25 0 -35 -2 -22 -4z"/>
<path d="M2760 6467 c-22 -19 -74 -77 -69 -77 3 0 25 20 49 45 42 43 52 59 20 32z"/>
<path d="M2176 6454 c-18 -17 -20 -24 -8 -24 4 0 13 9 20 20 15 24 9 26 -12 4z"/>
<path d="M911 6369 c-64 -32 -68 -48 -11 -49 14 0 54 -14 88 -30 35 -17 66 -30 68 -30 3 0 -71 126 -81 138 -1 1 -30 -12 -64 -29z"/>
<path d="M2900 6220 c0 -14 5 -32 10 -40 8 -12 10 -10 10 10 0 14 -5 32 -10 40 -8 12 -10 10 -10 -10z"/>
<path d="M2602 6152 c15 -10 46 -38 70 -64 56 -60 157 -148 197 -171 48 -28 37 -14 -21 26 -29 20 -96 79 -148 132 -52 52 -101 95 -110 95 -9 0 -4 -7 12 -18z"/>
<path d="M645 6129 c-53 -30 -62 -99 -20 -142 63 -62 175 -29 175 52 0 56 -106 117 -155 90z"/>
<path d="M2280 6104 c0 -5 -9 -14 -20 -19 -89 -45 -152 -74 -184 -85 -20 -6 -35 -14 -33 -16 6 -6 120 37 184 70 52 26 70 42 59 53 -3 4 -6 2 -6 -3z"/>
<path d="M2895 6026 c-27 -41 -16 -68 38 -95 26 -13 50 -21 53 -18 6 6 -52 123 -65 132 -6 3 -17 -5 -26 -19z"/>
<path d="M2007 5930 c4 -15 -6 -31 -33 -57 -34 -33 -35 -35 -9 -19 54 34 88 96 51 96 -9 0 -12 -7 -9 -20z"/>
<path d="M3031 5893 c-1 -14 -9 -23 -23 -26 l-23 -4 23 -2 c24 -1 38 19 29 41 -3 7 -6 3 -6 -9z"/>
<path d="M556 5817 c-27 -20 -18 -81 12 -85 13 -2 30 2 38 8 21 18 18 67 -5 80 -24 13 -24 13 -45 -3z"/>
<path d="M1628 5543 c12 -2 32 -2 45 0 12 2 2 4 -23 4 -25 0 -35 -2 -22 -4z"/>
<path d="M1778 5543 c12 -2 32 -2 45 0 12 2 2 4 -23 4 -25 0 -35 -2 -22 -4z"/>
<path d="M2418 5403 c12 -2 30 -2 40 0 9 3 -1 5 -23 4 -22 0 -30 -2 -17 -4z"/>
<path d="M2688 5403 c12 -2 30 -2 40 0 9 3 -1 5 -23 4 -22 0 -30 -2 -17 -4z"/>
<path d="M769 4828 c35 -36 61 -70 57 -76 -10 -16 14 -71 33 -77 10 -3 26 -3 35 1 9 3 23 1 31 -6 10 -9 33 -11 70 -7 33 3 55 2 55 -4 0 -6 6 -6 18 0 9 5 39 7 65 4 38 -5 48 -10 52 -27 16 -82 30 -136 42 -165 8 -18 16 -46 18 -62 2 -16 8 -44 13 -62 6 -17 13 -60 16 -95 3 -35 10 -71 16 -81 5 -10 14 -52 20 -92 6 -41 18 -94 27 -118 15 -41 15 -45 -1 -56 -9 -7 -16 -18 -16 -24 0 -7 -11 -24 -25 -39 -14 -15 -25 -32 -25 -39 0 -6 -3 -13 -8 -15 -4 -1 -25 -28 -47 -58 -22 -30 -43 -56 -47 -58 -5 -2 -8 -9 -8 -15 0 -7 -15 -28 -33 -47 -17 -19 -50 -57 -72 -85 -21 -27 -46 -57 -55 -65 -8 -8 -45 -48 -80 -89 -36 -41 -152 -162 -257 -270 -106 -107 -193 -198 -193 -202 0 -4 -20 -29 -45 -55 -25 -27 -45 -53 -45 -57 0 -5 -16 -28 -35 -51 -19 -24 -35 -48 -35 -55 0 -6 -3 -11 -7 -11 -5 0 -13 -10 -19 -23 -6 -12 -22 -44 -36 -72 -50 -98 -98 -226 -98 -262 0 -12 -4 -24 -9 -27 -5 -3 -11 -23 -14 -43 -2 -21 -9 -63 -15 -93 -42 -216 -42 -474 0 -660 5 -25 12 -64 15 -87 3 -24 9 -43 14 -43 5 0 9 -14 9 -30 0 -17 4 -38 9 -48 5 -9 17 -43 27 -74 10 -32 22 -58 26 -58 4 0 8 -8 8 -18 0 -17 66 -160 80 -172 3 -3 12 -18 20 -35 24 -49 151 -227 189 -267 20 -20 47 -49 61 -65 35 -38 176 -165 197 -177 10 -5 29 -20 43 -33 14 -13 30 -23 37 -23 7 0 13 -4 13 -10 0 -5 7 -10 15 -10 8 0 15 -4 15 -10 0 -5 9 -10 20 -10 11 0 20 -4 20 -8 0 -4 26 -21 57 -37 32 -17 60 -33 61 -37 2 -5 9 -8 15 -8 7 0 35 -11 62 -25 28 -13 58 -25 67 -25 9 0 20 -5 23 -10 3 -6 16 -10 29 -10 12 0 26 -4 32 -9 14 -13 109 -41 139 -41 14 0 33 -4 43 -9 16 -9 191 -31 240 -31 12 0 22 5 22 10 0 6 -5 10 -12 10 -25 0 -141 85 -195 144 -87 94 -139 179 -224 371 -4 11 -10 27 -11 35 -2 8 -6 17 -9 20 -15 14 -89 279 -117 420 -68 340 -81 853 -31 1295 20 181 103 480 182 656 93 208 200 487 201 527 l1 34 -72 -1 c-40 0 -82 0 -92 0 -13 -1 -34 -26 -65 -78 -47 -82 -228 -350 -255 -381 -44 -48 -207 -311 -256 -412 -31 -63 -60 -122 -64 -130 -5 -9 -12 -31 -16 -50 -4 -19 -11 -39 -15 -45 -4 -5 -10 -26 -14 -45 -3 -19 -10 -55 -16 -80 -69 -311 -76 -695 -20 -1005 6 -33 14 -77 17 -98 3 -21 10 -40 14 -43 5 -3 9 -16 9 -29 0 -36 85 -265 139 -375 44 -88 110 -200 135 -226 6 -6 18 -22 26 -34 51 -78 236 -266 273 -279 7 -2 14 -8 17 -12 10 -15 171 -108 208 -120 20 -6 41 -15 46 -20 6 -5 20 -9 32 -9 13 0 26 -4 29 -10 12 -19 -46 -10 -185 27 -66 18 -167 51 -195 63 -11 5 -54 25 -97 44 -296 132 -588 398 -749 681 -74 131 -134 267 -160 363 -25 90 -31 115 -49 207 -36 182 -26 581 20 758 28 105 33 124 40 142 39 99 57 140 92 205 40 74 134 211 179 260 12 14 45 50 73 80 27 30 115 123 195 205 182 187 251 262 321 345 30 36 64 74 75 86 11 11 25 27 30 36 10 15 149 209 183 256 l17 23 452 0 c249 0 462 -2 473 -6 11 -4 27 -21 36 -38 17 -34 152 -218 167 -228 5 -3 8 -9 7 -13 -1 -7 57 -77 150 -180 25 -28 50 -56 55 -62 6 -6 78 -81 160 -166 300 -308 363 -380 448 -512 102 -157 175 -354 209 -561 18 -108 17 -496 0 -595 -37 -203 -80 -337 -163 -503 -84 -169 -171 -291 -307 -431 -167 -171 -384 -317 -582 -391 -25 -9 -54 -20 -65 -25 -91 -37 -293 -86 -316 -77 -10 3 -8 7 6 12 107 37 286 129 327 167 7 7 41 37 75 66 90 77 215 232 286 354 42 73 105 201 108 223 2 11 7 22 11 25 10 8 84 227 97 290 7 30 16 73 21 95 5 22 11 63 14 90 2 28 6 57 9 65 3 8 11 86 17 173 9 119 9 196 0 310 -12 151 -37 353 -45 368 -3 4 -6 25 -7 48 -1 22 -5 38 -10 35 -4 -3 -8 2 -8 10 0 32 -54 175 -108 285 -67 137 -275 454 -392 598 -6 7 -10 14 -10 17 0 3 -35 60 -79 128 l-79 123 -87 5 c-48 3 -92 2 -99 -2 -8 -5 -2 -33 21 -95 56 -157 81 -221 121 -310 21 -49 51 -119 67 -158 15 -38 31 -79 36 -90 4 -11 16 -44 25 -72 9 -29 20 -51 24 -48 4 3 8 -10 8 -29 0 -18 4 -42 10 -52 12 -24 56 -216 71 -309 23 -148 45 -459 43 -585 -3 -115 -11 -293 -17 -360 -3 -30 -7 -84 -10 -120 -3 -36 -8 -76 -11 -90 -3 -14 -8 -45 -10 -70 -15 -135 -105 -474 -158 -595 -8 -16 -26 -58 -41 -92 -15 -35 -32 -63 -36 -63 -5 0 -9 -6 -9 -14 0 -46 -207 -296 -245 -296 -8 0 -15 -4 -15 -8 0 -13 -85 -52 -113 -52 -29 0 -44 15 -23 23 28 11 82 157 116 312 31 143 70 423 76 540 2 55 7 118 9 140 3 22 11 204 17 405 13 425 -1 1012 -29 1200 -3 25 -5 49 -4 54 2 9 -10 99 -29 206 -5 30 -12 71 -14 90 -3 19 -9 62 -15 95 -29 177 -43 267 -50 335 -13 115 -8 110 -121 110 -66 0 -101 -4 -107 -12 -5 -7 -15 -58 -22 -113 -8 -55 -17 -122 -22 -150 -16 -102 -19 -123 -39 -255 -31 -211 -49 -357 -55 -450 -3 -47 -8 -114 -11 -150 -5 -81 -27 -622 -26 -670 1 -64 7 -130 12 -130 3 0 6 -102 7 -228 5 -560 93 -1151 192 -1296 17 -24 31 -47 31 -50 0 -2 -10 -7 -22 -9 -13 -2 27 -5 87 -5 98 -1 279 16 360 33 86 18 155 39 155 46 0 5 11 9 25 9 14 0 33 4 43 9 9 5 28 13 42 18 57 23 221 107 231 120 6 7 15 13 20 13 5 0 28 12 52 28 41 26 56 38 99 75 12 9 25 17 29 17 13 0 255 246 275 279 10 17 22 31 26 31 4 0 8 5 8 10 0 6 11 23 25 38 14 15 25 32 25 39 0 7 5 13 10 13 6 0 10 5 10 11 0 6 8 23 19 37 31 46 71 122 71 137 0 8 4 15 9 15 4 0 16 21 26 47 10 27 22 52 26 58 5 5 9 19 9 30 0 12 3 25 6 28 11 10 43 110 44 132 0 12 4 25 9 30 5 6 12 30 15 55 4 25 12 83 18 130 21 144 11 589 -13 615 -5 5 -9 28 -9 51 0 24 -4 46 -10 49 -5 3 -10 16 -10 28 0 22 -18 79 -57 177 -25 63 -97 195 -119 221 -8 8 -14 21 -14 27 0 7 -4 12 -8 12 -4 0 -15 12 -24 28 -9 15 -30 42 -47 60 -17 17 -31 34 -31 37 0 12 -40 55 -325 348 -99 101 -198 206 -220 232 -22 26 -52 60 -67 76 -16 16 -28 32 -28 37 0 4 -16 25 -35 45 -19 20 -35 39 -35 42 0 7 -15 25 -47 60 -13 13 -23 27 -23 31 0 3 -16 28 -35 54 -19 26 -35 51 -35 54 0 4 -12 19 -26 34 -21 22 -24 33 -19 62 3 19 8 53 11 75 6 45 30 135 51 182 18 44 29 104 48 277 9 83 18 153 20 157 13 20 270 28 289 9 17 -17 62 -11 90 11 19 15 26 30 26 54 0 19 -5 37 -10 40 -8 5 -7 12 2 23 10 14 10 15 -1 6 -9 -9 -20 -9 -41 -1 -22 8 -35 8 -54 -2 -22 -12 -29 -12 -49 2 -14 9 -27 14 -30 11 -5 -5 -337 -5 -1202 -1 -417 2 -514 -1 -572 -19 -18 -5 -36 7 -95 62 l-73 68 64 -66z m1398 -175 c50 -3 95 -9 100 -12 8 -5 3 -137 -11 -262 -6 -60 -24 -127 -41 -153 -8 -12 -19 -61 -25 -111 -7 -49 -17 -115 -24 -145 l-12 -55 -335 -3 -335 -2 -12 62 c-26 128 -31 164 -30 218 1 47 -16 126 -38 184 -5 14 21 16 198 19 l203 2 -206 3 -205 2 -27 108 c-38 151 -38 150 26 155 69 6 657 -1 774 -10z"/>
<path d="M1868 4393 c23 -2 61 -2 85 0 23 2 4 4 -43 4 -47 0 -66 -2 -42 -4z"/>
<path d="M2725 4848 l-40 -43 43 40 c39 36 47 45 39 45 -2 0 -21 -19 -42 -42z"/>
<path d="M2775 4503 l89 -92 -169 -4 -170 -3 173 -2 c94 -1 172 1 172 6 0 4 -42 48 -92 97 l-93 90 90 -92z"/>
<path d="M2920 4507 c0 -2 15 -16 33 -33 l32 -29 -29 33 c-28 30 -36 37 -36 29z"/>
</g>
<g id="layer108" fill="#fed73b" stroke="none">
<path d="M818 4778 c8 -10 11 -21 8 -26 -9 -15 14 -70 31 -76 9 -4 24 -4 35 0 10 3 24 1 31 -4 7 -5 65 -9 129 -9 65 0 120 -2 123 -5 4 -3 13 -36 20 -73 8 -37 24 -92 35 -122 11 -30 18 -58 15 -63 -3 -5 -1 -11 4 -14 10 -7 19 -48 27 -136 3 -35 10 -72 14 -81 5 -9 14 -50 20 -90 6 -41 18 -94 27 -118 15 -41 15 -45 -1 -56 -9 -7 -16 -18 -16 -24 0 -7 -11 -24 -25 -39 -14 -15 -25 -32 -25 -39 0 -6 -3 -13 -8 -15 -4 -1 -25 -28 -47 -58 -22 -30 -43 -56 -47 -58 -5 -2 -8 -9 -8 -15 0 -7 -15 -28 -33 -47 -17 -19 -50 -57 -72 -85 -21 -27 -46 -57 -55 -65 -8 -8 -45 -48 -80 -89 -36 -41 -152 -162 -257 -270 -106 -107 -193 -198 -193 -202 0 -4 -20 -29 -45 -55 -25 -27 -45 -53 -45 -57 0 -5 -16 -28 -35 -51 -19 -24 -35 -48 -35 -55 0 -6 -3 -11 -7 -11 -5 0 -13 -10 -19 -23 -6 -12 -22 -44 -36 -72 -50 -98 -98 -226 -98 -262 0 -12 -4 -24 -9 -27 -5 -3 -11 -23 -14 -43 -2 -21 -9 -63 -15 -93 -42 -216 -42 -474 0 -660 5 -25 12 -64 15 -87 3 -24 9 -43 14 -43 5 0 9 -14 9 -30 0 -17 4 -38 9 -48 5 -9 17 -43 27 -74 10 -32 22 -58 26 -58 4 0 8 -8 8 -18 0 -17 66 -160 80 -172 3 -3 12 -18 20 -35 24 -49 151 -227 189 -267 20 -20 47 -49 61 -65 35 -38 176 -165 197 -177 10 -5 29 -20 43 -33 14 -13 30 -23 37 -23 7 0 13 -4 13 -10 0 -5 7 -10 15 -10 8 0 15 -4 15 -10 0 -5 9 -10 20 -10 11 0 20 -4 20 -8 0 -4 26 -21 58 -37 31 -17 59 -33 60 -37 2 -5 9 -8 15 -8 7 0 35 -11 62 -25 28 -13 58 -25 67 -25 9 0 20 -4 23 -10 3 -5 16 -10 29 -10 12 0 26 -4 32 -9 14 -13 109 -41 139 -41 14 0 33 -4 43 -9 16 -9 191 -31 240 -31 12 0 22 5 22 10 0 6 -5 10 -12 10 -25 0 -141 85 -195 144 -87 94 -139 179 -224 371 -4 11 -10 27 -11 35 -2 8 -6 17 -9 20 -15 14 -89 279 -117 420 -68 340 -81 853 -31 1295 20 181 103 480 182 656 93 208 200 487 201 527 l1 34 -72 -1 c-40 0 -82 0 -92 0 -13 -1 -34 -26 -65 -78 -47 -82 -228 -350 -255 -381 -44 -48 -207 -311 -256 -412 -31 -63 -60 -122 -64 -130 -5 -9 -12 -31 -16 -50 -4 -19 -11 -39 -15 -45 -4 -5 -10 -26 -14 -45 -3 -19 -10 -55 -16 -80 -69 -311 -76 -695 -20 -1005 6 -33 14 -77 17 -98 3 -21 10 -40 14 -43 5 -3 9 -16 9 -29 0 -36 85 -265 139 -375 44 -88 110 -200 135 -226 6 -6 18 -22 26 -34 51 -78 236 -266 273 -279 7 -2 14 -8 17 -12 10 -15 171 -108 208 -120 20 -6 41 -15 46 -20 6 -5 20 -9 32 -9 13 0 26 -4 29 -10 12 -19 -46 -10 -185 27 -66 18 -167 51 -195 63 -11 5 -54 25 -97 44 -296 132 -588 398 -749 681 -74 131 -134 267 -160 363 -25 90 -31 115 -49 207 -37 184 -26 584 21 760 6 22 15 58 21 80 6 22 14 49 18 60 39 99 57 140 92 205 40 74 134 211 179 260 12 14 45 50 73 80 27 30 115 123 195 205 210 217 291 305 384 420 48 59 147 198 147 206 0 5 3 9 8 9 4 0 16 16 26 35 11 19 23 35 28 35 4 0 8 7 8 15 0 9 12 20 26 25 15 6 206 10 472 10 l447 0 18 -23 c26 -31 180 -245 192 -266 11 -20 84 -107 155 -185 25 -28 50 -56 55 -62 6 -6 78 -81 160 -166 300 -308 363 -380 448 -512 102 -157 175 -354 209 -561 18 -108 17 -496 0 -595 -37 -203 -80 -337 -163 -503 -84 -169 -171 -291 -307 -431 -167 -171 -384 -317 -582 -391 -25 -9 -54 -20 -65 -25 -91 -37 -293 -86 -316 -77 -10 3 -8 7 6 12 107 37 286 129 327 167 7 7 41 37 75 66 90 77 215 232 286 354 42 73 105 201 108 223 2 11 7 22 11 25 10 8 84 227 97 290 7 30 16 73 21 95 5 22 11 63 14 90 2 28 6 57 9 65 3 8 11 86 17 173 9 119 9 196 0 310 -12 151 -37 353 -45 368 -3 4 -6 25 -7 48 -1 22 -5 38 -10 35 -4 -3 -8 2 -8 10 0 32 -54 175 -108 285 -67 137 -275 454 -392 598 -6 7 -10 14 -10 17 0 3 -35 60 -79 128 l-79 123 -87 5 c-48 3 -92 2 -99 -2 -8 -5 -2 -33 21 -95 56 -157 81 -221 121 -310 21 -49 51 -119 67 -158 15 -38 31 -79 36 -90 4 -11 16 -44 25 -72 9 -29 20 -51 24 -48 4 3 8 -10 8 -29 0 -18 4 -42 10 -52 12 -24 56 -216 71 -309 23 -148 45 -459 43 -585 -3 -115 -11 -293 -17 -360 -3 -30 -7 -84 -10 -120 -3 -36 -8 -76 -11 -90 -3 -14 -8 -45 -10 -70 -15 -135 -105 -474 -158 -595 -8 -16 -26 -58 -41 -92 -15 -35 -32 -63 -36 -63 -5 0 -9 -6 -9 -14 0 -46 -207 -296 -245 -296 -8 0 -15 -4 -15 -8 0 -13 -85 -52 -113 -52 -29 0 -44 15 -23 23 28 11 82 157 116 312 31 143 70 423 76 540 2 55 7 118 9 140 3 22 11 204 17 405 13 425 -1 1012 -29 1200 -3 25 -5 49 -4 54 2 9 -10 99 -29 206 -5 30 -12 71 -14 90 -3 19 -9 62 -15 95 -29 177 -43 267 -50 335 -13 115 -8 110 -121 110 -66 0 -101 -4 -107 -12 -5 -7 -15 -58 -22 -113 -8 -55 -17 -122 -22 -150 -16 -102 -19 -123 -39 -255 -31 -211 -49 -357 -55 -450 -3 -47 -8 -114 -11 -150 -5 -81 -27 -622 -26 -670 1 -64 7 -130 12 -130 3 0 6 -102 7 -228 5 -560 93 -1151 192 -1296 17 -24 31 -47 31 -50 0 -2 -10 -7 -22 -9 -13 -2 27 -5 87 -5 98 -1 279 16 360 33 86 18 155 39 155 46 0 5 11 9 25 9 14 0 33 4 43 9 9 5 28 13 42 18 57 23 221 107 231 120 6 7 15 13 20 13 5 0 28 12 52 28 41 26 56 38 99 74 12 10 25 18 29 18 13 0 255 246 275 279 10 17 22 31 26 31 4 0 8 5 8 10 0 6 11 23 25 38 14 15 25 32 25 39 0 7 5 13 10 13 6 0 10 5 10 11 0 6 8 23 19 37 31 46 71 122 71 137 0 8 4 15 9 15 4 0 16 21 26 47 10 27 22 52 26 58 5 5 9 19 9 30 0 12 3 25 6 28 11 10 43 110 44 132 0 12 4 25 9 30 5 6 12 30 15 55 4 25 12 83 18 130 21 144 11 589 -13 615 -5 5 -9 28 -9 51 0 24 -4 46 -10 49 -5 3 -10 16 -10 28 0 20 -18 77 -42 137 -6 14 -14 34 -18 45 -18 50 -94 191 -116 216 -8 8 -14 21 -14 27 0 7 -4 12 -8 12 -4 0 -15 12 -24 28 -9 15 -30 42 -47 60 -17 17 -31 34 -31 37 0 12 -40 55 -325 348 -99 101 -198 206 -220 232 -22 26 -52 60 -67 76 -16 16 -28 32 -28 37 0 4 -16 25 -35 45 -19 20 -35 39 -35 42 0 7 -15 25 -47 60 -13 13 -23 27 -23 31 0 3 -16 28 -35 54 -19 26 -35 51 -35 54 0 4 -12 19 -26 34 -21 22 -24 33 -19 62 3 19 8 53 11 75 6 44 30 134 50 180 11 26 29 142 62 385 7 52 9 55 42 62 61 13 238 12 255 -2 17 -14 57 -7 93 16 16 10 22 24 22 49 0 18 -5 37 -10 40 -6 4 -7 11 -4 17 4 6 2 8 -4 4 -6 -3 -22 -1 -36 5 -22 10 -29 9 -46 -6 -16 -14 -23 -16 -32 -7 -7 7 -20 12 -31 12 -11 0 -15 4 -11 12 4 7 3 8 -4 4 -12 -7 -341 -8 -1187 -2 -400 2 -507 -2 -577 -24 -22 -6 -34 -3 -55 13 -18 14 -23 15 -15 5z m1342 -124 c113 -8 121 -11 115 -37 -2 -12 -7 -78 -10 -147 -7 -151 -15 -197 -43 -236 -15 -20 -25 -57 -33 -119 -6 -49 -16 -115 -23 -145 l-12 -55 -335 -3 -335 -2 -11 57 c-31 153 -35 184 -29 206 5 21 -9 89 -40 194 l-6 23 178 3 179 2 -181 3 -180 2 -27 108 c-38 151 -38 150 26 155 66 6 667 -1 767 -9z"/>
</g>
<g id="layer109" fill="#c6a1b3" stroke="none">
<path d="M2894 6521 c-23 -10 -45 -24 -49 -31 -10 -16 12 -30 47 -30 22 0 32 8 48 40 24 46 16 49 -46 21z"/>
<path d="M2420 6300 c25 -8 117 -14 109 -6 -2 2 -33 6 -69 9 -41 4 -56 3 -40 -3z"/>
<path d="M2403 6263 c15 -2 39 -2 55 0 15 2 2 4 -28 4 -30 0 -43 -2 -27 -4z"/>
<path d="M2495 6260 c3 -5 13 -10 21 -10 8 0 14 5 14 10 0 6 -9 10 -21 10 -11 0 -17 -4 -14 -10z"/>
<path d="M2430 6230 l-45 -7 55 -1 c30 -1 62 3 70 8 18 11 -7 11 -80 0z"/>
<path d="M620 6103 c-42 -53 -11 -124 62 -144 33 -8 44 -7 71 8 27 16 33 26 35 61 3 36 -1 47 -27 72 -24 24 -38 30 -75 30 -37 0 -48 -5 -66 -27z"/>
<path d="M2895 6026 c-27 -40 -16 -67 38 -94 27 -13 51 -22 53 -19 7 6 -52 123 -65 132 -6 3 -17 -5 -26 -19z"/>
<path d="M2693 5403 c9 -2 25 -2 35 0 9 3 1 5 -18 5 -19 0 -27 -2 -17 -5z"/>
<path d="M818 4778 c8 -10 11 -21 8 -26 -9 -15 14 -70 31 -76 9 -4 24 -4 35 0 10 3 24 1 31 -4 7 -5 65 -9 129 -9 65 0 120 -2 123 -5 4 -3 13 -36 20 -73 8 -37 24 -92 35 -122 11 -30 18 -58 15 -63 -3 -5 -1 -11 4 -14 10 -7 19 -48 27 -136 3 -35 10 -72 14 -81 5 -9 14 -50 20 -90 6 -41 18 -94 27 -118 15 -41 15 -45 -1 -56 -9 -7 -16 -18 -16 -24 0 -7 -11 -24 -25 -39 -14 -15 -25 -32 -25 -39 0 -6 -3 -13 -8 -15 -4 -1 -25 -28 -47 -58 -22 -30 -43 -56 -47 -58 -5 -2 -8 -9 -8 -15 0 -7 -15 -28 -33 -47 -17 -19 -50 -57 -72 -85 -21 -27 -46 -57 -55 -65 -8 -8 -45 -48 -80 -89 -36 -41 -152 -162 -257 -270 -106 -107 -193 -198 -193 -202 0 -4 -20 -29 -45 -55 -25 -27 -45 -53 -45 -57 0 -5 -16 -28 -35 -51 -19 -24 -35 -48 -35 -55 0 -6 -3 -11 -7 -11 -5 0 -13 -10 -19 -23 -6 -12 -22 -44 -36 -72 -50 -98 -98 -226 -98 -262 0 -12 -4 -24 -9 -27 -5 -3 -11 -23 -14 -43 -2 -21 -9 -63 -15 -93 -42 -216 -42 -474 0 -660 5 -25 12 -64 15 -87 3 -24 9 -43 14 -43 5 0 9 -14 9 -30 0 -17 4 -38 9 -48 5 -9 17 -43 27 -74 10 -32 22 -58 26 -58 4 0 8 -8 8 -18 0 -17 66 -160 80 -172 3 -3 12 -18 20 -35 24 -49 151 -227 189 -267 20 -20 47 -49 61 -65 35 -38 176 -165 197 -177 10 -5 29 -20 43 -33 14 -13 30 -23 37 -23 7 0 13 -4 13 -10 0 -5 7 -10 15 -10 8 0 15 -4 15 -10 0 -5 9 -10 20 -10 11 0 20 -4 20 -8 0 -4 26 -21 58 -37 31 -17 59 -33 60 -37 2 -5 9 -8 15 -8 7 0 35 -11 62 -25 28 -13 58 -25 67 -25 9 0 20 -4 23 -10 3 -5 16 -10 29 -10 12 0 26 -4 32 -9 14 -13 109 -41 139 -41 14 0 33 -4 43 -9 22 -12 250 -36 259 -28 3 4 -9 7 -28 7 -45 0 -247 37 -324 60 -59 17 -157 50 -180 60 -11 5 -54 25 -97 44 -296 132 -588 398 -749 681 -74 131 -134 267 -160 363 -25 90 -31 115 -49 207 -37 184 -26 584 21 760 6 22 15 58 21 80 6 22 14 49 18 60 39 99 57 140 92 205 40 74 134 211 179 260 12 14 45 50 73 80 27 30 115 123 195 205 210 217 291 305 384 420 48 59 147 198 147 206 0 5 3 9 8 9 4 0 16 16 26 35 11 19 23 35 28 35 4 0 8 7 8 15 0 9 12 20 26 25 15 6 206 10 472 10 l447 0 18 -23 c26 -31 180 -245 192 -266 11 -20 84 -107 155 -185 25 -28 50 -56 55 -62 6 -6 78 -81 160 -166 300 -308 363 -380 448 -512 102 -157 175 -354 209 -561 18 -108 17 -496 0 -595 -37 -203 -80 -337 -163 -503 -84 -169 -171 -291 -307 -431 -167 -171 -384 -317 -582 -391 -25 -9 -54 -20 -65 -25 -56 -23 -106 -37 -245 -69 -77 -18 -197 -31 -308 -33 l-107 -2 85 -4 c88 -4 313 13 365 28 17 4 62 16 100 25 39 9 72 21 73 26 2 5 15 9 28 9 13 0 32 4 42 9 9 5 28 13 42 18 57 23 221 107 231 120 6 7 15 13 20 13 5 0 28 12 52 28 41 26 56 38 99 74 12 10 25 18 29 18 13 0 255 246 275 279 10 17 22 31 26 31 4 0 8 5 8 10 0 6 11 23 25 38 14 15 25 32 25 39 0 7 5 13 10 13 6 0 10 5 10 11 0 6 8 23 19 37 31 46 71 122 71 137 0 8 4 15 9 15 4 0 16 21 26 47 10 27 22 52 26 58 5 5 9 19 9 30 0 12 3 25 6 28 11 10 43 110 44 132 0 12 4 25 9 30 5 6 12 30 15 55 4 25 12 83 18 130 21 144 11 589 -13 615 -5 5 -9 28 -9 51 0 24 -4 46 -10 49 -5 3 -10 16 -10 28 0 20 -18 77 -42 137 -6 14 -14 34 -18 45 -18 50 -94 191 -116 216 -8 8 -14 21 -14 27 0 7 -4 12 -8 12 -4 0 -15 12 -24 28 -9 15 -30 42 -47 60 -17 17 -31 34 -31 37 0 12 -40 55 -325 348 -99 101 -198 206 -220 232 -22 26 -52 60 -67 76 -16 16 -28 32 -28 37 0 4 -16 25 -35 45 -19 20 -35 39 -35 42 0 7 -15 25 -47 60 -13 13 -23 27 -23 31 0 3 -16 28 -35 54 -19 26 -35 51 -35 54 0 4 -12 19 -26 34 -21 22 -24 33 -19 62 3 19 8 53 11 75 6 44 30 134 50 180 11 26 29 142 62 385 7 52 9 55 42 62 61 13 238 12 255 -2 17 -14 57 -7 93 16 16 10 22 24 22 49 0 18 -5 37 -10 40 -6 4 -7 11 -4 17 4 6 2 8 -4 4 -6 -3 -22 -1 -36 5 -22 10 -29 9 -46 -6 -16 -14 -23 -16 -32 -7 -7 7 -20 12 -31 12 -11 0 -15 4 -11 12 4 7 3 8 -4 4 -12 -7 -341 -8 -1187 -2 -400 2 -507 -2 -577 -24 -22 -6 -34 -3 -55 13 -18 14 -23 15 -15 5z m1342 -124 c113 -8 121 -11 115 -37 -2 -12 -7 -78 -10 -147 -7 -151 -15 -197 -43 -236 -15 -20 -25 -57 -33 -119 -6 -49 -16 -115 -23 -145 l-12 -55 -335 -3 -335 -2 -11 57 c-31 153 -35 184 -29 206 5 21 -9 89 -40 194 l-6 23 178 3 179 2 -181 3 -180 2 -27 108 c-38 151 -38 150 26 155 66 6 667 -1 767 -9z"/>
<path d="M2775 4503 l90 -93 -170 -2 -170 -2 164 -3 c91 -2 168 0 173 5 4 4 -34 48 -85 97 l-92 90 90 -92z"/>
</g>
<g id="layer110" fill="#d2cdce" stroke="none">
<path d="M2882 6504 c-30 -21 -28 -34 8 -34 26 0 50 21 50 44 0 12 -36 6 -58 -10z"/>
<path d="M1438 6483 c12 -2 30 -2 40 0 9 3 -1 5 -23 4 -22 0 -30 -2 -17 -4z"/>
<path d="M1648 6483 c12 -2 30 -2 40 0 9 3 -1 5 -23 4 -22 0 -30 -2 -17 -4z"/>
<path d="M1113 6390 c3 -14 13 -50 22 -80 17 -63 13 -113 -16 -179 -22 -50 -16 -67 12 -33 40 50 51 163 23 245 -18 52 -52 91 -41 47z"/>
<path d="M911 6368 c-24 -13 -43 -28 -43 -33 0 -6 18 -13 40 -17 22 -4 63 -18 91 -32 28 -14 53 -26 56 -26 11 0 -73 125 -86 128 -8 1 -34 -8 -58 -20z"/>
<path d="M907 6203 c-4 -3 -7 -17 -7 -29 0 -31 44 -44 68 -21 14 15 14 18 -3 37 -18 20 -45 26 -58 13z"/>
<path d="M620 6103 c-48 -61 2 -143 86 -143 56 0 84 25 84 76 0 54 -44 94 -104 94 -37 0 -48 -5 -66 -27z"/>
<path d="M2890 6011 c-5 -11 -7 -26 -4 -34 6 -16 70 -54 78 -46 9 8 -37 99 -50 99 -7 0 -18 -9 -24 -19z"/>
<path d="M546 5804 c-12 -31 -6 -63 13 -69 40 -12 70 22 56 65 -8 25 -60 28 -69 4z"/>
<path d="M1048 5403 c12 -2 30 -2 40 0 9 3 -1 5 -23 4 -22 0 -30 -2 -17 -4z"/>
<path d="M965 4777 c-27 -4 -62 -12 -77 -16 -18 -6 -33 -5 -45 4 -19 14 -21 8 -14 -52 2 -25 33 -44 61 -38 16 3 31 2 34 -3 3 -6 59 -9 126 -9 65 1 122 -2 125 -5 4 -3 13 -36 20 -73 8 -37 24 -92 35 -122 11 -30 18 -58 15 -63 -3 -5 -1 -11 4 -14 10 -7 19 -48 27 -136 3 -35 10 -72 14 -81 5 -9 14 -50 20 -90 6 -41 18 -94 27 -118 15 -41 15 -45 -1 -56 -9 -7 -16 -18 -16 -24 0 -7 -11 -24 -25 -39 -14 -15 -25 -32 -25 -39 0 -6 -3 -13 -8 -15 -4 -1 -25 -28 -47 -58 -22 -30 -43 -56 -47 -58 -5 -2 -8 -9 -8 -15 0 -7 -15 -28 -33 -47 -17 -19 -49 -57 -71 -85 -30 -39 -31 -42 -6 -15 18 19 50 55 73 79 52 57 137 169 137 182 0 5 3 9 8 9 4 0 16 16 26 35 11 19 23 35 28 35 4 0 8 7 8 15 0 9 12 20 26 25 15 6 206 10 472 10 l447 0 18 -23 c10 -12 54 -71 97 -132 43 -60 98 -128 121 -150 24 -22 35 -29 24 -15 -11 14 -28 32 -37 41 -10 9 -18 19 -18 23 0 7 -13 24 -47 61 -13 13 -23 27 -23 31 0 3 -16 28 -35 54 -19 26 -35 51 -35 54 0 4 -12 19 -26 34 -21 22 -24 33 -19 62 3 19 8 53 11 75 6 44 30 134 50 180 13 31 24 98 49 300 9 66 17 125 20 131 8 26 262 37 290 14 12 -10 24 -10 54 -1 49 14 63 32 59 73 -2 26 -10 37 -40 53 -36 19 -37 19 -58 0 -16 -14 -23 -16 -32 -7 -7 7 -20 12 -31 12 -11 0 -15 4 -11 12 4 7 3 8 -4 4 -11 -7 -293 -8 -1197 -3 -242 1 -462 -2 -490 -6z m1195 -123 c113 -8 121 -11 115 -37 -2 -12 -7 -78 -10 -147 -7 -151 -15 -197 -43 -236 -15 -20 -25 -57 -33 -119 -6 -49 -16 -115 -23 -145 l-12 -55 -335 -3 -335 -2 -11 57 c-31 153 -35 184 -29 206 5 21 -9 89 -40 194 -5 20 -2 22 37 26 l44 4 -46 1 -45 2 -27 108 c-38 151 -38 150 26 155 66 6 667 -1 767 -9z"/>
<path d="M2690 4587 c0 -2 15 -16 33 -33 l32 -29 -29 33 c-28 30 -36 37 -36 29z"/>
<path d="M2583 4403 c31 -2 83 -2 115 0 31 2 5 3 -58 3 -63 0 -89 -1 -57 -3z"/>
<path d="M946 3404 c-50 -57 -42 -57 14 1 24 25 40 45 35 44 -6 0 -27 -21 -49 -45z"/>
<path d="M3010 3055 c19 -19 36 -35 39 -35 3 0 -10 16 -29 35 -19 19 -36 35 -39 35 -3 0 10 -16 29 -35z"/>
<path d="M525 2958 l-60 -63 63 60 c58 55 67 65 59 65 -1 0 -29 -28 -62 -62z"/>
<path d="M103 2095 c0 -22 2 -30 4 -17 2 12 2 30 0 40 -3 9 -5 -1 -4 -23z"/>
<path d="M3543 1960 c0 -25 2 -35 4 -22 2 12 2 32 0 45 -2 12 -4 2 -4 -23z"/>
<path d="M84 1800 c0 -80 2 -112 3 -72 2 39 2 105 0 145 -1 39 -3 7 -3 -73z"/>
<path d="M3543 1690 c0 -25 2 -35 4 -22 2 12 2 32 0 45 -2 12 -4 2 -4 -23z"/>
<path d="M102 1540 c0 -19 2 -27 5 -17 2 9 2 25 0 35 -3 9 -5 1 -5 -18z"/>
<path d="M3160 710 c-12 -16 -19 -30 -16 -30 2 0 14 14 26 30 12 17 19 30 16 30 -2 0 -14 -13 -26 -30z"/>
<path d="M580 580 c13 -11 25 -20 28 -20 3 0 -3 9 -13 20 -10 11 -23 20 -28 20 -6 0 0 -9 13 -20z"/>
<path d="M729 446 c13 -16 51 -41 51 -33 0 2 -15 14 -32 27 -21 15 -28 17 -19 6z"/>
<path d="M2670 295 c-19 -14 -30 -25 -25 -25 6 0 24 11 40 25 39 31 30 31 -15 0z"/>
<path d="M2280 130 c-11 -8 -7 -9 15 -4 37 8 45 14 19 14 -10 0 -26 -5 -34 -10z"/>
<path d="M1459 97 c5 -5 19 -7 32 -5 20 3 19 5 -9 9 -20 3 -29 2 -23 -4z"/>
<path d="M1560 90 c0 -10 148 -25 157 -16 4 3 -11 6 -33 6 -21 1 -58 5 -81 9 -24 5 -43 5 -43 1z"/>
<path d="M2015 90 c-27 -5 -102 -10 -165 -11 -91 -2 -100 -4 -45 -7 93 -5 275 8 275 19 0 5 -3 8 -7 8 -5 -1 -30 -5 -58 -9z"/>
</g>


</svg>