<!DOCTYPE svg PUBLIC "-//W3C//DTD SVG 20010904//EN" "http://www.w3.org/TR/2001/REC-SVG-20010904/DTD/svg10.dtd">
<svg version="1.0" xmlns="http://www.w3.org/2000/svg" width="125px" height="100px" viewBox="0 0 1250 1000" preserveAspectRatio="xMidYMid meet">
<g id="layer101" fill="#bf6833" stroke="none">
 <path d="M1039 926 c-53 -35 -99 -68 -102 -73 -4 -6 5 -20 18 -33 21 -20 28 -22 50 -12 14 7 27 12 28 12 2 0 -20 -48 -49 -107 -76 -158 -110 -183 -217 -158 -168 40 -199 19 -279 -190 -33 -86 -47 -92 -198 -78 -142 12 -173 7 -218 -40 -29 -30 -34 -42 -39 -104 -7 -81 5 -113 42 -113 20 0 25 6 30 38 11 68 40 135 66 154 30 22 52 24 214 13 113 -7 122 -6 146 14 16 12 40 53 59 103 60 151 88 170 204 144 37 -9 87 -16 111 -16 63 0 108 42 157 147 39 83 58 108 58 78 0 -22 66 -88 80 -80 6 4 8 36 4 88 -4 56 -1 101 9 142 8 35 11 69 6 82 -9 24 -47 53 -69 52 -8 0 -58 -29 -111 -63z"/>
 </g>
<g id="layer102" fill="#dcb289" stroke="none">
 <path d="M1039 926 c-53 -35 -99 -68 -102 -73 -4 -6 5 -20 18 -33 21 -20 28 -21 47 -12 23 11 23 11 -2 6 -18 -4 -31 1 -44 15 -18 20 -17 21 83 86 55 36 108 65 116 65 9 0 27 -11 40 -25 14 -13 25 -20 25 -15 0 13 -51 50 -69 49 -9 0 -59 -29 -112 -63z"/>
 <path d="M1039 835 c-1 -3 -2 -8 -3 -12 -1 -5 -12 -28 -25 -51 -12 -24 -21 -45 -19 -47 2 -2 18 23 35 56 18 32 28 59 23 59 -6 0 -11 -2 -11 -5z"/>
 <path d="M1193 755 c0 -27 2 -38 4 -22 2 15 2 37 0 50 -2 12 -4 0 -4 -28z"/>
 <path d="M1100 719 c-12 -22 -12 -23 3 -10 15 12 17 11 18 -5 0 -11 3 -14 5 -7 3 7 1 20 -4 29 -9 15 -11 15 -22 -7z"/>
 <path d="M960 659 c-19 -45 -59 -89 -95 -105 -17 -8 -23 -13 -13 -14 25 0 86 57 109 103 11 21 18 41 16 43 -2 3 -10 -10 -17 -27z"/>
 <path d="M1199 661 l-4 -34 -35 28 -35 27 34 -32 c37 -36 55 -30 49 16 -4 28 -4 28 -9 -5z"/>
 <path d="M1039 600 c-20 -38 -32 -67 -27 -64 10 7 71 125 66 129 -2 2 -19 -27 -39 -65z"/>
 <path d="M586 549 c-14 -11 -33 -35 -41 -52 -9 -18 -10 -23 -3 -13 42 63 55 71 120 77 l63 6 -56 1 c-44 2 -62 -3 -83 -19z"/>
 <path d="M955 499 c-16 -10 -25 -19 -19 -19 7 0 22 9 35 20 30 24 23 24 -16 -1z"/>
 <path d="M506 414 c-9 -26 -14 -49 -12 -51 2 -2 11 17 20 43 9 26 14 49 12 51 -2 2 -11 -17 -20 -43z"/>
 <path d="M452 298 c-7 -7 -43 -16 -80 -19 l-67 -6 61 -1 c48 -2 67 2 85 18 13 10 22 19 19 20 -4 0 -12 -6 -18 -12z"/>
 <path d="M80 254 c-24 -22 -40 -45 -39 -58 0 -19 1 -19 10 4 14 35 39 61 74 76 18 8 23 13 13 14 -10 0 -36 -16 -58 -36z"/>
 <path d="M248 283 c12 -2 30 -2 40 0 9 3 -1 5 -23 4 -22 0 -30 -2 -17 -4z"/>
 <path d="M521 254 c-19 -13 -29 -24 -23 -24 6 0 24 11 39 25 35 31 28 31 -16 -1z"/>
 <path d="M273 243 c9 -2 25 -2 35 0 9 3 1 5 -18 5 -19 0 -27 -2 -17 -5z"/>
 <path d="M368 233 c12 -2 30 -2 40 0 9 3 -1 5 -23 4 -22 0 -30 -2 -17 -4z"/>
 <path d="M33 115 c0 -33 2 -45 4 -27 2 18 2 45 0 60 -2 15 -4 0 -4 -33z"/>
 </g>

</svg>