<?xml version="1.0" standalone="no"?>
<!DOCTYPE svg PUBLIC "-//W3C//DTD SVG 20010904//EN"
 "http://www.w3.org/TR/2001/REC-SVG-20010904/DTD/svg10.dtd">
<svg version="1.0" xmlns="http://www.w3.org/2000/svg"
 width="1100.000000pt" height="413.000000pt" viewBox="0 0 1100.000000 413.000000"
 preserveAspectRatio="xMidYMid meet">
<metadata>
Created by potrace 1.12, written by Peter Selinger 2001-2015
</metadata>
<g transform="translate(0.000000,413.000000) scale(0.100000,-0.100000)"
fill="lightblue" stroke="none">
<path d="M3960 2917 c-57 -30 -80 -51 -100 -91 -28 -59 -26 -75 20 -144 31
-47 40 -69 40 -103 0 -40 -4 -47 -62 -101 -35 -32 -95 -74 -136 -94 -62 -31
-84 -49 -143 -120 -100 -120 -132 -132 -245 -94 -81 28 -137 30 -165 5 -33
-30 -85 -115 -94 -154 -4 -18 -24 -50 -46 -72 -21 -21 -39 -43 -39 -49 0 -22
-51 -38 -155 -49 -76 -9 -142 -23 -213 -48 -90 -31 -112 -35 -180 -32 -87 4
-199 -8 -208 -22 -3 -5 -42 -28 -86 -50 -58 -29 -88 -39 -106 -34 -44 11 -141
104 -164 157 -11 27 -29 53 -39 58 -28 16 -105 12 -119 -5 -7 -8 -21 -15 -32
-15 -26 0 -89 -33 -113 -60 -38 -42 -95 -62 -205 -73 -140 -14 -282 7 -384 56
-39 19 -84 37 -99 41 -32 7 -36 16 -71 145 -14 52 -34 108 -44 125 -20 35 -76
59 -134 57 -40 -1 -164 34 -173 49 -3 5 -30 0 -61 -12 l-55 -21 -36 20 c-19
11 -51 42 -72 69 -27 36 -46 51 -74 57 -30 7 -42 17 -55 43 -12 26 -22 34 -42
34 -32 0 -60 -28 -60 -60 0 -23 1 -23 33 8 40 39 45 39 49 5 2 -20 17 -38 53
-63 27 -19 74 -59 104 -88 30 -29 65 -55 77 -58 12 -3 44 1 72 9 28 9 53 13
55 10 3 -3 25 -6 49 -8 102 -8 179 -24 210 -42 37 -22 79 -112 97 -209 13 -70
22 -81 91 -111 30 -14 93 -43 139 -65 55 -26 113 -45 170 -55 47 -8 93 -19
103 -24 49 -26 338 5 417 45 28 15 67 26 89 26 32 0 45 -7 82 -46 90 -93 184
-99 267 -15 26 26 39 31 77 31 25 0 57 6 72 12 l27 13 -24 6 c-13 4 35 5 106
2 l130 -5 69 36 c56 29 94 40 194 56 68 11 136 27 151 34 53 28 130 119 170
201 34 71 44 83 80 99 39 18 43 18 83 1 92 -38 118 -44 150 -39 55 10 113 50
169 116 53 63 98 107 110 108 4 0 10 -12 14 -27 13 -55 63 -81 93 -51 29 29
-3 104 -39 93 -33 -11 -21 4 22 26 56 28 166 137 175 172 10 41 -10 97 -56
158 -22 30 -40 63 -40 76 0 65 55 105 149 105 108 1 190 -56 217 -152 18 -62
55 -140 66 -140 4 0 11 -15 16 -32 5 -20 18 -38 33 -45 147 -72 151 -74 263
-71 177 5 176 10 202 -632 5 -114 3 -132 -20 -209 -51 -167 -26 -262 94 -358
117 -93 166 -118 240 -120 111 -2 211 -14 295 -34 91 -21 237 -28 370 -15 86
8 92 7 140 -19 49 -26 52 -27 170 -20 85 5 130 13 155 25 64 33 114 49 180 56
35 3 132 28 215 55 82 27 162 49 176 49 30 0 146 44 168 64 9 8 87 42 173 75
87 33 171 67 187 75 37 19 66 57 82 103 6 20 22 46 35 58 26 24 44 103 26 114
-8 5 -8 20 -1 51 6 25 10 88 11 140 0 112 19 224 42 249 19 21 92 45 107 35
14 -8 29 14 29 44 0 12 17 47 37 78 27 41 41 54 55 51 11 -3 22 2 29 15 10 19
121 78 147 78 6 0 12 12 12 27 0 25 1 26 13 8 13 -17 14 -17 19 3 6 21 8 20
76 -13 39 -19 73 -35 76 -35 3 0 6 24 6 54 l0 53 -77 6 c-44 3 -82 2 -88 -4
-5 -5 -17 -9 -27 -9 -10 0 -18 -7 -18 -17 0 -15 -1 -15 -13 1 -22 30 -84 12
-132 -39 l-40 -43 -47 27 c-26 15 -56 35 -66 44 -23 21 -46 22 -62 2 -16 -19
-17 -18 83 -84 l78 -52 -16 -27 c-31 -51 -44 -64 -59 -59 -8 3 -16 16 -18 28
-2 12 -17 29 -36 40 -19 9 -39 24 -45 32 -19 24 -208 157 -223 157 -16 0 -37
-37 -29 -50 3 -6 19 -10 34 -10 15 0 36 -9 46 -20 10 -11 25 -20 34 -20 9 0
28 -8 43 -18 l27 -17 -150 -210 -150 -210 -44 -3 c-40 -3 -84 3 -167 24 -21 5
-28 3 -28 -8 0 -15 58 -34 138 -43 51 -6 92 -28 92 -50 0 -11 -71 -45 -93 -45
-6 0 -43 -16 -82 -35 -110 -54 -969 -443 -1075 -486 -52 -21 -105 -39 -116
-39 -12 0 -61 -19 -110 -42 -95 -44 -187 -60 -341 -60 -40 1 -75 -3 -78 -7
-18 -30 -273 72 -343 137 -50 47 -67 120 -68 307 -1 88 -6 282 -10 430 -8 243
-11 275 -30 316 -27 58 -85 123 -124 139 -39 16 -178 10 -189 -9 -7 -11 -15
-11 -42 -2 -70 24 -80 35 -118 138 -36 96 -184 241 -273 268 -63 18 -144 19
-178 2z m-132 -635 c3 -31 1 -33 -24 -30 -31 4 -50 28 -41 52 5 12 16 16 34
14 24 -2 29 -8 31 -36z m3601 -774 c-7 -13 -15 -30 -19 -38 -9 -21 -114 -71
-158 -75 -52 -5 -166 -49 -192 -75 -12 -12 -28 -19 -36 -16 -19 7 -171 -52
-178 -70 -7 -18 -36 -19 -36 0 0 21 16 30 125 69 55 20 145 55 200 77 55 23
125 50 156 61 32 11 70 34 89 54 40 41 67 48 49 13z"/>
</g>
</svg>
