<!DOCTYPE svg PUBLIC "-//W3C//DTD SVG 20010904//EN" "http://www.w3.org/TR/2001/REC-SVG-20010904/DTD/svg10.dtd">
<svg version="1.0" xmlns="http://www.w3.org/2000/svg" width="1600px" height="71px" viewBox="0 0 16000 710" preserveAspectRatio="xMidYMid meet">
<g id="layer101" fill="#000000" stroke="none">
</g>
<g id="layer102" fill="#acacac" stroke="none">
<path d="M0 580 l0 -130 68 0 c37 -1 90 -3 117 -5 83 -8 535 -33 605 -34 36 -1 126 -5 200 -11 74 -5 194 -12 265 -15 72 -2 245 -11 385 -20 524 -30 828 -45 915 -45 50 0 194 -7 320 -14 127 -8 302 -17 390 -21 88 -3 257 -10 375 -15 118 -5 316 -12 440 -15 124 -3 410 -10 635 -16 528 -13 1694 -13 2220 1 226 5 509 12 630 15 121 3 315 10 430 15 116 5 284 12 375 15 91 3 269 12 395 20 127 8 273 15 325 15 52 0 214 6 360 14 566 32 671 38 855 46 105 5 262 14 350 20 88 5 221 12 295 15 74 2 248 11 385 20 454 27 1474 72 1805 80 129 3 332 10 450 15 369 16 867 23 1653 23 l757 0 0 78 0 79 -8000 0 -8000 0 0 -130z"/>
</g>


</svg>