<!DOCTYPE svg PUBLIC "-//W3C//DTD SVG 20010904//EN" "http://www.w3.org/TR/2001/REC-SVG-20010904/DTD/svg10.dtd">
<svg version="1.0" xmlns="http://www.w3.org/2000/svg" width="1600px" height="271px" viewBox="0 0 16000 2710" preserveAspectRatio="xMidYMid meet">
<g id="layer101" fill="#acacac" stroke="none">
 <path d="M8003 2553 l-7993 -3 0 -820 0 -820 265 0 265 0 0 160 c0 88 2 160 5 160 24 0 65 -34 65 -53 0 -29 33 -83 59 -97 12 -6 37 -11 56 -12 l35 -1 0 -269 0 -268 270 0 270 0 0 210 0 210 210 0 210 0 0 -325 0 -325 230 0 230 0 0 230 0 230 169 0 170 0 3 229 c2 126 6 232 10 236 4 4 28 0 54 -9 26 -9 61 -16 77 -16 31 0 97 35 97 51 0 5 45 9 100 9 l100 0 30 -32 29 -33 1 -217 0 -218 220 0 220 0 0 160 0 160 100 0 100 0 0 -420 0 -420 630 0 630 0 0 260 0 260 298 -2 297 -3 3 -272 2 -273 185 0 185 0 2 408 3 407 277 3 278 2 0 -150 0 -150 390 0 390 0 0 125 0 125 255 0 255 0 0 -425 0 -425 325 0 325 0 0 543 0 544 23 21 c45 42 47 34 47 -153 l0 -175 195 0 195 0 0 160 c0 100 4 160 10 160 6 0 10 -138 10 -395 l0 -395 270 0 270 0 0 365 c0 201 2 365 5 365 4 0 20 -7 37 -16 51 -27 154 2 199 55 25 31 26 31 127 31 l102 0 0 -305 0 -305 455 0 455 0 0 -90 0 -90 75 0 75 0 0 90 0 90 200 0 200 0 0 295 c0 162 2 295 4 295 3 0 17 -5 33 -11 48 -19 160 -13 199 10 63 37 64 36 64 -109 l0 -130 185 0 185 0 0 -250 0 -250 360 0 360 0 0 170 0 170 90 0 90 0 0 -320 0 -320 150 0 150 0 2 483 c3 463 4 481 20 450 12 -21 32 -37 61 -48 40 -15 47 -15 82 -1 44 19 58 34 86 99 12 26 25 47 30 47 5 0 9 -124 9 -275 l0 -275 435 0 435 0 0 -150 0 -150 275 0 275 0 0 150 0 150 115 0 115 0 0 300 c0 293 0 300 20 300 19 0 20 -7 20 -145 l0 -145 120 0 120 0 0 120 0 120 25 0 25 0 0 -150 0 -150 260 0 260 0 0 825 c0 454 -1 824 -2 823 -2 -2 -3600 -4 -7995 -5z"/>
 </g>

</svg>