<!DOCTYPE svg PUBLIC "-//W3C//DTD SVG 20010904//EN" "http://www.w3.org/TR/2001/REC-SVG-20010904/DTD/svg10.dtd">
<svg version="1.0" xmlns="http://www.w3.org/2000/svg" width="1600px" height="181px" viewBox="0 0 16000 1810" preserveAspectRatio="xMidYMid meet">
<g id="layer101" fill="#000000" stroke="none">
</g>
<g id="layer102" fill="#4c6c23" stroke="none">
<path d="M10 1113 c1 -307 5 -589 9 -626 14 -108 52 -136 196 -144 51 -3 108 -3 127 1 39 7 114 73 129 114 10 26 11 26 25 8 8 -11 14 -30 14 -41 0 -26 34 -65 72 -84 19 -10 32 -28 43 -66 20 -63 52 -85 122 -85 54 0 150 27 203 57 43 24 97 112 106 170 6 41 8 43 39 43 31 0 33 -2 39 -46 3 -26 6 -71 6 -100 0 -29 4 -64 10 -78 24 -65 136 -87 204 -41 20 14 47 25 60 25 35 0 80 52 95 110 l13 50 51 0 c57 0 93 17 143 68 22 22 37 29 53 25 11 -3 21 -10 21 -15 0 -5 16 -24 36 -42 30 -27 47 -34 93 -39 31 -3 83 -1 116 3 33 4 63 5 66 1 3 -3 14 -33 24 -67 22 -70 44 -91 116 -104 101 -19 152 -13 205 23 31 21 56 50 69 75 22 47 29 49 104 26 59 -17 78 -14 122 23 46 39 79 97 79 140 0 74 7 83 60 83 55 0 60 -7 60 -103 0 -92 53 -156 146 -176 50 -12 61 -11 98 5 22 10 55 28 72 40 31 23 74 92 74 119 0 8 5 25 12 39 l11 26 23 -25 c49 -53 187 -56 214 -5 8 15 21 20 50 20 45 0 49 -8 20 -35 -23 -21 -40 -74 -40 -125 0 -46 41 -96 95 -118 24 -9 82 -17 143 -19 l103 -4 41 43 c22 24 47 52 54 63 11 15 16 17 26 7 34 -34 135 3 158 57 13 31 10 194 -4 223 -7 16 -3 18 32 18 23 0 45 -6 52 -15 7 -8 23 -15 35 -15 29 0 33 -14 50 -196 14 -149 21 -173 57 -198 29 -21 112 -20 147 0 30 17 81 89 101 142 9 22 19 32 34 32 11 0 30 7 40 15 13 10 44 15 92 15 l71 0 7 -37 c5 -37 12 -46 127 -169 56 -60 66 -67 108 -82 79 -28 156 -9 209 52 41 47 46 70 32 142 -22 110 -23 107 5 137 16 16 36 27 53 27 31 0 61 18 115 69 l37 35 0 -39 c0 -71 19 -118 63 -157 62 -56 123 -52 189 14 14 14 22 15 49 6 17 -6 59 -8 92 -6 67 6 122 35 164 86 24 31 41 25 23 -9 -7 -12 -13 -51 -14 -87 -1 -63 0 -65 38 -98 44 -38 131 -74 178 -74 31 0 132 42 143 59 3 6 28 -1 58 -14 57 -27 144 -33 194 -14 40 15 109 91 117 129 9 49 7 118 -4 125 -6 3 -10 13 -10 21 0 10 14 14 57 14 44 0 68 6 110 30 76 43 79 41 86 -37 3 -38 11 -80 18 -95 29 -58 108 -74 186 -39 l41 19 6 -21 c3 -12 6 -38 6 -57 1 -63 39 -105 117 -130 67 -21 112 -3 155 62 34 52 78 170 78 208 0 15 7 20 28 20 16 0 62 9 102 19 49 13 77 16 81 10 3 -6 9 -56 13 -111 4 -56 13 -113 21 -127 46 -91 158 -101 213 -20 15 22 38 41 52 44 74 17 102 28 127 51 23 21 28 35 29 77 2 93 12 123 49 143 30 16 39 16 89 4 l56 -13 0 -65 c0 -83 19 -114 84 -143 63 -28 162 -29 207 -2 16 9 29 20 29 23 0 3 9 16 19 30 18 23 21 23 38 9 47 -41 258 -109 337 -109 28 0 52 -7 68 -20 48 -37 72 -41 135 -19 42 14 70 32 101 65 23 26 42 52 42 58 0 18 21 36 42 36 9 0 31 18 49 39 l31 39 56 -19 c64 -22 110 -24 148 -7 24 11 28 10 38 -7 6 -10 24 -31 39 -47 23 -23 36 -28 79 -28 45 0 55 4 80 32 35 40 42 63 36 135 l-5 55 72 -6 c43 -4 83 -2 100 4 15 6 30 8 33 5 3 -2 4 -39 4 -80 -2 -79 16 -143 49 -180 33 -37 118 -58 207 -53 76 4 84 7 137 47 65 49 101 115 111 204 5 43 2 59 -16 89 l-22 37 29 6 c15 4 36 10 45 16 10 5 33 9 51 9 27 0 44 -11 100 -68 63 -63 67 -70 67 -113 0 -48 33 -154 55 -179 8 -9 39 -24 69 -34 133 -45 272 19 343 158 27 54 27 114 -1 159 -37 58 -34 62 61 82 152 31 146 32 164 -13 10 -24 28 -45 45 -53 l29 -14 5 -142 5 -142 35 -36 c36 -37 95 -60 126 -49 43 14 103 46 114 60 16 19 27 18 51 -5 37 -34 109 -35 180 -3 39 18 65 62 75 128 5 35 10 43 33 47 32 7 111 69 125 98 8 16 15 18 40 13 17 -4 72 -12 121 -18 l90 -11 5 -46 c10 -84 49 -119 134 -119 l43 0 5 -79 c3 -57 10 -87 27 -114 38 -62 125 -74 177 -25 13 13 24 30 24 38 0 8 7 24 15 34 8 11 15 28 15 38 0 17 12 18 164 18 91 0 177 5 192 10 39 15 61 45 69 91 11 63 52 129 81 129 13 0 38 14 55 31 22 21 38 29 53 26 30 -8 107 -36 134 -49 34 -17 170 -17 181 1 12 19 31 5 31 -23 0 -33 55 -104 95 -123 31 -15 40 -15 73 -4 53 19 108 65 129 109 17 35 20 37 62 34 57 -5 115 23 138 65 20 37 25 39 44 17 7 -8 25 -22 40 -30 24 -12 29 -22 35 -71 3 -32 15 -76 25 -98 37 -78 125 -96 184 -37 26 26 28 26 39 8 42 -70 85 -94 146 -81 31 7 80 47 80 65 0 20 28 9 76 -27 l49 -38 126 0 c110 1 129 4 160 22 72 45 69 11 69 692 l0 611 -7995 0 -7995 0 0 -557z"/>
</g>


</svg>